<svg xmlns="http://www.w3.org/2000/svg" xmlns:xlink="http://www.w3.org/1999/xlink" width="500" zoomAndPan="magnify" viewBox="0 0 375 374.999991" height="500" preserveAspectRatio="xMidYMid meet" version="1.0"><defs><clipPath id="a9f0bc49de"><path d="M 51 170 L 164 170 L 164 183 L 51 183 Z M 51 170 " clip-rule="nonzero"/></clipPath><clipPath id="bbd954a14c"><path d="M 61.453125 173.898438 C 61.453125 173.898438 141.585938 167.230469 161.527344 173.898438 C 167.03125 175.738281 162.433594 181.40625 139.988281 182.53125 C 117.542969 183.65625 111.902344 180.511719 96.136719 180.585938 C 80.375 180.664062 68.789062 182.90625 56.558594 179.902344 C 44.332031 176.902344 57.167969 173.898438 61.449219 173.898438 " clip-rule="nonzero"/></clipPath><clipPath id="90d09e60f2"><path d="M 244 269 L 337.617188 269 L 337.617188 326 L 244 326 Z M 244 269 " clip-rule="nonzero"/></clipPath><clipPath id="489884f212"><path d="M 91 289 L 166 289 L 166 357.449219 L 91 357.449219 Z M 91 289 " clip-rule="nonzero"/></clipPath><clipPath id="040b027696"><path d="M 45.867188 77 L 327 77 L 327 317 L 45.867188 317 Z M 45.867188 77 " clip-rule="nonzero"/></clipPath></defs><g clip-path="url(#a9f0bc49de)"><g clip-path="url(#bbd954a14c)"><path fill="#e7e7e8" d="M 51.417969 170.941406 L 163.640625 170.941406 L 163.640625 182.777344 L 51.417969 182.777344 Z M 51.417969 170.941406 " fill-opacity="1" fill-rule="nonzero"/></g></g><path fill="#d33a22" d="M 200.484375 188.394531 C 200.484375 188.394531 200.488281 188.398438 200.804688 188.925781 L 200.574219 188.867188 C 200.519531 188.5625 200.484375 188.394531 200.484375 188.394531 Z M 200.484375 188.394531 " fill-opacity="1" fill-rule="nonzero"/><g clip-path="url(#90d09e60f2)"><path fill="#f29222" d="M 288.109375 318.429688 C 287.050781 315.519531 290.464844 309.492188 291.007812 308.558594 C 281.421875 303.445312 244.792969 286.773438 244.792969 286.773438 C 244.792969 286.773438 243.164062 266.84375 255.125 270.265625 C 267.089844 273.691406 294.761719 302.226562 294.761719 302.226562 C 299.300781 295.027344 307.144531 284.199219 313.011719 284.5 C 314.257812 283.527344 317.03125 281.851562 319.292969 284.054688 C 318.574219 284.09375 316.921875 284.160156 315.285156 286.019531 C 315.324219 287.128906 314.28125 288.730469 312.65625 290.53125 C 318.511719 287.035156 324.460938 284.921875 328.921875 286.667969 C 329.578125 286.925781 330.078125 287.21875 330.445312 287.542969 C 332.835938 287.421875 336.585938 287.878906 337.566406 291.75 C 336.574219 291.210938 334.183594 289.867188 330.167969 291.535156 C 324.398438 298.835938 297.183594 310.070312 297.183594 310.070312 C 297.183594 310.070312 295.753906 320.023438 290.6875 319.996094 C 288.914062 322.308594 289.222656 324.226562 289.347656 325.058594 C 286.660156 323.226562 287.34375 320.234375 288.109375 318.429688 Z M 288.109375 318.429688 " fill-opacity="1" fill-rule="nonzero"/></g><g clip-path="url(#489884f212)"><path fill="#f29222" d="M 148.101562 350.734375 C 147.300781 347.738281 141.054688 344.75 140.074219 344.300781 C 145.007812 334.621094 165.496094 299.980469 165.496094 299.980469 C 165.496094 299.980469 155.421875 282.703125 147.574219 292.359375 C 139.726562 302.015625 133.371094 341.253906 133.371094 341.253906 C 125.527344 337.953125 112.898438 333.5625 108.257812 337.167969 C 106.683594 337.085938 103.449219 337.300781 102.855469 340.398438 C 103.464844 340.019531 104.859375 339.128906 107.265625 339.714844 C 107.867188 340.648438 109.644531 341.363281 112.003906 341.914062 C 105.203125 342.398438 99.117188 344.070312 96.457031 348.054688 C 96.066406 348.644531 95.824219 349.167969 95.707031 349.644531 C 93.679688 350.914062 90.863281 353.4375 92.28125 357.171875 C 92.785156 356.164062 93.972656 353.6875 98.222656 352.761719 C 107.128906 355.445312 135.875 349.074219 135.875 349.074219 C 135.875 349.074219 142.746094 356.417969 146.886719 353.496094 C 149.664062 354.375 150.507812 356.125 150.882812 356.875 C 152.035156 353.835938 149.761719 351.773438 148.101562 350.734375 Z M 148.101562 350.734375 " fill-opacity="1" fill-rule="nonzero"/></g><g clip-path="url(#040b027696)"><path fill="#005995" d="M 326.589844 121.886719 C 326.589844 121.8125 326.589844 121.738281 326.585938 121.664062 C 326.582031 121.621094 326.578125 121.578125 326.574219 121.535156 C 326.5625 121.433594 326.558594 121.335938 326.542969 121.242188 L 326.5 120.996094 L 326.429688 120.726562 L 326.363281 120.457031 L 326.277344 120.21875 L 326.15625 119.980469 L 326.035156 119.738281 L 325.941406 119.574219 C 325.8125 119.382812 325.664062 119.203125 325.5 119.046875 L 325.394531 118.964844 L 324.949219 118.636719 L 324.75 118.527344 L 324.292969 118.328125 L 324.074219 118.253906 L 323.472656 118.128906 L 323.335938 118.105469 C 323.078125 118.078125 322.8125 118.074219 322.535156 118.085938 L 322.308594 118.109375 C 322.125 118.125 321.933594 118.152344 321.738281 118.1875 C 321.714844 118.191406 321.695312 118.191406 321.671875 118.199219 L 321.371094 118.261719 C 321.3125 118.277344 321.246094 118.296875 321.1875 118.316406 C 321.035156 118.355469 320.882812 118.394531 320.726562 118.449219 L 320.445312 118.542969 C 320.390625 118.558594 320.339844 118.585938 320.285156 118.605469 C 320.101562 118.675781 319.921875 118.753906 319.734375 118.839844 C 319.65625 118.875 319.578125 118.910156 319.496094 118.949219 L 319.484375 118.957031 L 319.480469 118.960938 C 319.324219 119.039062 319.164062 119.125 319.007812 119.214844 C 318.847656 119.308594 318.691406 119.40625 318.53125 119.507812 L 318.351562 119.625 L 318.234375 119.707031 C 318.167969 119.753906 318.097656 119.804688 318.03125 119.851562 C 317.875 119.964844 317.714844 120.074219 317.558594 120.195312 L 317.164062 120.515625 C 316.953125 120.691406 316.738281 120.878906 316.527344 121.078125 L 316.148438 121.4375 C 316 121.589844 315.851562 121.753906 315.703125 121.914062 C 315.625 122 315.550781 122.074219 315.472656 122.160156 L 315.152344 122.515625 C 314.824219 122.902344 314.5 123.3125 314.183594 123.753906 L 314.203125 123.5 C 314.386719 123.167969 314.550781 122.84375 314.722656 122.519531 C 315.070312 121.851562 315.402344 121.1875 315.699219 120.539062 C 315.804688 120.304688 315.894531 120.082031 315.984375 119.855469 C 316.019531 119.765625 316.054688 119.675781 316.089844 119.585938 C 316.355469 118.964844 316.628906 118.339844 316.84375 117.746094 C 316.980469 117.375 317.074219 117.027344 317.1875 116.667969 C 317.359375 116.148438 317.539062 115.617188 317.671875 115.117188 C 317.769531 114.75 317.835938 114.40625 317.914062 114.050781 C 318.019531 113.585938 318.132812 113.117188 318.207031 112.671875 C 318.269531 112.320312 318.292969 111.992188 318.339844 111.652344 C 318.390625 111.238281 318.453125 110.8125 318.480469 110.417969 C 318.5 110.089844 318.496094 109.78125 318.503906 109.46875 C 318.511719 109.097656 318.527344 108.71875 318.511719 108.363281 C 318.5 108.0625 318.464844 107.789062 318.441406 107.503906 C 318.410156 107.171875 318.382812 106.835938 318.335938 106.523438 C 318.292969 106.253906 318.234375 106.011719 318.175781 105.757812 C 318.117188 105.46875 318.054688 105.175781 317.976562 104.90625 C 317.90625 104.671875 317.824219 104.460938 317.746094 104.246094 C 317.652344 103.996094 317.566406 103.746094 317.460938 103.519531 C 317.371094 103.324219 317.269531 103.148438 317.171875 102.96875 C 317.058594 102.765625 316.941406 102.5625 316.820312 102.378906 C 316.746094 102.273438 316.671875 102.183594 316.597656 102.089844 C 316.179688 93.980469 313.546875 87.179688 307.890625 82.816406 C 301.132812 77.605469 285.4375 73.6875 274.890625 86.890625 C 271.910156 90.621094 274.710938 94.328125 274.710938 94.328125 C 274.710938 94.328125 267.402344 100.203125 278.707031 108.714844 C 278.707031 108.714844 274.617188 116.949219 265.414062 126.226562 C 265.410156 126.230469 265.40625 126.234375 265.402344 126.238281 C 261.4375 130.238281 256.515625 134.425781 250.570312 138.238281 C 250.546875 138.246094 250.53125 138.25 250.53125 138.25 C 245.394531 141.539062 239.496094 144.539062 232.773438 146.890625 C 232.695312 146.917969 232.617188 146.945312 232.542969 146.972656 C 231.882812 147.199219 231.21875 147.421875 230.542969 147.636719 C 230.503906 147.648438 230.464844 147.660156 230.425781 147.671875 C 230.347656 147.695312 230.273438 147.71875 230.195312 147.746094 C 229.558594 147.945312 228.917969 148.136719 228.269531 148.324219 C 228.132812 148.363281 228 148.402344 227.867188 148.441406 C 227.289062 148.605469 226.703125 148.761719 226.117188 148.914062 C 215.519531 145.109375 202.816406 143.507812 187.878906 144.847656 C 172.113281 146.261719 158.863281 151.363281 148.136719 158.921875 C 147.628906 158.835938 147.121094 158.753906 146.621094 158.660156 C 146.480469 158.632812 146.347656 158.605469 146.210938 158.582031 C 145.546875 158.453125 144.886719 158.320312 144.238281 158.179688 C 144.15625 158.164062 144.078125 158.148438 144 158.128906 C 143.960938 158.121094 143.921875 158.113281 143.878906 158.101562 C 143.191406 157.949219 142.503906 157.792969 141.828125 157.625 C 141.75 157.605469 141.667969 157.585938 141.589844 157.566406 C 134.679688 155.847656 128.527344 153.402344 123.113281 150.601562 C 123.113281 150.601562 123.097656 150.597656 123.074219 150.589844 C 116.800781 147.34375 111.515625 143.628906 107.195312 140.011719 C 107.191406 140.007812 107.1875 140.003906 107.183594 140.003906 C 97.164062 131.613281 92.332031 123.789062 92.332031 123.789062 C 102.804688 114.273438 94.984375 109.097656 94.984375 109.097656 C 94.984375 109.097656 97.433594 105.148438 94.121094 101.707031 C 82.402344 89.535156 67.132812 94.878906 60.886719 100.691406 C 55.65625 105.558594 53.660156 112.574219 53.996094 120.6875 C 53.929688 120.789062 53.859375 120.882812 53.796875 120.996094 C 53.691406 121.1875 53.597656 121.40625 53.503906 121.617188 C 53.421875 121.804688 53.335938 121.988281 53.265625 122.191406 C 53.183594 122.425781 53.117188 122.683594 53.050781 122.9375 C 52.992188 123.160156 52.925781 123.378906 52.882812 123.617188 C 52.824219 123.890625 52.792969 124.191406 52.757812 124.484375 C 52.726562 124.742188 52.6875 124.992188 52.671875 125.261719 C 52.652344 125.574219 52.65625 125.914062 52.65625 126.246094 C 52.65625 126.53125 52.648438 126.8125 52.664062 127.109375 C 52.683594 127.460938 52.730469 127.839844 52.773438 128.210938 C 52.808594 128.523438 52.835938 128.828125 52.886719 129.152344 C 52.949219 129.542969 53.050781 129.960938 53.140625 130.367188 C 53.214844 130.703125 53.273438 131.027344 53.363281 131.371094 C 53.480469 131.808594 53.636719 132.261719 53.785156 132.714844 C 53.898438 133.0625 53.992188 133.402344 54.125 133.757812 C 54.300781 134.242188 54.53125 134.753906 54.746094 135.257812 C 54.894531 135.605469 55.019531 135.941406 55.1875 136.296875 C 55.460938 136.871094 55.789062 137.46875 56.109375 138.0625 C 56.15625 138.148438 56.199219 138.234375 56.242188 138.316406 C 56.351562 138.535156 56.460938 138.75 56.589844 138.972656 C 56.941406 139.589844 57.335938 140.21875 57.746094 140.855469 C 57.945312 141.164062 58.136719 141.46875 58.351562 141.78125 L 58.394531 142.035156 C 58.039062 141.625 57.675781 141.246094 57.316406 140.894531 L 56.964844 140.570312 C 56.878906 140.488281 56.796875 140.421875 56.710938 140.34375 C 56.550781 140.195312 56.386719 140.046875 56.226562 139.910156 L 55.8125 139.585938 C 55.582031 139.410156 55.355469 139.238281 55.128906 139.082031 L 54.707031 138.804688 C 54.539062 138.695312 54.371094 138.601562 54.203125 138.503906 C 54.132812 138.464844 54.058594 138.417969 53.988281 138.378906 L 53.675781 138.203125 C 53.507812 138.117188 53.339844 138.035156 53.171875 137.960938 C 53.007812 137.882812 52.84375 137.8125 52.679688 137.746094 L 52.675781 137.746094 L 52.660156 137.738281 C 52.578125 137.707031 52.496094 137.679688 52.414062 137.652344 C 52.222656 137.582031 52.03125 137.523438 51.84375 137.46875 C 51.789062 137.453125 51.734375 137.433594 51.679688 137.421875 L 51.390625 137.351562 C 51.234375 137.316406 51.078125 137.289062 50.921875 137.261719 C 50.859375 137.253906 50.792969 137.238281 50.730469 137.226562 L 50.425781 137.191406 C 50.402344 137.1875 50.382812 137.1875 50.359375 137.1875 C 50.164062 137.171875 49.96875 137.160156 49.785156 137.164062 L 49.554688 137.160156 C 49.277344 137.171875 49.011719 137.203125 48.757812 137.253906 L 48.625 137.289062 L 48.039062 137.46875 L 47.828125 137.566406 L 47.390625 137.800781 L 47.203125 137.929688 L 46.789062 138.300781 L 46.691406 138.390625 C 46.542969 138.5625 46.414062 138.753906 46.300781 138.957031 L 46.222656 139.128906 L 46.027344 139.628906 L 45.960938 139.875 L 45.917969 140.148438 L 45.878906 140.421875 L 45.855469 140.671875 C 45.851562 140.769531 45.851562 140.867188 45.851562 140.964844 C 45.851562 141.011719 45.851562 141.054688 45.851562 141.097656 C 45.851562 141.171875 45.863281 141.246094 45.867188 141.320312 C 45.875 141.394531 45.875 141.46875 45.886719 141.542969 C 45.933594 141.929688 46.027344 142.316406 46.152344 142.707031 L 46.191406 142.808594 L 46.308594 143.101562 C 46.339844 143.1875 46.375 143.273438 46.410156 143.359375 C 46.441406 143.441406 46.476562 143.523438 46.511719 143.605469 C 46.550781 143.695312 46.589844 143.785156 46.636719 143.878906 L 46.890625 144.347656 C 47.023438 144.582031 47.15625 144.816406 47.308594 145.054688 L 47.640625 145.542969 C 47.800781 145.773438 47.96875 146 48.144531 146.226562 C 48.273438 146.390625 48.40625 146.554688 48.542969 146.71875 C 48.730469 146.941406 48.921875 147.164062 49.125 147.386719 C 49.269531 147.546875 49.414062 147.707031 49.566406 147.867188 C 49.777344 148.089844 50 148.3125 50.222656 148.53125 C 50.375 148.683594 50.527344 148.835938 50.683594 148.984375 C 50.929688 149.21875 51.183594 149.445312 51.441406 149.675781 C 51.574219 149.792969 51.703125 149.917969 51.839844 150.035156 C 51.847656 150.042969 51.859375 150.054688 51.871094 150.0625 C 51.871094 150.0625 51.875 150.066406 51.875 150.066406 C 52.199219 150.347656 52.527344 150.621094 52.859375 150.894531 L 53.019531 151.027344 L 53.101562 151.097656 C 53.308594 151.265625 53.519531 151.421875 53.726562 151.585938 C 53.933594 151.75 54.144531 151.917969 54.351562 152.074219 L 54.78125 152.390625 C 55.054688 152.597656 55.328125 152.800781 55.601562 152.996094 C 55.773438 153.121094 55.941406 153.238281 56.113281 153.359375 C 56.351562 153.527344 56.585938 153.695312 56.816406 153.851562 C 56.992188 153.972656 57.164062 154.089844 57.335938 154.203125 C 57.550781 154.347656 57.765625 154.492188 57.976562 154.628906 C 58.035156 154.667969 58.09375 154.707031 58.152344 154.746094 C 58.253906 154.8125 58.355469 154.878906 58.453125 154.941406 C 58.660156 155.074219 58.855469 155.203125 59.050781 155.324219 L 59.480469 155.597656 C 59.664062 155.710938 59.832031 155.816406 60 155.917969 L 60.375 156.144531 C 60.550781 156.253906 60.710938 156.347656 60.863281 156.4375 L 61.089844 156.574219 C 61.304688 156.699219 61.492188 156.808594 61.644531 156.894531 C 61.503906 156.816406 61.335938 156.726562 61.144531 156.621094 C 61.046875 156.570312 60.945312 156.515625 60.835938 156.457031 C 57.929688 154.925781 51.042969 151.644531 49.328125 154.0625 C 49.203125 154.242188 49.101562 154.453125 49.035156 154.695312 L 49.023438 154.714844 L 48.835938 154.960938 L 48.816406 155.019531 L 48.804688 155.050781 L 48.792969 155.230469 L 48.773438 155.484375 L 48.773438 155.511719 L 48.902344 156.128906 L 48.957031 156.308594 C 49.03125 156.523438 49.117188 156.753906 49.234375 157 L 49.253906 157.046875 L 49.265625 157.078125 C 49.394531 157.347656 49.550781 157.636719 49.726562 157.933594 L 49.875 158.171875 C 49.988281 158.355469 50.125 158.550781 50.253906 158.738281 C 50.320312 158.835938 50.375 158.925781 50.445312 159.023438 L 50.527344 159.140625 C 50.609375 159.246094 50.695312 159.359375 50.78125 159.46875 C 50.957031 159.6875 51.136719 159.910156 51.332031 160.136719 L 51.441406 160.261719 L 51.554688 160.390625 C 51.824219 160.691406 52.113281 161 52.425781 161.304688 L 52.566406 161.449219 C 52.863281 161.734375 53.183594 162.019531 53.515625 162.304688 C 53.585938 162.363281 53.648438 162.421875 53.71875 162.476562 L 53.867188 162.601562 L 54.015625 162.722656 C 54.390625 163.023438 54.78125 163.320312 55.191406 163.609375 L 55.394531 163.761719 C 55.875 164.089844 56.378906 164.40625 56.90625 164.714844 L 57.257812 164.914062 C 57.503906 165.050781 57.773438 165.179688 58.027344 165.3125 C 58.285156 165.445312 58.53125 165.585938 58.796875 165.710938 L 59.003906 165.8125 C 59.398438 165.996094 59.808594 166.164062 60.230469 166.328125 C 60.4375 166.410156 60.644531 166.496094 60.859375 166.574219 L 61.269531 166.71875 L 61.308594 166.730469 C 61.933594 166.949219 62.578125 167.152344 63.253906 167.328125 L 63.398438 167.371094 C 63.574219 167.417969 63.761719 167.453125 63.941406 167.496094 C 64.488281 167.621094 65.046875 167.734375 65.617188 167.832031 L 66.167969 167.921875 C 66.558594 167.980469 66.957031 168.035156 67.363281 168.082031 C 67.769531 168.128906 68.179688 168.171875 68.601562 168.199219 L 68.578125 168.203125 L 68.550781 168.207031 C 68.21875 168.246094 67.890625 168.304688 67.566406 168.371094 L 67.214844 168.457031 L 66.5625 168.628906 L 66.183594 168.75 L 65.894531 168.855469 L 65.605469 168.957031 L 65.492188 169.003906 L 65.238281 169.109375 L 64.890625 169.265625 L 64.703125 169.351562 L 64.367188 169.519531 L 63.851562 169.808594 L 63.574219 169.96875 C 63.472656 170.035156 63.382812 170.101562 63.289062 170.167969 C 63.191406 170.230469 63.089844 170.296875 63 170.363281 L 62.863281 170.453125 C 62.644531 170.621094 62.4375 170.789062 62.25 170.960938 L 62.09375 171.113281 L 61.734375 171.476562 L 61.65625 171.574219 L 61.574219 171.671875 L 61.332031 171.988281 L 61.207031 172.191406 L 61.046875 172.492188 L 61.035156 172.527344 L 60.96875 172.683594 L 60.898438 172.972656 L 60.867188 173.140625 L 60.878906 173.242188 L 60.894531 173.441406 L 60.910156 173.554688 L 61.109375 173.910156 L 61.195312 173.976562 L 61.476562 174.191406 L 61.882812 174.351562 L 61.992188 174.390625 L 62.082031 174.421875 C 62.324219 174.480469 62.601562 174.523438 62.925781 174.542969 C 63.136719 174.550781 63.34375 174.574219 63.554688 174.585938 C 65.90625 174.730469 68.25 174.980469 70.582031 175.324219 C 71.429688 175.445312 72.277344 175.582031 73.117188 175.726562 C 72.902344 175.757812 72.691406 175.796875 72.488281 175.84375 L 72.292969 175.894531 L 72.195312 175.917969 C 71.980469 175.976562 71.777344 176.046875 71.585938 176.125 L 71.371094 176.207031 C 71.117188 176.316406 70.878906 176.441406 70.660156 176.578125 L 70.550781 176.664062 L 70.308594 176.851562 L 70.066406 177.042969 L 69.90625 177.210938 L 69.691406 177.460938 L 69.585938 177.589844 L 69.457031 177.777344 L 69.203125 178.269531 L 69.148438 178.390625 C 69.082031 178.574219 69.042969 178.765625 69.011719 178.960938 C 69.003906 178.996094 68.992188 179.027344 68.988281 179.058594 L 68.976562 179.25 L 68.976562 179.785156 L 69.003906 180.035156 L 69.125 180.578125 L 69.136719 180.617188 L 69.191406 180.816406 C 69.238281 180.949219 69.289062 181.082031 69.34375 181.214844 C 69.382812 181.304688 69.429688 181.394531 69.472656 181.484375 C 69.496094 181.53125 69.515625 181.574219 69.539062 181.617188 C 69.722656 181.960938 69.949219 182.285156 70.207031 182.605469 L 70.496094 182.917969 C 70.683594 183.121094 70.871094 183.328125 71.082031 183.519531 L 71.488281 183.867188 C 71.699219 184.039062 71.910156 184.210938 72.136719 184.375 L 72.625 184.710938 C 72.859375 184.863281 73.09375 185.015625 73.339844 185.164062 C 73.519531 185.269531 73.707031 185.375 73.890625 185.476562 C 74.144531 185.621094 74.40625 185.757812 74.675781 185.890625 C 74.867188 185.988281 75.0625 186.085938 75.261719 186.179688 C 75.539062 186.308594 75.824219 186.4375 76.113281 186.558594 C 76.3125 186.644531 76.507812 186.730469 76.707031 186.816406 C 76.917969 186.898438 77.132812 186.980469 77.34375 187.0625 C 77.453125 187.101562 77.554688 187.144531 77.664062 187.183594 C 77.84375 187.253906 78.023438 187.324219 78.203125 187.390625 C 78.609375 187.535156 79.019531 187.671875 79.425781 187.804688 L 79.527344 187.839844 L 79.726562 187.90625 C 80.234375 188.070312 80.742188 188.222656 81.246094 188.367188 L 81.757812 188.507812 C 82.089844 188.597656 82.417969 188.6875 82.742188 188.769531 C 82.949219 188.828125 83.148438 188.875 83.351562 188.925781 C 83.632812 188.992188 83.914062 189.0625 84.1875 189.128906 C 84.394531 189.175781 84.59375 189.222656 84.796875 189.265625 C 84.988281 189.308594 85.179688 189.351562 85.367188 189.390625 C 85.425781 189.40625 85.488281 189.421875 85.546875 189.433594 C 85.738281 189.472656 85.925781 189.511719 86.105469 189.550781 C 86.347656 189.597656 86.578125 189.644531 86.800781 189.691406 L 87.300781 189.785156 C 87.511719 189.828125 87.710938 189.863281 87.898438 189.898438 L 88.332031 189.976562 C 88.402344 189.988281 88.457031 189.996094 88.519531 190.007812 C 88.648438 190.03125 88.777344 190.050781 88.894531 190.070312 L 89.023438 190.09375 L 89.15625 190.117188 C 89.398438 190.15625 89.613281 190.1875 89.789062 190.214844 C 89.390625 190.160156 88.796875 190.085938 88.085938 190.015625 C 87.800781 189.988281 87.496094 189.957031 87.179688 189.933594 C 86.0625 189.839844 84.765625 189.773438 83.484375 189.792969 C 83.117188 189.800781 82.753906 189.8125 82.394531 189.832031 C 82.214844 189.84375 82.039062 189.855469 81.863281 189.871094 C 81.6875 189.886719 81.511719 189.902344 81.339844 189.921875 C 79.800781 190.101562 78.46875 190.484375 77.765625 191.203125 C 77.371094 191.601562 77.175781 192.101562 77.242188 192.734375 L 77.148438 193.050781 L 77.15625 193.148438 L 77.28125 193.566406 L 77.289062 193.589844 L 77.632812 194.117188 L 77.75 194.265625 C 77.898438 194.441406 78.0625 194.621094 78.261719 194.8125 L 78.316406 194.871094 C 78.460938 195.007812 78.625 195.148438 78.796875 195.289062 C 78.882812 195.359375 78.96875 195.429688 79.058594 195.5 L 79.28125 195.667969 C 79.351562 195.722656 79.425781 195.773438 79.496094 195.824219 C 79.695312 195.96875 79.898438 196.113281 80.121094 196.257812 L 80.242188 196.332031 C 80.582031 196.550781 80.957031 196.761719 81.351562 196.972656 L 81.652344 197.128906 C 82.015625 197.3125 82.394531 197.492188 82.796875 197.664062 L 82.980469 197.75 C 83.4375 197.941406 83.925781 198.121094 84.425781 198.289062 L 84.792969 198.410156 C 85.246094 198.554688 85.71875 198.691406 86.207031 198.8125 L 86.453125 198.878906 C 87.015625 199.011719 87.601562 199.125 88.207031 199.21875 L 88.609375 199.277344 C 89.167969 199.355469 89.738281 199.421875 90.328125 199.460938 L 90.558594 199.480469 C 90.847656 199.5 91.140625 199.507812 91.433594 199.515625 C 91.804688 199.523438 92.183594 199.523438 92.566406 199.519531 L 92.589844 199.519531 L 93.039062 199.503906 C 93.703125 199.480469 94.378906 199.433594 95.070312 199.355469 L 95.21875 199.34375 C 95.253906 199.335938 95.285156 199.332031 95.320312 199.328125 C 96.015625 199.238281 96.730469 199.117188 97.457031 198.96875 L 98 198.851562 C 98.375 198.765625 98.753906 198.675781 99.136719 198.578125 C 99.519531 198.476562 99.90625 198.367188 100.296875 198.246094 C 100.304688 198.25 100.308594 198.253906 100.316406 198.257812 C 100.023438 198.414062 99.738281 198.585938 99.464844 198.761719 L 99.171875 198.96875 L 98.625 199.363281 L 98.46875 199.492188 L 98.316406 199.617188 L 98.210938 199.707031 L 97.851562 200.019531 L 97.671875 200.1875 L 97.5625 200.292969 L 97.289062 200.574219 L 97.15625 200.714844 L 96.902344 200.992188 L 96.523438 201.449219 L 96.375 201.636719 L 96.328125 201.699219 C 96.253906 201.796875 96.195312 201.890625 96.128906 201.988281 C 96.0625 202.082031 95.992188 202.179688 95.933594 202.273438 L 95.898438 202.320312 L 95.839844 202.410156 C 95.742188 202.566406 95.660156 202.71875 95.578125 202.871094 C 95.539062 202.949219 95.488281 203.027344 95.449219 203.101562 L 95.359375 203.300781 L 95.15625 203.769531 L 95.078125 204.011719 L 94.96875 204.394531 L 94.9375 204.542969 L 94.921875 204.628906 L 94.886719 204.964844 L 94.878906 205.171875 L 94.917969 205.46875 L 94.9375 205.550781 L 94.953125 205.636719 L 95.019531 205.769531 L 95.085938 205.90625 L 95.140625 206.007812 L 95.300781 206.136719 L 95.457031 206.265625 L 95.558594 206.296875 L 95.898438 206.394531 L 96.339844 206.398438 L 96.550781 206.390625 C 96.652344 206.375 96.984375 206.285156 96.875 206.328125 C 93.175781 207.84375 98.789062 211.222656 116.40625 207.402344 C 113.144531 221.289062 113.144531 235.882812 116.410156 249.394531 C 115.769531 249.257812 115.171875 249.195312 114.632812 249.234375 C 108.773438 249.675781 108.605469 256.625 108.605469 256.625 C 108.605469 256.625 103.28125 252.429688 98.214844 256.203125 C 93.84375 259.457031 97.933594 265.582031 97.933594 265.582031 C 97.933594 265.582031 85.453125 265.683594 86.527344 274.386719 C 88.402344 289.542969 127.933594 287.078125 127.933594 287.078125 C 131.65625 286.960938 134.625 286.5 136.984375 285.800781 C 138.0625 286.808594 139.175781 287.785156 140.332031 288.722656 C 138.800781 290.117188 137.335938 291.589844 136.148438 293.039062 C 132.886719 297.03125 135.394531 301.105469 139.042969 301.761719 C 139.023438 309.78125 155.359375 318.085938 163.570312 314.617188 C 166.355469 317.402344 172.054688 316.039062 172.945312 310.566406 C 173.328125 308.203125 173.304688 305.507812 173.070312 302.832031 C 179.878906 303.863281 187.269531 304.082031 195.257812 303.335938 C 211.824219 301.785156 225.882812 295.167969 237.113281 285.457031 C 238.429688 289.246094 240.226562 293.386719 242.503906 296.34375 C 245.886719 300.738281 251.550781 299.222656 252.675781 295.453125 C 261.546875 294.597656 271.972656 279.523438 268.144531 272.476562 C 271.039062 270.164062 271.308594 265.390625 266.539062 263.429688 C 263.601562 262.226562 259.941406 261.34375 256.664062 260.722656 C 268.304688 238.972656 271.511719 212.550781 264.789062 190.390625 C 264.851562 190.382812 264.914062 190.382812 264.976562 190.375 C 266.179688 190.21875 267.441406 189.859375 268.746094 189.328125 C 269.800781 189.421875 270.851562 189.527344 271.902344 189.648438 C 275.058594 190.015625 278.203125 190.523438 281.292969 191.234375 C 281.347656 191.246094 281.390625 191.253906 281.441406 191.261719 C 281.566406 191.289062 281.691406 191.308594 281.804688 191.324219 C 281.917969 191.335938 282.03125 191.347656 282.136719 191.355469 L 282.347656 191.339844 L 282.785156 191.296875 L 283.113281 191.167969 L 283.210938 191.125 L 283.355469 190.984375 L 283.5 190.839844 L 283.523438 190.789062 L 283.546875 190.734375 L 283.601562 190.59375 L 283.65625 190.457031 L 283.667969 190.371094 L 283.675781 190.285156 L 283.6875 189.988281 L 283.664062 189.78125 L 283.59375 189.449219 L 283.570312 189.363281 L 283.527344 189.21875 L 283.382812 188.847656 L 283.28125 188.617188 L 283.039062 188.167969 L 282.929688 187.980469 C 282.882812 187.90625 282.824219 187.832031 282.777344 187.761719 C 282.683594 187.613281 282.589844 187.46875 282.476562 187.324219 L 282.40625 187.238281 L 282.371094 187.199219 C 282.304688 187.109375 282.222656 187.019531 282.148438 186.929688 C 282.074219 186.839844 282.007812 186.75 281.925781 186.664062 L 281.871094 186.601562 L 281.707031 186.429688 L 281.289062 186.007812 L 281.011719 185.757812 L 280.863281 185.628906 L 280.5625 185.375 L 280.445312 185.28125 L 280.25 185.128906 L 279.867188 184.851562 L 279.753906 184.769531 L 279.589844 184.660156 L 279.421875 184.546875 L 278.84375 184.203125 L 278.527344 184.023438 C 278.242188 183.871094 277.945312 183.730469 277.636719 183.601562 C 277.640625 183.597656 277.648438 183.59375 277.652344 183.589844 C 278.054688 183.671875 278.449219 183.746094 278.839844 183.808594 C 279.230469 183.875 279.613281 183.929688 280 183.976562 L 280.550781 184.042969 C 281.285156 184.125 282.007812 184.183594 282.710938 184.203125 C 282.742188 184.207031 282.777344 184.210938 282.8125 184.210938 L 282.960938 184.210938 C 283.65625 184.222656 284.335938 184.207031 284.996094 184.167969 L 285.445312 184.140625 L 285.46875 184.140625 C 285.851562 184.113281 286.226562 184.074219 286.597656 184.03125 C 286.890625 184 287.179688 183.964844 287.464844 183.917969 L 287.691406 183.878906 C 288.277344 183.78125 288.839844 183.664062 289.386719 183.535156 L 289.785156 183.441406 C 290.375 183.289062 290.945312 183.121094 291.496094 182.9375 L 291.734375 182.851562 C 292.210938 182.683594 292.667969 182.507812 293.105469 182.320312 L 293.460938 182.167969 C 293.945312 181.953125 294.414062 181.726562 294.847656 181.496094 L 295.027344 181.394531 C 295.410156 181.183594 295.769531 180.972656 296.113281 180.753906 L 296.398438 180.570312 C 296.773438 180.328125 297.125 180.078125 297.445312 179.832031 L 297.558594 179.746094 C 297.765625 179.582031 297.957031 179.417969 298.140625 179.257812 C 298.207031 179.199219 298.277344 179.140625 298.339844 179.082031 L 298.546875 178.894531 C 298.628906 178.816406 298.707031 178.738281 298.785156 178.660156 C 298.945312 178.5 299.09375 178.347656 299.226562 178.199219 L 299.277344 178.132812 C 299.457031 177.925781 299.605469 177.730469 299.734375 177.539062 L 299.835938 177.382812 L 300.132812 176.828125 L 300.140625 176.800781 L 300.226562 176.375 L 300.222656 176.277344 L 300.101562 175.96875 C 300.109375 175.335938 299.867188 174.851562 299.441406 174.492188 C 298.671875 173.839844 297.3125 173.582031 295.757812 173.546875 C 295.585938 173.542969 295.414062 173.542969 295.234375 173.542969 C 295.058594 173.546875 294.878906 173.546875 294.703125 173.554688 C 294.34375 173.566406 293.976562 173.585938 293.613281 173.617188 C 292.335938 173.714844 291.050781 173.902344 289.949219 174.09375 C 289.632812 174.152344 289.332031 174.207031 289.050781 174.261719 C 288.351562 174.398438 287.765625 174.527344 287.375 174.617188 C 287.546875 174.574219 287.757812 174.519531 287.996094 174.460938 L 288.253906 174.390625 C 288.367188 174.363281 288.492188 174.328125 288.617188 174.292969 C 288.679688 174.277344 288.734375 174.265625 288.800781 174.246094 L 289.226562 174.128906 C 289.414062 174.078125 289.605469 174.023438 289.8125 173.960938 L 290.054688 173.890625 L 290.300781 173.820312 C 290.519531 173.753906 290.746094 173.6875 290.980469 173.617188 C 291.15625 173.5625 291.339844 173.507812 291.523438 173.449219 C 291.582031 173.429688 291.644531 173.410156 291.703125 173.390625 C 291.886719 173.332031 292.070312 173.273438 292.257812 173.214844 C 292.453125 173.152344 292.648438 173.085938 292.851562 173.019531 C 293.117188 172.929688 293.390625 172.835938 293.664062 172.738281 C 293.863281 172.667969 294.054688 172.605469 294.257812 172.53125 C 294.574219 172.417969 294.890625 172.296875 295.210938 172.175781 L 295.710938 171.988281 C 296.199219 171.796875 296.691406 171.597656 297.179688 171.390625 L 297.375 171.304688 L 297.46875 171.261719 C 297.863281 171.09375 298.257812 170.917969 298.652344 170.738281 C 298.824219 170.65625 298.996094 170.566406 299.171875 170.484375 C 299.273438 170.433594 299.375 170.378906 299.476562 170.332031 C 299.679688 170.230469 299.886719 170.128906 300.085938 170.027344 C 300.277344 169.925781 300.464844 169.820312 300.652344 169.71875 C 300.929688 169.570312 301.203125 169.417969 301.46875 169.257812 C 301.660156 169.148438 301.84375 169.03125 302.027344 168.917969 C 302.28125 168.761719 302.527344 168.601562 302.769531 168.4375 C 302.945312 168.316406 303.117188 168.195312 303.285156 168.070312 C 303.519531 167.902344 303.738281 167.730469 303.957031 167.554688 L 304.414062 167.175781 C 304.625 166.992188 304.816406 166.800781 305.011719 166.609375 L 305.382812 166.230469 C 305.578125 166.015625 305.746094 165.792969 305.914062 165.574219 L 306.171875 165.234375 C 306.398438 164.894531 306.59375 164.546875 306.746094 164.191406 C 306.765625 164.144531 306.78125 164.097656 306.796875 164.050781 C 306.835938 163.957031 306.871094 163.863281 306.902344 163.773438 C 306.945312 163.632812 306.984375 163.496094 307.015625 163.363281 L 307.054688 163.15625 L 307.0625 163.117188 L 307.132812 162.566406 L 307.136719 162.3125 L 307.105469 161.957031 L 307.089844 161.78125 L 307.0625 161.59375 C 307.054688 161.558594 307.035156 161.53125 307.027344 161.496094 C 306.980469 161.304688 306.921875 161.117188 306.839844 160.941406 L 306.773438 160.824219 L 306.476562 160.355469 L 306.328125 160.179688 L 306.210938 160.066406 L 305.976562 159.832031 L 305.796875 159.683594 L 305.28125 159.347656 L 305.164062 159.277344 C 304.933594 159.160156 304.6875 159.054688 304.421875 158.96875 L 304.203125 158.90625 C 304.003906 158.851562 303.792969 158.796875 303.578125 158.757812 L 303.476562 158.742188 L 303.277344 158.710938 C 303.070312 158.683594 302.855469 158.664062 302.636719 158.652344 C 303.464844 158.433594 304.292969 158.21875 305.125 158.019531 C 307.414062 157.460938 309.726562 156.996094 312.054688 156.636719 C 312.261719 156.605469 312.46875 156.566406 312.679688 156.535156 C 313 156.488281 313.269531 156.417969 313.507812 156.339844 L 313.59375 156.296875 L 313.699219 156.25 L 314.089844 156.050781 L 314.351562 155.8125 L 314.425781 155.738281 L 314.59375 155.367188 L 314.597656 155.25 L 314.597656 154.949219 L 314.554688 154.785156 L 314.453125 154.503906 L 314.375 154.355469 L 314.359375 154.320312 L 314.171875 154.035156 L 314.027344 153.847656 L 313.757812 153.550781 L 313.667969 153.464844 L 313.582031 153.375 L 313.191406 153.042969 L 313.019531 152.90625 C 312.816406 152.753906 312.597656 152.605469 312.363281 152.460938 L 312.21875 152.378906 C 312.121094 152.324219 312.015625 152.269531 311.914062 152.210938 C 311.8125 152.15625 311.714844 152.097656 311.609375 152.042969 L 311.320312 151.90625 L 310.777344 151.664062 L 310.425781 151.53125 L 310.234375 151.464844 L 309.875 151.339844 L 309.609375 151.257812 L 309.492188 151.222656 L 309.195312 151.144531 L 308.898438 151.070312 L 308.511719 150.980469 L 307.84375 150.871094 L 307.488281 150.820312 C 307.160156 150.78125 306.828125 150.753906 306.488281 150.746094 L 306.464844 150.746094 L 306.4375 150.742188 C 306.855469 150.675781 307.261719 150.597656 307.660156 150.515625 C 308.0625 150.429688 308.453125 150.335938 308.839844 150.242188 L 309.375 150.105469 C 309.9375 149.953125 310.484375 149.789062 311.011719 149.613281 C 311.191406 149.554688 311.371094 149.5 311.546875 149.441406 L 311.683594 149.386719 C 312.339844 149.144531 312.964844 148.882812 313.566406 148.609375 L 313.601562 148.59375 L 314 148.410156 C 314.203125 148.3125 314.402344 148.210938 314.605469 148.109375 C 315.003906 147.90625 315.402344 147.699219 315.777344 147.480469 L 315.972656 147.363281 C 316.226562 147.210938 316.460938 147.050781 316.703125 146.894531 C 316.945312 146.738281 317.199219 146.585938 317.429688 146.429688 L 317.765625 146.195312 C 318.261719 145.839844 318.734375 145.480469 319.179688 145.109375 L 319.371094 144.941406 C 319.753906 144.613281 320.113281 144.28125 320.457031 143.945312 L 320.59375 143.8125 L 320.730469 143.675781 C 320.792969 143.613281 320.855469 143.550781 320.914062 143.484375 C 321.21875 143.171875 321.511719 142.859375 321.78125 142.546875 L 321.910156 142.390625 C 322.191406 142.054688 322.449219 141.726562 322.691406 141.398438 L 322.894531 141.125 C 323.066406 140.882812 323.222656 140.644531 323.375 140.410156 C 323.453125 140.292969 323.53125 140.175781 323.601562 140.058594 L 323.671875 139.9375 C 323.734375 139.832031 323.777344 139.738281 323.835938 139.636719 C 323.949219 139.433594 324.066406 139.230469 324.160156 139.035156 L 324.285156 138.785156 C 324.433594 138.472656 324.566406 138.167969 324.667969 137.890625 L 324.675781 137.859375 L 324.691406 137.8125 C 324.785156 137.554688 324.851562 137.316406 324.902344 137.09375 L 324.921875 137.003906 L 324.941406 136.910156 L 325.015625 136.285156 L 325.011719 136.257812 L 324.96875 136.007812 L 324.9375 135.832031 L 324.925781 135.796875 L 324.898438 135.738281 L 324.691406 135.511719 L 324.675781 135.496094 C 324.585938 135.257812 324.46875 135.058594 324.324219 134.890625 C 322.394531 132.644531 315.839844 136.542969 313.085938 138.339844 C 312.984375 138.40625 312.890625 138.46875 312.796875 138.527344 C 312.617188 138.648438 312.457031 138.757812 312.324219 138.847656 C 312.464844 138.746094 312.644531 138.621094 312.84375 138.476562 L 313.058594 138.320312 C 313.203125 138.214844 313.355469 138.105469 313.519531 137.984375 L 313.871094 137.71875 C 314.027344 137.605469 314.1875 137.484375 314.355469 137.355469 L 314.761719 137.042969 C 314.941406 136.90625 315.128906 136.757812 315.320312 136.609375 C 315.410156 136.539062 315.507812 136.460938 315.601562 136.386719 C 315.65625 136.339844 315.710938 136.300781 315.769531 136.253906 C 315.964844 136.097656 316.164062 135.933594 316.367188 135.769531 C 316.523438 135.640625 316.683594 135.511719 316.847656 135.371094 C 317.0625 135.195312 317.285156 135.003906 317.503906 134.816406 C 317.664062 134.679688 317.820312 134.550781 317.980469 134.40625 C 318.234375 134.191406 318.488281 133.960938 318.742188 133.730469 L 319.140625 133.375 C 319.332031 133.199219 319.523438 133.011719 319.71875 132.832031 C 319.910156 132.652344 320.101562 132.472656 320.292969 132.289062 L 320.367188 132.214844 L 320.515625 132.0625 C 320.820312 131.761719 321.125 131.460938 321.421875 131.148438 C 321.421875 131.148438 321.425781 131.148438 321.425781 131.144531 C 321.433594 131.132812 321.445312 131.125 321.453125 131.113281 C 321.578125 130.984375 321.695312 130.851562 321.820312 130.71875 C 322.050781 130.46875 322.285156 130.21875 322.507812 129.960938 C 322.652344 129.800781 322.785156 129.632812 322.925781 129.46875 C 323.128906 129.230469 323.328125 128.988281 323.519531 128.746094 C 323.65625 128.574219 323.785156 128.402344 323.914062 128.226562 C 324.09375 127.988281 324.265625 127.75 324.429688 127.507812 C 324.550781 127.332031 324.667969 127.15625 324.78125 126.980469 C 324.9375 126.738281 325.078125 126.5 325.21875 126.253906 L 325.507812 125.738281 C 325.636719 125.488281 325.746094 125.242188 325.859375 124.992188 L 326.066406 124.503906 C 326.105469 124.410156 326.132812 124.316406 326.164062 124.21875 C 326.191406 124.136719 326.222656 124.050781 326.246094 123.964844 C 326.273438 123.878906 326.296875 123.789062 326.324219 123.699219 L 326.441406 123.289062 C 326.527344 122.890625 326.585938 122.496094 326.597656 122.109375 C 326.59375 122.035156 326.589844 121.960938 326.589844 121.886719 Z M 326.589844 121.886719 " fill-opacity="1" fill-rule="nonzero"/></g><path fill="#ffffff" d="M 302.542969 94.058594 C 302.542969 94.058594 305.71875 99.804688 302.9375 101.957031 C 301.160156 103.609375 298.609375 103.390625 297.003906 103.019531 C 298.195312 97.058594 294.496094 86.238281 275.390625 94.695312 C 275.390625 94.695312 288.441406 90.949219 291.992188 96.023438 C 297.789062 104.300781 288.988281 107.007812 288.988281 107.007812 C 288.988281 107.007812 293.027344 107.570312 295.382812 105.785156 C 303.800781 109.527344 308.722656 101.578125 306.34375 97.296875 C 306.34375 97.296875 309.335938 97.59375 310.132812 93.917969 C 305.644531 97.542969 302.542969 94.058594 302.542969 94.058594 Z M 302.542969 94.058594 " fill-opacity="1" fill-rule="nonzero"/><path fill="#ffffff" d="M 67.246094 111.390625 C 67.246094 111.390625 64.613281 117.40625 67.582031 119.292969 C 69.503906 120.773438 72.019531 120.324219 73.585938 119.808594 C 71.851562 113.980469 74.535156 102.867188 94.34375 109.523438 C 94.34375 109.523438 81.003906 107 77.933594 112.375 C 72.925781 121.152344 81.9375 123.039062 81.9375 123.039062 C 81.9375 123.039062 77.96875 123.96875 75.457031 122.410156 C 67.421875 126.914062 61.785156 119.449219 63.757812 114.964844 C 63.757812 114.964844 60.808594 115.539062 59.675781 111.953125 C 64.480469 115.148438 67.246094 111.390625 67.246094 111.390625 Z M 67.246094 111.390625 " fill-opacity="1" fill-rule="nonzero"/><path fill="#d33a22" d="M 185.097656 187.460938 C 185.097656 187.460938 185.101562 187.46875 185.414062 187.996094 L 185.183594 187.933594 C 185.128906 187.628906 185.097656 187.460938 185.097656 187.460938 Z M 185.097656 187.460938 " fill-opacity="1" fill-rule="nonzero"/><path fill="#ffffff" d="M 246.023438 139.28125 C 247.347656 139.28125 248.417969 138.980469 248.898438 138.164062 C 251.582031 133.582031 230.585938 120.359375 230.585938 120.359375 L 220.378906 49.746094 C 204.84375 37.5625 188.410156 33.40625 173.347656 33.40625 C 167.328125 33.40625 161.527344 34.066406 156.089844 35.148438 C 134.191406 39.5 115.796875 59.554688 117.503906 60.246094 C 117.957031 60.433594 118.488281 60.511719 119.074219 60.511719 C 122.941406 60.511719 129.066406 57.019531 129.066406 57.019531 C 129.066406 57.019531 113.976562 73.804688 113.464844 80.25 C 113.316406 82.152344 114.253906 82.824219 115.652344 82.824219 C 118.984375 82.824219 124.925781 79.011719 124.925781 79.011719 L 125.207031 108.945312 C 125.207031 108.945312 113.976562 139.757812 113.976562 143.320312 C 113.976562 144.25 114.378906 144.632812 115.039062 144.632812 C 118.097656 144.632812 126.691406 136.453125 126.691406 136.453125 C 126.691406 136.453125 116.855469 152.304688 119.570312 158.070312 C 119.972656 158.929688 120.871094 159.296875 122.097656 159.296875 C 129.113281 159.296875 147.035156 147.390625 147.035156 147.390625 C 147.035156 147.390625 134.910156 175.554688 145 176.890625 C 145.441406 176.949219 145.898438 176.976562 146.359375 176.976562 C 158.019531 176.976562 176.367188 159.257812 176.367188 159.257812 C 176.367188 159.257812 191.117188 187.570312 206.886719 187.910156 C 206.964844 187.914062 207.046875 187.914062 207.128906 187.914062 C 222.648438 187.914062 222.144531 155.527344 222.144531 155.527344 C 222.144531 155.527344 236.253906 166.535156 245.296875 166.535156 C 246.164062 166.535156 246.988281 166.433594 247.746094 166.207031 C 256.394531 163.664062 236.554688 136.878906 236.554688 136.878906 C 236.554688 136.878906 242.289062 139.28125 246.023438 139.28125 Z M 246.023438 139.28125 " fill-opacity="1" fill-rule="nonzero"/><path fill="#9d9d9c" d="M 247.65625 145.929688 C 247.179688 145.121094 246.699219 144.328125 246.222656 143.5625 C 249.949219 143.5 251.742188 141.777344 252.59375 140.328125 C 255.730469 134.972656 249.707031 129.160156 243.402344 124.183594 C 240.027344 121.519531 236.542969 119.144531 234.546875 117.828125 L 224.617188 49.132812 C 224.457031 48.042969 223.886719 47.054688 223.019531 46.375 C 208.421875 34.929688 191.707031 29.125 173.347656 29.125 C 167.441406 29.125 161.351562 29.738281 155.253906 30.949219 C 143.289062 33.328125 132.96875 39.8125 126.417969 44.832031 C 123.101562 47.375 119.9375 50.183594 117.503906 52.746094 C 113.6875 56.765625 113.246094 58.394531 113.132812 59.601562 C 112.941406 61.613281 114.050781 63.464844 115.890625 64.214844 C 116.332031 64.394531 116.796875 64.53125 117.289062 64.625 C 110.414062 73.769531 109.371094 77.71875 109.199219 79.910156 C 108.988281 82.558594 109.960938 84.210938 110.8125 85.132812 C 111.644531 86.03125 113.160156 87.105469 115.65625 87.105469 C 117.234375 87.105469 119.015625 86.628906 120.710938 85.980469 L 120.921875 108.210938 C 120.152344 110.335938 117.835938 116.753906 115.542969 123.402344 C 109.695312 140.378906 109.695312 142.21875 109.695312 143.320312 C 109.695312 146.5625 111.941406 148.914062 115.039062 148.914062 C 115.351562 148.914062 115.683594 148.898438 116.050781 148.839844 C 114.519531 153.597656 114.417969 157.179688 115.695312 159.894531 C 116.21875 161 117.886719 163.578125 122.097656 163.578125 C 126.410156 163.578125 133.1875 160.453125 138.980469 157.273438 L 138.945312 157.394531 C 136.210938 166.796875 135.980469 173.015625 138.222656 176.960938 C 139.546875 179.296875 141.757812 180.78125 144.441406 181.136719 C 145.058594 181.21875 145.707031 181.257812 146.363281 181.257812 C 156.191406 181.257812 168.839844 171.570312 175.308594 165.992188 C 177.007812 168.761719 179.425781 172.425781 182.363281 176.121094 C 190.699219 186.613281 198.921875 192.023438 206.792969 192.191406 C 206.90625 192.195312 207.019531 192.195312 207.128906 192.195312 C 211.054688 192.195312 214.644531 190.660156 217.503906 187.753906 C 223.347656 181.816406 225.378906 170.988281 226.078125 163.46875 C 231.441406 166.847656 239.070312 170.816406 245.296875 170.816406 C 246.597656 170.816406 247.828125 170.648438 248.957031 170.316406 C 251.292969 169.628906 253 167.996094 253.765625 165.714844 C 254.707031 162.90625 254.863281 158.117188 247.65625 145.929688 Z M 247.746094 166.210938 C 246.988281 166.433594 246.164062 166.535156 245.296875 166.535156 C 236.253906 166.535156 222.144531 155.527344 222.144531 155.527344 C 222.144531 155.527344 222.648438 187.914062 207.128906 187.914062 C 207.046875 187.914062 206.964844 187.914062 206.886719 187.910156 C 191.117188 187.570312 176.367188 159.257812 176.367188 159.257812 C 176.367188 159.257812 158.019531 176.976562 146.359375 176.976562 C 145.898438 176.976562 145.441406 176.949219 145 176.890625 C 134.910156 175.554688 147.035156 147.390625 147.035156 147.390625 C 147.035156 147.390625 129.113281 159.296875 122.097656 159.296875 C 120.871094 159.296875 119.972656 158.929688 119.570312 158.070312 C 116.855469 152.304688 126.691406 136.453125 126.691406 136.453125 C 126.691406 136.453125 118.097656 144.632812 115.039062 144.632812 C 114.378906 144.632812 113.976562 144.25 113.976562 143.320312 C 113.976562 139.757812 125.207031 108.945312 125.207031 108.945312 L 124.925781 79.011719 C 124.925781 79.011719 118.984375 82.824219 115.652344 82.824219 C 114.257812 82.824219 113.316406 82.152344 113.464844 80.25 C 113.976562 73.804688 129.066406 57.019531 129.066406 57.019531 C 129.066406 57.019531 122.941406 60.511719 119.074219 60.511719 C 118.488281 60.511719 117.957031 60.433594 117.503906 60.246094 C 115.796875 59.554688 134.191406 39.5 156.089844 35.148438 C 161.527344 34.066406 167.328125 33.40625 173.347656 33.40625 C 188.410156 33.40625 204.84375 37.5625 220.378906 49.746094 L 230.585938 120.359375 C 230.585938 120.359375 251.582031 133.582031 248.898438 138.164062 C 248.417969 138.980469 247.347656 139.28125 246.023438 139.28125 C 242.289062 139.28125 236.554688 136.878906 236.554688 136.878906 C 236.554688 136.878906 256.394531 163.664062 247.746094 166.210938 Z M 247.746094 166.210938 " fill-opacity="1" fill-rule="nonzero"/><path fill="#d6d6d6" d="M 216.152344 97.851562 C 220.273438 94.671875 223.671875 85.675781 220.957031 72.28125 C 218.246094 58.886719 208.554688 48.316406 197.769531 47.34375 C 186.3125 46.308594 188.535156 72.417969 182.074219 72.417969 C 176.992188 72.417969 172.863281 62.023438 165.457031 56.480469 C 159.65625 52.140625 153.105469 52.421875 144.882812 60.53125 C 132.457031 72.789062 130.929688 82.960938 133.640625 91.101562 C 136.355469 99.238281 148.925781 112.429688 167.492188 108.109375 C 186.058594 103.785156 182.988281 94.644531 191.738281 92.425781 C 200.488281 90.207031 208.011719 104.125 216.152344 97.851562 Z M 216.152344 97.851562 " fill-opacity="1" fill-rule="nonzero"/><path fill="#ffffff" d="M 172.976562 78.441406 C 173.148438 79.035156 173.296875 79.632812 173.425781 80.234375 C 173.550781 80.835938 173.65625 81.441406 173.738281 82.046875 C 173.820312 82.65625 173.875 83.261719 173.910156 83.867188 C 173.945312 84.472656 173.957031 85.074219 173.941406 85.671875 C 173.929688 86.269531 173.890625 86.859375 173.832031 87.445312 C 173.773438 88.027344 173.6875 88.605469 173.582031 89.167969 C 173.472656 89.734375 173.34375 90.289062 173.191406 90.828125 C 173.039062 91.371094 172.863281 91.898438 172.667969 92.410156 C 172.472656 92.921875 172.253906 93.414062 172.015625 93.894531 C 171.777344 94.371094 171.519531 94.828125 171.238281 95.265625 C 170.960938 95.703125 170.664062 96.121094 170.347656 96.515625 C 170.03125 96.910156 169.699219 97.28125 169.347656 97.628906 C 169 97.976562 168.632812 98.300781 168.25 98.597656 C 167.871094 98.894531 167.476562 99.164062 167.066406 99.410156 C 166.660156 99.652344 166.242188 99.867188 165.808594 100.058594 C 165.378906 100.246094 164.9375 100.40625 164.488281 100.535156 C 164.035156 100.667969 163.578125 100.769531 163.113281 100.839844 C 162.648438 100.914062 162.179688 100.953125 161.703125 100.96875 C 161.230469 100.980469 160.75 100.964844 160.269531 100.917969 C 159.789062 100.871094 159.308594 100.792969 158.824219 100.6875 C 158.34375 100.582031 157.863281 100.445312 157.386719 100.28125 C 156.90625 100.117188 156.433594 99.925781 155.960938 99.707031 C 155.492188 99.484375 155.027344 99.238281 154.570312 98.960938 C 154.113281 98.6875 153.664062 98.386719 153.222656 98.058594 C 152.785156 97.734375 152.355469 97.382812 151.9375 97.007812 C 151.515625 96.632812 151.109375 96.234375 150.71875 95.816406 C 150.324219 95.394531 149.945312 94.953125 149.582031 94.492188 C 149.21875 94.03125 148.867188 93.550781 148.539062 93.054688 C 148.207031 92.558594 147.890625 92.042969 147.597656 91.515625 C 147.300781 90.984375 147.023438 90.441406 146.769531 89.886719 C 146.511719 89.332031 146.273438 88.765625 146.058594 88.1875 C 145.84375 87.609375 145.648438 87.027344 145.476562 86.433594 C 145.304688 85.839844 145.15625 85.242188 145.027344 84.640625 C 144.902344 84.035156 144.796875 83.433594 144.714844 82.824219 C 144.636719 82.21875 144.578125 81.613281 144.542969 81.007812 C 144.507812 80.402344 144.5 79.800781 144.511719 79.203125 C 144.523438 78.605469 144.5625 78.015625 144.621094 77.429688 C 144.683594 76.84375 144.765625 76.269531 144.871094 75.703125 C 144.980469 75.136719 145.109375 74.585938 145.261719 74.042969 C 145.414062 73.503906 145.589844 72.976562 145.785156 72.464844 C 145.980469 71.953125 146.199219 71.457031 146.4375 70.980469 C 146.675781 70.503906 146.9375 70.046875 147.214844 69.609375 C 147.492188 69.171875 147.789062 68.753906 148.105469 68.359375 C 148.421875 67.964844 148.753906 67.59375 149.105469 67.246094 C 149.457031 66.898438 149.820312 66.574219 150.203125 66.277344 C 150.582031 65.980469 150.976562 65.710938 151.386719 65.464844 C 151.792969 65.222656 152.214844 65.003906 152.644531 64.816406 C 153.074219 64.628906 153.515625 64.46875 153.964844 64.339844 C 154.417969 64.207031 154.875 64.105469 155.339844 64.035156 C 155.804688 63.960938 156.273438 63.917969 156.75 63.90625 C 157.226562 63.894531 157.703125 63.910156 158.183594 63.957031 C 158.664062 64.003906 159.148438 64.082031 159.628906 64.1875 C 160.109375 64.292969 160.589844 64.425781 161.070312 64.589844 C 161.546875 64.753906 162.019531 64.949219 162.492188 65.167969 C 162.960938 65.386719 163.425781 65.636719 163.882812 65.910156 C 164.339844 66.1875 164.789062 66.488281 165.230469 66.8125 C 165.667969 67.140625 166.097656 67.492188 166.519531 67.867188 C 166.9375 68.242188 167.34375 68.640625 167.734375 69.058594 C 168.128906 69.480469 168.507812 69.917969 168.871094 70.382812 C 169.238281 70.84375 169.585938 71.320312 169.917969 71.820312 C 170.246094 72.316406 170.5625 72.828125 170.855469 73.359375 C 171.152344 73.886719 171.429688 74.429688 171.683594 74.988281 C 171.941406 75.542969 172.179688 76.109375 172.394531 76.6875 C 172.609375 77.261719 172.804688 77.847656 172.976562 78.441406 Z M 172.976562 78.441406 " fill-opacity="1" fill-rule="nonzero"/><path fill="#ffffff" d="M 217.617188 72.160156 C 217.789062 72.753906 217.9375 73.351562 218.066406 73.953125 C 218.191406 74.558594 218.296875 75.160156 218.378906 75.769531 C 218.460938 76.375 218.515625 76.980469 218.550781 77.585938 C 218.585938 78.191406 218.597656 78.792969 218.582031 79.390625 C 218.570312 79.988281 218.53125 80.582031 218.472656 81.164062 C 218.414062 81.75 218.328125 82.324219 218.222656 82.890625 C 218.113281 83.457031 217.984375 84.007812 217.832031 84.550781 C 217.679688 85.089844 217.503906 85.617188 217.308594 86.128906 C 217.113281 86.640625 216.894531 87.136719 216.65625 87.613281 C 216.417969 88.089844 216.160156 88.546875 215.878906 88.984375 C 215.601562 89.425781 215.304688 89.839844 214.988281 90.234375 C 214.671875 90.628906 214.339844 91 213.988281 91.347656 C 213.636719 91.695312 213.273438 92.019531 212.890625 92.316406 C 212.511719 92.613281 212.117188 92.886719 211.707031 93.128906 C 211.300781 93.371094 210.882812 93.589844 210.449219 93.777344 C 210.019531 93.964844 209.578125 94.125 209.128906 94.257812 C 208.675781 94.386719 208.21875 94.488281 207.753906 94.5625 C 207.289062 94.632812 206.820312 94.675781 206.34375 94.6875 C 205.867188 94.699219 205.390625 94.683594 204.910156 94.636719 C 204.429688 94.589844 203.949219 94.511719 203.464844 94.40625 C 202.984375 94.300781 202.503906 94.167969 202.023438 94.003906 C 201.546875 93.839844 201.074219 93.648438 200.601562 93.425781 C 200.132812 93.207031 199.667969 92.957031 199.210938 92.683594 C 198.753906 92.40625 198.304688 92.105469 197.863281 91.78125 C 197.425781 91.453125 196.996094 91.101562 196.578125 90.726562 C 196.15625 90.351562 195.75 89.957031 195.359375 89.535156 C 194.964844 89.113281 194.585938 88.675781 194.222656 88.214844 C 193.859375 87.753906 193.507812 87.273438 193.179688 86.773438 C 192.847656 86.277344 192.53125 85.765625 192.238281 85.234375 C 191.941406 84.707031 191.664062 84.164062 191.410156 83.605469 C 191.152344 83.050781 190.914062 82.484375 190.699219 81.90625 C 190.484375 81.332031 190.289062 80.746094 190.117188 80.152344 C 189.945312 79.558594 189.796875 78.960938 189.667969 78.359375 C 189.542969 77.757812 189.4375 77.152344 189.355469 76.546875 C 189.273438 75.9375 189.21875 75.332031 189.183594 74.726562 C 189.148438 74.121094 189.140625 73.519531 189.152344 72.921875 C 189.164062 72.324219 189.203125 71.734375 189.261719 71.148438 C 189.324219 70.566406 189.40625 69.988281 189.511719 69.425781 C 189.621094 68.859375 189.75 68.304688 189.902344 67.765625 C 190.054688 67.222656 190.230469 66.695312 190.425781 66.183594 C 190.621094 65.671875 190.839844 65.179688 191.078125 64.703125 C 191.316406 64.222656 191.578125 63.765625 191.855469 63.328125 C 192.132812 62.890625 192.429688 62.472656 192.746094 62.078125 C 193.0625 61.683594 193.394531 61.3125 193.746094 60.964844 C 194.097656 60.617188 194.460938 60.292969 194.84375 59.996094 C 195.222656 59.699219 195.617188 59.429688 196.027344 59.183594 C 196.433594 58.941406 196.855469 58.726562 197.285156 58.535156 C 197.714844 58.347656 198.15625 58.1875 198.605469 58.058594 C 199.058594 57.925781 199.515625 57.824219 199.980469 57.753906 C 200.445312 57.679688 200.914062 57.640625 201.390625 57.625 C 201.867188 57.613281 202.34375 57.628906 202.824219 57.675781 C 203.304688 57.722656 203.785156 57.800781 204.269531 57.90625 C 204.75 58.011719 205.230469 58.148438 205.710938 58.3125 C 206.1875 58.476562 206.660156 58.667969 207.132812 58.886719 C 207.601562 59.109375 208.066406 59.355469 208.523438 59.632812 C 208.980469 59.90625 209.429688 60.207031 209.871094 60.535156 C 210.308594 60.859375 210.738281 61.210938 211.160156 61.585938 C 211.578125 61.960938 211.984375 62.359375 212.375 62.78125 C 212.769531 63.199219 213.148438 63.640625 213.511719 64.101562 C 213.878906 64.5625 214.226562 65.042969 214.558594 65.539062 C 214.886719 66.035156 215.203125 66.550781 215.496094 67.078125 C 215.792969 67.609375 216.070312 68.152344 216.324219 68.707031 C 216.582031 69.261719 216.820312 69.828125 217.035156 70.40625 C 217.25 70.984375 217.445312 71.570312 217.617188 72.160156 Z M 217.617188 72.160156 " fill-opacity="1" fill-rule="nonzero"/><path fill="#e30613" d="M 221.859375 88.039062 C 221.878906 88.175781 221.859375 88.3125 221.796875 88.457031 C 221.738281 88.601562 221.644531 88.746094 221.511719 88.890625 C 221.375 89.039062 221.207031 89.183594 221.003906 89.324219 C 220.800781 89.46875 220.566406 89.609375 220.296875 89.742188 C 220.03125 89.875 219.738281 90.003906 219.421875 90.125 C 219.105469 90.246094 218.765625 90.355469 218.410156 90.460938 C 218.050781 90.5625 217.679688 90.652344 217.296875 90.734375 C 216.910156 90.8125 216.523438 90.882812 216.128906 90.9375 C 215.730469 90.992188 215.339844 91.03125 214.949219 91.058594 C 214.558594 91.085938 214.175781 91.097656 213.804688 91.097656 C 213.429688 91.097656 213.074219 91.082031 212.734375 91.050781 C 212.398438 91.023438 212.082031 90.980469 211.789062 90.921875 C 211.496094 90.863281 211.230469 90.796875 210.996094 90.710938 C 210.761719 90.628906 210.558594 90.539062 210.390625 90.433594 C 210.222656 90.328125 210.089844 90.214844 209.996094 90.09375 C 209.898438 89.972656 209.84375 89.84375 209.824219 89.707031 C 209.804688 89.570312 209.824219 89.433594 209.882812 89.289062 C 209.941406 89.144531 210.039062 89 210.171875 88.855469 C 210.308594 88.707031 210.476562 88.5625 210.679688 88.421875 C 210.882812 88.277344 211.117188 88.136719 211.382812 88.003906 C 211.652344 87.871094 211.941406 87.742188 212.261719 87.621094 C 212.578125 87.5 212.917969 87.390625 213.273438 87.285156 C 213.632812 87.183594 214.003906 87.09375 214.386719 87.011719 C 214.769531 86.933594 215.160156 86.863281 215.554688 86.808594 C 215.949219 86.753906 216.34375 86.714844 216.734375 86.6875 C 217.125 86.660156 217.507812 86.648438 217.878906 86.648438 C 218.253906 86.648438 218.609375 86.664062 218.945312 86.695312 C 219.285156 86.722656 219.601562 86.765625 219.894531 86.824219 C 220.1875 86.882812 220.449219 86.953125 220.6875 87.035156 C 220.921875 87.117188 221.121094 87.207031 221.292969 87.3125 C 221.460938 87.417969 221.589844 87.53125 221.6875 87.652344 C 221.78125 87.773438 221.839844 87.902344 221.859375 88.039062 Z M 221.859375 88.039062 " fill-opacity="1" fill-rule="nonzero"/><path fill="#e30613" d="M 157.433594 96.519531 C 157.453125 96.652344 157.433594 96.792969 157.375 96.9375 C 157.316406 97.082031 157.21875 97.226562 157.085938 97.371094 C 156.953125 97.519531 156.78125 97.664062 156.578125 97.804688 C 156.375 97.949219 156.140625 98.085938 155.875 98.222656 C 155.609375 98.355469 155.316406 98.484375 154.996094 98.605469 C 154.679688 98.726562 154.339844 98.835938 153.984375 98.941406 C 153.625 99.042969 153.253906 99.132812 152.871094 99.214844 C 152.488281 99.292969 152.097656 99.359375 151.703125 99.414062 C 151.308594 99.46875 150.914062 99.511719 150.523438 99.539062 C 150.132812 99.566406 149.75 99.578125 149.378906 99.578125 C 149.007812 99.578125 148.652344 99.5625 148.3125 99.53125 C 147.972656 99.5 147.65625 99.457031 147.363281 99.402344 C 147.070312 99.34375 146.808594 99.273438 146.574219 99.191406 C 146.335938 99.109375 146.136719 99.015625 145.96875 98.914062 C 145.796875 98.808594 145.667969 98.695312 145.570312 98.574219 C 145.476562 98.453125 145.417969 98.324219 145.398438 98.1875 C 145.378906 98.050781 145.402344 97.910156 145.460938 97.769531 C 145.519531 97.625 145.613281 97.480469 145.75 97.335938 C 145.882812 97.1875 146.050781 97.042969 146.253906 96.898438 C 146.457031 96.757812 146.695312 96.617188 146.960938 96.484375 C 147.226562 96.347656 147.519531 96.222656 147.835938 96.101562 C 148.152344 95.980469 148.492188 95.867188 148.851562 95.765625 C 149.207031 95.664062 149.578125 95.574219 149.960938 95.492188 C 150.347656 95.410156 150.734375 95.34375 151.128906 95.289062 C 151.527344 95.234375 151.917969 95.195312 152.308594 95.167969 C 152.703125 95.140625 153.082031 95.125 153.457031 95.128906 C 153.828125 95.128906 154.183594 95.144531 154.523438 95.175781 C 154.859375 95.203125 155.175781 95.246094 155.46875 95.304688 C 155.761719 95.363281 156.027344 95.429688 156.261719 95.511719 C 156.496094 95.59375 156.699219 95.6875 156.867188 95.792969 C 157.035156 95.898438 157.167969 96.011719 157.261719 96.132812 C 157.359375 96.253906 157.414062 96.382812 157.433594 96.519531 Z M 157.433594 96.519531 " fill-opacity="1" fill-rule="nonzero"/><path fill="#f29222" d="M 208.519531 117.402344 C 208.519531 117.402344 202.753906 104.636719 219.011719 102.949219 C 220.441406 96.984375 214.441406 89.019531 206.792969 85.726562 C 188.328125 77.769531 181.785156 97.085938 171.417969 101.496094 C 167.734375 103.0625 164.003906 102.515625 164.003906 102.515625 C 164.003906 102.515625 156.804688 99.527344 155.859375 103.128906 C 154.546875 108.117188 162.71875 109.972656 162.71875 109.972656 C 169.035156 134.507812 179.519531 139.234375 187.105469 141.621094 C 199.855469 145.628906 221.273438 133.285156 208.519531 117.402344 Z M 208.519531 117.402344 " fill-opacity="1" fill-rule="nonzero"/><path fill="#002d4b" d="M 211.050781 98.316406 C 203.65625 94.15625 196.945312 113.828125 168.539062 111.394531 C 172.601562 119.96875 179.242188 125.253906 185.976562 127.125 C 202.46875 131.707031 207.964844 123.632812 208.574219 117.84375 C 208.574219 117.84375 203.363281 115.519531 204.765625 106.195312 C 205.367188 102.183594 211.050781 98.316406 211.050781 98.316406 Z M 211.050781 98.316406 " fill-opacity="1" fill-rule="nonzero"/><path fill="#e20613" d="M 178.855469 121.964844 C 180.3125 123.488281 183.648438 126.734375 193.421875 127.476562 C 193.421875 127.476562 190.683594 116.835938 178.855469 121.964844 Z M 178.855469 121.964844 " fill-opacity="1" fill-rule="nonzero"/><path fill="#ffffff" d="M 202.785156 87.046875 C 203.3125 87.222656 203.832031 87.414062 204.335938 87.621094 C 204.84375 87.828125 205.332031 88.046875 205.796875 88.277344 C 206.265625 88.503906 206.699219 88.742188 207.109375 88.984375 C 207.515625 89.226562 207.886719 89.46875 208.21875 89.714844 C 208.550781 89.964844 208.839844 90.207031 209.085938 90.449219 C 209.332031 90.691406 209.53125 90.921875 209.679688 91.148438 C 209.828125 91.375 209.925781 91.589844 209.972656 91.792969 C 210.019531 91.996094 210.015625 92.1875 209.957031 92.359375 C 209.898438 92.53125 209.792969 92.683594 209.632812 92.816406 C 209.472656 92.953125 209.265625 93.066406 209.007812 93.15625 C 208.753906 93.246094 208.457031 93.316406 208.113281 93.359375 C 207.773438 93.40625 207.394531 93.425781 206.980469 93.421875 C 206.566406 93.421875 206.125 93.394531 205.652344 93.339844 C 205.179688 93.289062 204.691406 93.214844 204.179688 93.117188 C 203.667969 93.023438 203.148438 92.902344 202.621094 92.765625 C 202.089844 92.625 201.5625 92.464844 201.03125 92.289062 C 200.503906 92.113281 199.988281 91.921875 199.480469 91.714844 C 198.972656 91.507812 198.484375 91.289062 198.019531 91.0625 C 197.554688 90.832031 197.117188 90.597656 196.707031 90.355469 C 196.300781 90.109375 195.929688 89.867188 195.597656 89.621094 C 195.265625 89.375 194.976562 89.128906 194.730469 88.886719 C 194.484375 88.648438 194.285156 88.414062 194.136719 88.1875 C 193.988281 87.960938 193.890625 87.746094 193.84375 87.542969 C 193.796875 87.339844 193.800781 87.152344 193.859375 86.980469 C 193.917969 86.808594 194.027344 86.652344 194.183594 86.519531 C 194.34375 86.386719 194.550781 86.273438 194.808594 86.179688 C 195.0625 86.089844 195.359375 86.019531 195.703125 85.976562 C 196.042969 85.929688 196.421875 85.910156 196.835938 85.914062 C 197.25 85.917969 197.695312 85.945312 198.164062 85.996094 C 198.636719 86.046875 199.128906 86.121094 199.636719 86.21875 C 200.148438 86.316406 200.667969 86.433594 201.195312 86.574219 C 201.726562 86.710938 202.253906 86.871094 202.785156 87.046875 Z M 202.785156 87.046875 " fill-opacity="1" fill-rule="nonzero"/><path fill="#ffffff" d="M 212.535156 92.910156 C 212.734375 92.992188 212.917969 93.097656 213.078125 93.230469 C 213.242188 93.359375 213.371094 93.503906 213.472656 93.660156 C 213.574219 93.820312 213.632812 93.980469 213.65625 94.140625 C 213.679688 94.304688 213.660156 94.453125 213.601562 94.59375 C 213.546875 94.734375 213.449219 94.855469 213.320312 94.953125 C 213.191406 95.050781 213.035156 95.121094 212.851562 95.164062 C 212.667969 95.203125 212.472656 95.210938 212.265625 95.191406 C 212.058594 95.167969 211.855469 95.113281 211.65625 95.03125 C 211.457031 94.949219 211.273438 94.84375 211.113281 94.710938 C 210.949219 94.582031 210.816406 94.4375 210.71875 94.277344 C 210.617188 94.121094 210.554688 93.960938 210.535156 93.800781 C 210.511719 93.636719 210.527344 93.484375 210.585938 93.34375 C 210.644531 93.203125 210.738281 93.085938 210.871094 92.988281 C 211 92.886719 211.15625 92.820312 211.339844 92.777344 C 211.523438 92.738281 211.71875 92.726562 211.925781 92.75 C 212.132812 92.773438 212.335938 92.828125 212.535156 92.910156 Z M 212.535156 92.910156 " fill-opacity="1" fill-rule="nonzero"/><path fill="#002d4b" d="M 190.777344 60.75 C 189.257812 62.511719 186.75 60.253906 187.179688 58.355469 C 187.613281 56.460938 189.867188 48.183594 196.558594 46.902344 C 207.054688 44.898438 215.144531 55.140625 215.144531 55.140625 C 218.382812 58.28125 217.332031 60.652344 216.070312 59.816406 C 196.765625 47.015625 193.671875 57.398438 190.777344 60.75 Z M 190.777344 60.75 " fill-opacity="1" fill-rule="nonzero"/><path fill="#002d4b" d="M 169.734375 62.335938 C 171.03125 61.960938 169.824219 59.332031 169.824219 59.332031 C 168.464844 57.6875 161.476562 48.988281 153.480469 50.238281 C 145.480469 51.492188 137.6875 61.679688 135.3125 66.171875 C 133.164062 70.238281 137.246094 71.449219 138.265625 70.230469 C 145.011719 62.144531 149.910156 59.304688 153.667969 58.671875 C 160.429688 57.53125 165.855469 63.464844 169.734375 62.335938 Z M 169.734375 62.335938 " fill-opacity="1" fill-rule="nonzero"/><path fill="#9d9d9c" d="M 201.417969 145.992188 C 201.417969 145.992188 197.09375 152.347656 185.648438 145.992188 C 194.804688 153.875 201.671875 152.347656 201.417969 145.992188 Z M 201.417969 145.992188 " fill-opacity="1" fill-rule="nonzero"/><path fill="#002d4b" d="M 172.066406 85.082031 C 172.058594 83.871094 170.808594 77.671875 165.378906 76.023438 C 160.058594 74.375 156.550781 76.816406 154.933594 79.300781 C 154.308594 80.304688 155.316406 81.457031 156.417969 81.027344 C 158.730469 80.132812 160.832031 80.132812 162.683594 80.636719 C 162.210938 80.671875 161.730469 80.734375 161.234375 80.863281 C 155.832031 82.21875 154.101562 86.128906 154.011719 89.085938 C 154 90.269531 155.457031 90.730469 156.175781 89.792969 C 160.324219 84.390625 166.617188 85.578125 170.203125 86.886719 C 171.042969 87.171875 171.824219 86.550781 171.855469 85.816406 C 172 85.621094 172.082031 85.371094 172.066406 85.082031 Z M 172.066406 85.082031 " fill-opacity="1" fill-rule="nonzero"/><path fill="#002d4b" d="M 211.464844 82.125 C 211.101562 80.96875 208.089844 75.410156 202.417969 75.425781 C 200.917969 75.417969 199.636719 75.664062 198.539062 76.074219 C 201.046875 73.855469 204.421875 73.101562 206.835938 72.871094 C 207.988281 72.738281 208.386719 71.242188 207.386719 70.660156 C 206.371094 70.003906 200.5 67.65625 196.148438 71.296875 C 191.855469 74.851562 191.980469 79.121094 193.171875 81.832031 C 193.226562 81.949219 193.296875 82.042969 193.371094 82.128906 C 193.507812 82.972656 194.535156 83.445312 195.316406 82.832031 C 200.664062 78.621094 206.472656 81.320312 209.625 83.472656 C 210.597656 84.105469 211.859375 83.214844 211.464844 82.125 Z M 211.464844 82.125 " fill-opacity="1" fill-rule="nonzero"/><path fill="#005995" d="M 232.347656 50.058594 C 233.109375 49 268.183594 20.40625 268.183594 20.40625 C 268.183594 20.40625 276.632812 22.070312 273.144531 30.816406 L 234.992188 51.964844 Z M 232.347656 50.058594 " fill-opacity="1" fill-rule="nonzero"/><path fill="#005995" d="M 227.277344 39.253906 C 227.410156 38.625 237.527344 18.839844 237.527344 18.839844 C 237.527344 18.839844 241.65625 17.917969 241.816406 22.539062 L 228.84375 39.585938 Z M 227.277344 39.253906 " fill-opacity="1" fill-rule="nonzero"/><path fill="#005995" d="M 241.609375 61.457031 C 242.121094 61.070312 262.710938 52.707031 262.710938 52.707031 C 262.710938 52.707031 266.4375 54.707031 263.539062 58.3125 L 242.578125 62.734375 Z M 241.609375 61.457031 " fill-opacity="1" fill-rule="nonzero"/><path fill="#005995" d="M 103.359375 56.925781 C 102.597656 55.867188 67.519531 27.273438 67.519531 27.273438 C 67.519531 27.273438 59.074219 28.9375 62.558594 37.683594 L 100.710938 58.832031 Z M 103.359375 56.925781 " fill-opacity="1" fill-rule="nonzero"/><path fill="#005995" d="M 108.429688 46.117188 C 108.296875 45.492188 98.175781 25.707031 98.175781 25.707031 C 98.175781 25.707031 94.050781 24.785156 93.890625 29.40625 L 106.863281 46.453125 Z M 108.429688 46.117188 " fill-opacity="1" fill-rule="nonzero"/><path fill="#005995" d="M 94.09375 68.324219 C 93.582031 67.9375 72.992188 59.574219 72.992188 59.574219 C 72.992188 59.574219 69.269531 61.574219 72.164062 65.175781 L 93.128906 69.601562 Z M 94.09375 68.324219 " fill-opacity="1" fill-rule="nonzero"/></svg>