<svg xmlns="http://www.w3.org/2000/svg" xmlns:xlink="http://www.w3.org/1999/xlink" width="500" zoomAndPan="magnify" viewBox="0 0 375 374.999991" height="500" preserveAspectRatio="xMidYMid meet" version="1.0"><defs><clipPath id="606214bfad"><path d="M 235 48.003906 L 339 48.003906 L 339 134 L 235 134 Z M 235 48.003906 " clip-rule="nonzero"/></clipPath><clipPath id="d19f1f1e59"><path d="M 17.644531 149 L 357.394531 149 L 357.394531 312 L 17.644531 312 Z M 17.644531 149 " clip-rule="nonzero"/></clipPath></defs><path fill="#d33a22" d="M 182.773438 207.726562 C 182.773438 207.726562 182.777344 207.734375 183.074219 208.230469 L 182.855469 208.175781 C 182.804688 207.886719 182.773438 207.726562 182.773438 207.726562 Z M 182.773438 207.726562 " fill-opacity="1" fill-rule="nonzero"/><g clip-path="url(#606214bfad)"><path fill="#005995" d="M 338.125 88.476562 C 338.125 66.128906 315.121094 48.015625 286.742188 48.015625 C 258.363281 48.015625 235.359375 66.128906 235.359375 88.476562 C 235.359375 104.324219 246.9375 118.039062 263.796875 124.675781 C 261.207031 128.125 259.558594 131.609375 261.988281 132.980469 C 266.640625 135.613281 290.554688 129.816406 297.621094 128.019531 C 320.773438 124.085938 338.125 107.878906 338.125 88.476562 Z M 338.125 88.476562 " fill-opacity="1" fill-rule="nonzero"/></g><path fill="#ffffff" d="M 308.546875 115.699219 C 308.109375 115.34375 307.601562 115.125 307.023438 115.042969 C 306.671875 114.992188 306.289062 115.003906 305.886719 115.078125 C 305.476562 115.148438 305.09375 115.273438 304.734375 115.453125 C 304.378906 115.636719 304.070312 115.867188 303.8125 116.152344 C 303.550781 116.4375 303.398438 116.769531 303.347656 117.144531 C 303.257812 117.773438 303.445312 118.265625 303.90625 118.628906 C 304.371094 118.988281 304.878906 119.207031 305.429688 119.28125 C 305.808594 119.335938 306.191406 119.339844 306.585938 119.289062 C 306.976562 119.242188 307.351562 119.132812 307.707031 118.96875 C 308.0625 118.796875 308.367188 118.570312 308.609375 118.285156 C 308.855469 118 309.007812 117.644531 309.066406 117.214844 C 309.160156 116.558594 308.984375 116.054688 308.546875 115.699219 Z M 312.078125 101.019531 C 312.207031 100.191406 312.320312 99.289062 312.417969 98.316406 C 312.515625 97.34375 312.578125 96.347656 312.605469 95.324219 C 312.636719 94.300781 312.585938 93.367188 312.460938 92.515625 C 312.335938 91.664062 312.113281 90.953125 311.796875 90.382812 C 311.480469 89.816406 311.015625 89.488281 310.414062 89.402344 C 309.734375 89.308594 309.144531 89.425781 308.636719 89.75 C 308.128906 90.078125 307.691406 90.535156 307.328125 91.125 C 306.964844 91.714844 306.65625 92.382812 306.414062 93.132812 C 306.167969 93.878906 305.957031 94.640625 305.785156 95.410156 C 305.613281 96.179688 305.480469 96.910156 305.382812 97.601562 C 305.289062 98.296875 305.207031 98.867188 305.144531 99.320312 C 305.082031 99.773438 304.996094 100.421875 304.890625 101.265625 C 304.785156 102.109375 304.703125 103.035156 304.636719 104.039062 C 304.574219 105.042969 304.546875 106.070312 304.554688 107.121094 C 304.558594 108.175781 304.636719 109.140625 304.785156 110.019531 C 304.929688 110.898438 305.160156 111.636719 305.472656 112.230469 C 305.789062 112.828125 306.222656 113.164062 306.777344 113.238281 C 307.230469 113.304688 307.660156 113.152344 308.070312 112.785156 C 308.480469 112.417969 308.855469 111.921875 309.203125 111.289062 C 309.546875 110.660156 309.871094 109.949219 310.171875 109.15625 C 310.476562 108.367188 310.734375 107.582031 310.945312 106.804688 C 311.15625 106.023438 311.335938 105.292969 311.480469 104.609375 C 311.628906 103.925781 311.730469 103.382812 311.785156 102.976562 C 311.851562 102.5 311.949219 101.847656 312.078125 101.019531 Z M 293.355469 110.730469 C 292.6875 110.929688 292.074219 110.992188 291.523438 110.914062 C 291.195312 110.871094 290.914062 110.765625 290.679688 110.605469 C 290.445312 110.445312 290.355469 110.1875 290.402344 109.835938 C 290.457031 109.460938 290.664062 109.117188 291.027344 108.808594 C 291.390625 108.5 291.820312 108.234375 292.3125 108.007812 C 292.808594 107.78125 293.308594 107.621094 293.824219 107.527344 C 294.335938 107.429688 294.757812 107.40625 295.085938 107.453125 L 295.230469 107.492188 L 295.378906 107.53125 L 295.136719 110.113281 C 294.617188 110.324219 294.023438 110.527344 293.355469 110.730469 Z M 301.371094 108.964844 C 301.476562 107.863281 301.527344 106.757812 301.53125 105.640625 C 301.53125 104.527344 301.464844 103.425781 301.335938 102.34375 C 301.203125 101.261719 300.976562 100.222656 300.65625 99.230469 C 300.445312 98.535156 300.128906 97.90625 299.707031 97.347656 C 299.285156 96.789062 298.796875 96.300781 298.238281 95.875 C 297.683594 95.449219 297.078125 95.109375 296.421875 94.851562 C 295.765625 94.59375 295.097656 94.417969 294.417969 94.320312 C 293.6875 94.21875 292.871094 94.238281 291.964844 94.382812 C 291.0625 94.527344 290.207031 94.777344 289.398438 95.140625 C 288.589844 95.5 287.894531 95.988281 287.308594 96.597656 C 286.722656 97.210938 286.375 97.929688 286.257812 98.757812 C 286.179688 99.3125 286.3125 99.792969 286.652344 100.199219 C 286.992188 100.605469 287.441406 100.847656 287.992188 100.925781 C 288.496094 100.996094 288.964844 100.953125 289.398438 100.792969 C 289.828125 100.636719 290.265625 100.453125 290.703125 100.246094 C 291.144531 100.039062 291.605469 99.859375 292.085938 99.707031 C 292.570312 99.558594 293.125 99.527344 293.753906 99.613281 C 294.53125 99.722656 295.101562 100.046875 295.464844 100.582031 C 295.824219 101.121094 295.953125 101.78125 295.84375 102.558594 C 295.824219 102.683594 295.804688 102.796875 295.777344 102.898438 C 295.75 102.996094 295.726562 103.109375 295.710938 103.234375 C 294.738281 103.226562 293.613281 103.324219 292.339844 103.53125 C 291.070312 103.738281 289.847656 104.085938 288.675781 104.578125 C 287.503906 105.066406 286.484375 105.714844 285.617188 106.515625 C 284.746094 107.316406 284.230469 108.324219 284.0625 109.527344 C 283.964844 110.207031 284.019531 110.914062 284.226562 111.648438 C 284.429688 112.382812 284.746094 113.0625 285.171875 113.683594 C 285.597656 114.308594 286.113281 114.84375 286.71875 115.285156 C 287.320312 115.726562 287.988281 116 288.71875 116.101562 C 289.777344 116.25 290.839844 116.195312 291.914062 115.933594 C 292.988281 115.675781 293.980469 115.246094 294.882812 114.65625 C 294.730469 115.558594 294.863281 116.34375 295.285156 117.019531 C 295.703125 117.695312 296.375 118.097656 297.308594 118.226562 C 297.984375 118.320312 298.550781 118.140625 298.996094 117.691406 C 299.445312 117.242188 299.804688 116.683594 300.078125 116.015625 C 300.351562 115.351562 300.558594 114.652344 300.695312 113.929688 C 300.835938 113.207031 300.9375 112.617188 301 112.164062 C 301.144531 111.132812 301.269531 110.066406 301.371094 108.964844 Z M 284.820312 92.824219 C 284.890625 92.296875 284.921875 91.699219 284.914062 91.03125 C 284.90625 90.363281 284.808594 89.722656 284.625 89.105469 C 284.441406 88.492188 284.160156 87.953125 283.777344 87.488281 C 283.390625 87.023438 282.847656 86.742188 282.140625 86.644531 C 281.3125 86.527344 280.664062 86.625 280.199219 86.929688 C 279.734375 87.238281 279.375 87.65625 279.117188 88.183594 C 278.863281 88.710938 278.679688 89.300781 278.566406 89.953125 C 278.449219 90.601562 278.335938 91.214844 278.230469 91.789062 C 277.988281 92.984375 277.769531 94.1875 277.574219 95.390625 C 277.378906 96.59375 277.183594 97.808594 276.988281 99.039062 L 272.867188 99.078125 C 273.054688 98.105469 273.242188 97.136719 273.425781 96.175781 C 273.609375 95.214844 273.773438 94.230469 273.914062 93.226562 C 274.019531 92.472656 274.140625 91.621094 274.269531 90.679688 C 274.402344 89.734375 274.414062 88.828125 274.304688 87.953125 C 274.199219 87.078125 273.90625 86.320312 273.433594 85.679688 C 272.957031 85.03125 272.179688 84.636719 271.097656 84.484375 C 270.316406 84.375 269.703125 84.507812 269.253906 84.882812 C 268.804688 85.253906 268.453125 85.738281 268.207031 86.332031 C 267.953125 86.925781 267.773438 87.574219 267.664062 88.277344 C 267.554688 88.976562 267.449219 89.589844 267.347656 90.117188 C 267.074219 91.71875 266.832031 93.316406 266.617188 94.917969 C 266.410156 96.515625 266.167969 98.101562 265.898438 99.683594 C 265.636719 101.183594 265.335938 102.675781 265.003906 104.152344 C 264.667969 105.628906 264.394531 107.125 264.183594 108.636719 C 264.121094 109.085938 264.105469 109.570312 264.136719 110.089844 C 264.164062 110.605469 264.265625 111.089844 264.433594 111.535156 C 264.601562 111.980469 264.855469 112.363281 265.195312 112.679688 C 265.535156 112.996094 265.996094 113.195312 266.574219 113.273438 C 267.503906 113.40625 268.277344 113.207031 268.890625 112.675781 C 269.503906 112.144531 270 111.476562 270.382812 110.671875 C 270.761719 109.867188 271.0625 109.011719 271.277344 108.105469 C 271.496094 107.199219 271.6875 106.425781 271.855469 105.78125 L 275.640625 105.925781 C 275.425781 106.742188 275.230469 107.570312 275.0625 108.402344 C 274.894531 109.238281 274.753906 110.070312 274.636719 110.902344 C 274.566406 111.40625 274.574219 111.898438 274.660156 112.386719 C 274.746094 112.871094 274.902344 113.316406 275.128906 113.722656 C 275.355469 114.121094 275.660156 114.46875 276.042969 114.75 C 276.425781 115.035156 276.878906 115.214844 277.410156 115.289062 C 278.015625 115.371094 278.550781 115.25 279.019531 114.917969 C 279.488281 114.585938 279.898438 114.128906 280.25 113.550781 C 280.597656 112.972656 280.890625 112.3125 281.121094 111.574219 C 281.351562 110.839844 281.554688 110.105469 281.734375 109.375 C 281.914062 108.640625 282.0625 107.957031 282.175781 107.320312 C 282.292969 106.683594 282.386719 106.175781 282.464844 105.800781 C 282.90625 103.738281 283.328125 101.660156 283.722656 99.574219 C 284.113281 97.488281 284.457031 95.402344 284.75 93.316406 Z M 284.820312 92.824219 " fill-opacity="1" fill-rule="nonzero"/><path fill="#ffffff" d="M 304.996094 78.914062 C 304.652344 78.636719 304.253906 78.460938 303.796875 78.398438 C 303.519531 78.359375 303.222656 78.367188 302.902344 78.425781 C 302.582031 78.484375 302.28125 78.582031 302 78.722656 C 301.71875 78.867188 301.472656 79.046875 301.273438 79.273438 C 301.070312 79.496094 300.949219 79.753906 300.90625 80.050781 C 300.835938 80.546875 300.984375 80.933594 301.347656 81.21875 C 301.710938 81.5 302.109375 81.671875 302.546875 81.734375 C 302.839844 81.773438 303.144531 81.777344 303.453125 81.738281 C 303.761719 81.699219 304.054688 81.617188 304.335938 81.484375 C 304.613281 81.351562 304.851562 81.171875 305.046875 80.949219 C 305.238281 80.722656 305.359375 80.441406 305.40625 80.105469 C 305.476562 79.589844 305.339844 79.195312 304.996094 78.914062 Z M 307.773438 67.375 C 307.871094 66.722656 307.964844 66.015625 308.039062 65.25 C 308.117188 64.484375 308.164062 63.699219 308.1875 62.894531 C 308.207031 62.09375 308.167969 61.355469 308.070312 60.6875 C 307.972656 60.019531 307.800781 59.460938 307.550781 59.011719 C 307.300781 58.566406 306.9375 58.308594 306.464844 58.242188 C 305.929688 58.164062 305.464844 58.257812 305.0625 58.515625 C 304.664062 58.769531 304.324219 59.132812 304.035156 59.59375 C 303.75 60.058594 303.507812 60.585938 303.316406 61.171875 C 303.125 61.761719 302.960938 62.359375 302.824219 62.964844 C 302.6875 63.570312 302.582031 64.144531 302.507812 64.6875 C 302.429688 65.230469 302.367188 65.679688 302.320312 66.035156 C 302.269531 66.394531 302.203125 66.902344 302.121094 67.566406 C 302.039062 68.230469 301.972656 68.957031 301.921875 69.746094 C 301.871094 70.535156 301.847656 71.34375 301.855469 72.171875 C 301.859375 73 301.921875 73.757812 302.035156 74.449219 C 302.152344 75.140625 302.332031 75.71875 302.578125 76.1875 C 302.828125 76.65625 303.167969 76.921875 303.601562 76.980469 C 303.960938 77.03125 304.296875 76.914062 304.621094 76.625 C 304.941406 76.335938 305.238281 75.945312 305.511719 75.449219 C 305.78125 74.953125 306.035156 74.394531 306.273438 73.769531 C 306.511719 73.148438 306.714844 72.53125 306.878906 71.921875 C 307.046875 71.308594 307.1875 70.734375 307.300781 70.195312 C 307.417969 69.65625 307.496094 69.230469 307.542969 68.914062 C 307.59375 68.539062 307.671875 68.023438 307.773438 67.375 Z M 293.054688 75.007812 C 292.527344 75.164062 292.046875 75.214844 291.609375 75.152344 C 291.355469 75.117188 291.132812 75.039062 290.949219 74.910156 C 290.765625 74.785156 290.691406 74.582031 290.730469 74.304688 C 290.773438 74.007812 290.9375 73.738281 291.222656 73.496094 C 291.507812 73.253906 291.84375 73.046875 292.234375 72.867188 C 292.621094 72.691406 293.015625 72.5625 293.421875 72.488281 C 293.824219 72.414062 294.152344 72.394531 294.410156 72.429688 L 294.644531 72.492188 L 294.453125 74.523438 C 294.042969 74.6875 293.578125 74.847656 293.054688 75.007812 Z M 299.355469 73.621094 C 299.433594 72.753906 299.476562 71.882812 299.476562 71.007812 C 299.476562 70.128906 299.429688 69.265625 299.324219 68.414062 C 299.222656 67.5625 299.042969 66.75 298.789062 65.96875 C 298.625 65.421875 298.375 64.925781 298.042969 64.488281 C 297.714844 64.050781 297.328125 63.664062 296.890625 63.328125 C 296.453125 62.996094 295.976562 62.726562 295.460938 62.523438 C 294.945312 62.320312 294.421875 62.183594 293.886719 62.105469 C 293.3125 62.027344 292.671875 62.042969 291.960938 62.15625 C 291.25 62.269531 290.574219 62.46875 289.941406 62.75 C 289.308594 63.035156 288.761719 63.417969 288.300781 63.898438 C 287.839844 64.378906 287.5625 64.945312 287.472656 65.597656 C 287.410156 66.03125 287.515625 66.40625 287.785156 66.726562 C 288.050781 67.046875 288.402344 67.238281 288.835938 67.300781 C 289.234375 67.355469 289.601562 67.320312 289.941406 67.195312 C 290.28125 67.074219 290.621094 66.929688 290.96875 66.765625 C 291.3125 66.601562 291.675781 66.460938 292.054688 66.34375 C 292.4375 66.222656 292.871094 66.199219 293.367188 66.269531 C 293.980469 66.355469 294.429688 66.609375 294.710938 67.03125 C 294.996094 67.453125 295.09375 67.972656 295.007812 68.585938 C 294.996094 68.683594 294.976562 68.773438 294.957031 68.847656 C 294.9375 68.925781 294.917969 69.015625 294.902344 69.113281 C 294.140625 69.109375 293.253906 69.1875 292.253906 69.347656 C 291.253906 69.511719 290.292969 69.785156 289.375 70.171875 C 288.453125 70.554688 287.652344 71.0625 286.96875 71.695312 C 286.285156 72.324219 285.878906 73.113281 285.746094 74.0625 C 285.671875 74.597656 285.714844 75.152344 285.875 75.730469 C 286.035156 76.304688 286.285156 76.839844 286.617188 77.332031 C 286.953125 77.820312 287.359375 78.238281 287.835938 78.589844 C 288.308594 78.9375 288.835938 79.152344 289.40625 79.230469 C 290.238281 79.347656 291.074219 79.304688 291.921875 79.101562 C 292.765625 78.894531 293.542969 78.558594 294.253906 78.09375 C 294.132812 78.804688 294.238281 79.421875 294.566406 79.953125 C 294.898438 80.484375 295.429688 80.796875 296.160156 80.902344 C 296.695312 80.976562 297.136719 80.835938 297.488281 80.480469 C 297.839844 80.128906 298.121094 79.6875 298.335938 79.164062 C 298.550781 78.640625 298.714844 78.09375 298.824219 77.523438 C 298.933594 76.953125 299.011719 76.492188 299.0625 76.136719 C 299.175781 75.324219 299.273438 74.488281 299.355469 73.621094 Z M 286.339844 60.929688 C 286.398438 60.515625 286.421875 60.046875 286.414062 59.519531 C 286.410156 58.996094 286.332031 58.492188 286.1875 58.007812 C 286.042969 57.523438 285.820312 57.101562 285.519531 56.734375 C 285.21875 56.371094 284.789062 56.148438 284.234375 56.070312 C 283.582031 55.980469 283.074219 56.058594 282.707031 56.296875 C 282.339844 56.539062 282.058594 56.867188 281.859375 57.28125 C 281.660156 57.699219 281.515625 58.164062 281.421875 58.671875 C 281.332031 59.183594 281.242188 59.667969 281.160156 60.117188 C 280.96875 61.058594 280.796875 62.003906 280.644531 62.949219 C 280.492188 63.894531 280.339844 64.851562 280.183594 65.816406 L 276.945312 65.847656 C 277.089844 65.082031 277.238281 64.324219 277.382812 63.566406 C 277.527344 62.8125 277.660156 62.039062 277.769531 61.246094 C 277.851562 60.65625 277.945312 59.988281 278.046875 59.246094 C 278.152344 58.503906 278.160156 57.789062 278.074219 57.101562 C 277.992188 56.414062 277.761719 55.820312 277.386719 55.3125 C 277.015625 54.808594 276.402344 54.496094 275.554688 54.375 C 274.941406 54.289062 274.457031 54.394531 274.105469 54.6875 C 273.75 54.980469 273.476562 55.359375 273.28125 55.828125 C 273.082031 56.292969 272.941406 56.804688 272.855469 57.355469 C 272.765625 57.910156 272.683594 58.390625 272.605469 58.804688 C 272.390625 60.0625 272.199219 61.320312 272.03125 62.578125 C 271.867188 63.835938 271.679688 65.082031 271.464844 66.324219 C 271.261719 67.503906 271.023438 68.675781 270.761719 69.839844 C 270.5 71 270.285156 72.175781 270.117188 73.363281 C 270.070312 73.71875 270.054688 74.097656 270.078125 74.507812 C 270.105469 74.914062 270.183594 75.292969 270.3125 75.644531 C 270.449219 75.996094 270.644531 76.292969 270.914062 76.542969 C 271.179688 76.792969 271.542969 76.949219 271.996094 77.011719 C 272.730469 77.113281 273.335938 76.957031 273.816406 76.539062 C 274.296875 76.125 274.6875 75.597656 274.992188 74.964844 C 275.289062 74.332031 275.523438 73.660156 275.695312 72.945312 C 275.863281 72.234375 276.015625 71.628906 276.148438 71.121094 L 279.125 71.234375 C 278.953125 71.875 278.804688 72.527344 278.671875 73.183594 C 278.539062 73.839844 278.429688 74.492188 278.335938 75.144531 C 278.28125 75.542969 278.289062 75.929688 278.355469 76.3125 C 278.421875 76.695312 278.546875 77.042969 278.722656 77.363281 C 278.898438 77.679688 279.140625 77.949219 279.441406 78.171875 C 279.742188 78.394531 280.101562 78.535156 280.519531 78.59375 C 280.992188 78.660156 281.414062 78.5625 281.785156 78.304688 C 282.152344 78.042969 282.476562 77.683594 282.75 77.230469 C 283.023438 76.773438 283.253906 76.257812 283.433594 75.675781 C 283.617188 75.097656 283.777344 74.519531 283.917969 73.945312 C 284.058594 73.371094 284.175781 72.832031 284.265625 72.332031 C 284.355469 71.828125 284.433594 71.429688 284.492188 71.136719 C 284.839844 69.515625 285.171875 67.882812 285.480469 66.242188 C 285.789062 64.601562 286.058594 62.960938 286.289062 61.320312 Z M 286.339844 60.929688 " fill-opacity="1" fill-rule="nonzero"/><path fill="#f29222" d="M 285.441406 315.90625 C 284.542969 313.148438 287.921875 307.617188 288.460938 306.761719 C 279.648438 301.683594 245.902344 284.957031 245.902344 284.957031 C 245.902344 284.957031 244.992188 266.261719 256.078125 269.835938 C 267.160156 273.40625 292.164062 300.953125 292.164062 300.953125 C 296.636719 294.359375 304.304688 284.476562 309.789062 284.9375 C 310.980469 284.066406 313.628906 282.585938 315.675781 284.71875 C 315.003906 284.730469 313.453125 284.742188 311.863281 286.429688 C 311.867188 287.46875 310.839844 288.9375 309.265625 290.570312 C 314.851562 287.480469 320.480469 285.6875 324.601562 287.460938 C 325.207031 287.722656 325.664062 288.011719 326 288.324219 C 328.238281 288.285156 331.734375 288.828125 332.53125 292.480469 C 331.621094 291.949219 329.425781 290.613281 325.617188 292.050781 C 319.996094 298.699219 294.1875 308.367188 294.1875 308.367188 C 294.1875 308.367188 292.542969 317.632812 287.804688 317.449219 C 286.074219 319.558594 286.304688 321.359375 286.394531 322.140625 C 283.9375 320.34375 284.671875 317.566406 285.441406 315.90625 Z M 285.441406 315.90625 " fill-opacity="1" fill-rule="nonzero"/><path fill="#f29222" d="M 98.15625 320.757812 C 99.222656 318.0625 96.1875 312.335938 95.703125 311.449219 C 104.808594 306.917969 139.515625 292.285156 139.515625 292.285156 C 139.515625 292.285156 141.566406 273.683594 130.28125 276.570312 C 119 279.457031 92.359375 305.425781 92.359375 305.425781 C 88.300781 298.570312 81.25 288.234375 75.75 288.363281 C 74.613281 287.421875 72.058594 285.78125 69.886719 287.78125 C 70.558594 287.835938 72.101562 287.941406 73.585938 289.722656 C 73.519531 290.761719 74.453125 292.289062 75.925781 294.015625 C 70.539062 290.59375 65.03125 288.457031 60.808594 289.976562 C 60.1875 290.199219 59.714844 290.460938 59.359375 290.753906 C 57.128906 290.574219 53.605469 290.90625 52.589844 294.5 C 53.53125 294.023438 55.804688 292.828125 59.515625 294.496094 C 64.722656 301.476562 89.886719 312.699219 89.886719 312.699219 C 89.886719 312.699219 90.964844 322.050781 95.703125 322.15625 C 97.300781 324.367188 96.960938 326.152344 96.828125 326.925781 C 99.386719 325.28125 98.824219 322.46875 98.15625 320.757812 Z M 98.15625 320.757812 " fill-opacity="1" fill-rule="nonzero"/><g clip-path="url(#d19f1f1e59)"><path fill="#005995" d="M 345.332031 244.269531 C 342.414062 231.765625 332.566406 223.933594 324.15625 219.382812 C 324.179688 219.335938 324.207031 219.292969 324.234375 219.246094 C 324.234375 219.246094 324.757812 216.621094 330.90625 216.621094 C 339.101562 216.625 353.84375 219.253906 357.347656 219.214844 C 350.886719 199.378906 326.765625 200.324219 326.734375 200.320312 C 322.953125 200.136719 327.925781 190.078125 353.222656 185.898438 C 344.964844 172.988281 327.621094 177.582031 317.132812 184.796875 C 307.550781 189.464844 303.28125 184.003906 303.191406 183.960938 C 314.234375 173.355469 311.234375 167.351562 300.257812 161.667969 C 300.363281 177.417969 286.964844 186.949219 284.53125 187.824219 C 283.433594 188.832031 259.503906 170.6875 259.5625 170.09375 C 220.738281 132.179688 137.03125 155.695312 115.410156 175.808594 C 115.46875 176.402344 91.539062 194.546875 90.441406 193.539062 C 88.007812 192.664062 74.609375 183.128906 74.714844 167.378906 C 63.734375 173.066406 60.738281 179.070312 71.78125 189.675781 C 71.691406 189.714844 67.421875 195.175781 57.839844 190.507812 C 47.351562 183.296875 30.007812 178.699219 21.75 191.609375 C 47.046875 195.789062 52.019531 205.851562 48.238281 206.035156 C 48.207031 206.035156 24.085938 205.089844 17.625 224.929688 C 21.128906 224.964844 35.871094 222.339844 44.066406 222.335938 C 50.214844 222.332031 50.738281 224.960938 50.738281 224.960938 C 50.765625 225.007812 50.792969 225.050781 50.816406 225.09375 C 42.40625 229.644531 32.554688 237.476562 29.640625 249.984375 C 34.773438 248.308594 49.457031 239.601562 67.660156 240.148438 C 67.492188 240.214844 67.324219 240.285156 67.167969 240.355469 L 66.738281 240.558594 C 66.5 240.675781 66.273438 240.800781 66.054688 240.929688 L 65.761719 241.097656 C 65.464844 241.285156 65.175781 241.476562 64.917969 241.675781 L 64.902344 241.6875 C 64.636719 241.894531 64.398438 242.105469 64.171875 242.320312 L 63.980469 242.519531 C 63.828125 242.675781 63.691406 242.832031 63.5625 242.992188 L 63.386719 243.21875 C 63.261719 243.382812 63.152344 243.550781 63.050781 243.71875 L 62.941406 243.902344 C 62.816406 244.128906 62.714844 244.359375 62.632812 244.585938 L 62.597656 244.707031 L 62.457031 245.265625 L 62.433594 245.484375 L 62.414062 245.945312 L 62.425781 246.160156 L 62.519531 246.671875 L 62.550781 246.792969 C 62.613281 246.996094 62.703125 247.191406 62.8125 247.378906 L 62.914062 247.523438 L 63.222656 247.921875 L 63.386719 248.089844 L 63.785156 248.421875 L 63.976562 248.558594 C 64.082031 248.632812 64.195312 248.699219 64.316406 248.765625 C 64.433594 248.832031 64.558594 248.894531 64.6875 248.953125 C 65.019531 249.101562 65.378906 249.214844 65.75 249.300781 L 66.140625 249.367188 C 66.398438 249.414062 66.652344 249.457031 66.921875 249.476562 L 67.421875 249.5 C 67.675781 249.507812 67.929688 249.515625 68.191406 249.503906 L 68.746094 249.472656 C 69.007812 249.453125 69.269531 249.429688 69.535156 249.398438 C 69.730469 249.375 69.925781 249.34375 70.125 249.3125 C 70.390625 249.273438 70.664062 249.222656 70.9375 249.171875 C 71.136719 249.132812 71.335938 249.09375 71.535156 249.046875 C 71.820312 248.984375 72.105469 248.914062 72.386719 248.839844 C 72.582031 248.789062 72.777344 248.742188 72.972656 248.6875 C 73.277344 248.601562 73.585938 248.507812 73.890625 248.414062 C 74.0625 248.359375 74.238281 248.3125 74.410156 248.257812 C 74.792969 248.128906 75.175781 247.996094 75.554688 247.863281 L 75.832031 247.765625 C 76.300781 247.59375 76.765625 247.414062 77.21875 247.234375 L 77.679688 247.042969 C 77.976562 246.917969 78.273438 246.800781 78.558594 246.675781 C 78.742188 246.59375 78.917969 246.515625 79.097656 246.4375 C 79.34375 246.328125 79.59375 246.21875 79.832031 246.109375 C 80.015625 246.027344 80.1875 245.945312 80.363281 245.863281 C 80.582031 245.757812 80.804688 245.65625 81.011719 245.554688 C 81.179688 245.476562 81.339844 245.398438 81.496094 245.320312 C 81.699219 245.21875 81.898438 245.121094 82.085938 245.027344 L 82.515625 244.8125 C 82.691406 244.722656 82.859375 244.632812 83.019531 244.550781 L 83.386719 244.359375 C 83.554688 244.269531 83.707031 244.1875 83.855469 244.109375 L 84.074219 243.992188 C 84.277344 243.882812 84.457031 243.78125 84.597656 243.699219 C 82.503906 244.914062 74.132812 250.023438 76.761719 252.761719 L 76.878906 253.050781 L 76.9375 253.117188 L 77.269531 253.351562 L 77.289062 253.367188 L 77.847656 253.558594 L 78.015625 253.597656 C 78.226562 253.644531 78.453125 253.683594 78.707031 253.710938 L 78.785156 253.722656 C 79.0625 253.75 79.371094 253.761719 79.695312 253.765625 L 79.953125 253.761719 C 80.257812 253.757812 80.574219 253.742188 80.914062 253.714844 L 81.046875 253.703125 C 81.421875 253.667969 81.820312 253.609375 82.230469 253.539062 L 82.542969 253.480469 C 82.917969 253.410156 83.300781 253.324219 83.699219 253.222656 L 83.882812 253.179688 C 84.328125 253.058594 84.792969 252.914062 85.261719 252.753906 L 85.601562 252.628906 C 86.019531 252.476562 86.449219 252.304688 86.878906 252.117188 L 87.097656 252.023438 C 87.59375 251.796875 88.089844 251.546875 88.589844 251.273438 L 88.921875 251.085938 C 89.378906 250.820312 89.839844 250.542969 90.300781 250.234375 L 90.480469 250.117188 C 90.984375 249.773438 91.484375 249.394531 91.988281 248.992188 L 92.328125 248.707031 C 92.804688 248.3125 93.28125 247.890625 93.746094 247.433594 L 93.851562 247.339844 C 94.335938 246.859375 94.816406 246.332031 95.289062 245.78125 L 95.625 245.382812 C 95.933594 245.011719 96.238281 244.621094 96.539062 244.21875 C 96.613281 244.214844 96.6875 244.214844 96.765625 244.210938 C 96.730469 244.300781 96.691406 244.386719 96.660156 244.476562 L 96.558594 244.796875 L 96.382812 245.40625 L 96.300781 245.769531 L 96.1875 246.332031 L 96.128906 246.699219 L 96.070312 247.246094 L 96.039062 247.597656 L 96.023438 248.148438 L 96.019531 248.449219 C 96.027344 248.675781 96.039062 248.890625 96.058594 249.101562 L 96.066406 249.253906 C 96.09375 249.511719 96.132812 249.757812 96.179688 249.992188 L 96.226562 250.191406 L 96.34375 250.652344 L 96.421875 250.875 L 96.5625 251.222656 L 96.664062 251.421875 L 96.828125 251.691406 L 96.941406 251.847656 L 97.140625 252.046875 L 97.261719 252.148438 L 97.515625 252.273438 L 97.617188 252.3125 L 97.996094 252.324219 L 98.089844 252.289062 L 98.398438 252.167969 L 98.726562 251.917969 L 98.878906 251.792969 C 99.042969 251.625 99.207031 251.421875 99.378906 251.171875 C 100.878906 248.945312 102.519531 246.808594 104.238281 244.742188 L 104.308594 244.898438 L 104.414062 245.058594 L 104.550781 245.253906 L 104.8125 245.542969 L 105.171875 245.820312 L 105.351562 245.925781 L 105.527344 246.03125 L 105.753906 246.117188 L 105.996094 246.210938 L 106.433594 246.339844 C 106.613281 246.378906 106.804688 246.398438 106.996094 246.421875 C 107.164062 246.4375 107.332031 246.453125 107.511719 246.457031 C 107.714844 246.460938 107.933594 246.441406 108.152344 246.425781 C 108.34375 246.410156 108.53125 246.398438 108.730469 246.363281 C 108.820312 246.351562 108.910156 246.332031 109.003906 246.3125 C 109.148438 246.28125 109.296875 246.246094 109.441406 246.210938 C 109.652344 246.160156 109.859375 246.117188 110.078125 246.046875 C 110.222656 246.003906 110.367188 245.949219 110.515625 245.890625 C 110.625 245.847656 110.738281 245.804688 110.847656 245.761719 C 111.046875 245.683594 111.246094 245.609375 111.449219 245.519531 C 111.476562 245.507812 111.5 245.5 111.523438 245.488281 C 111.546875 245.476562 111.574219 245.460938 111.601562 245.449219 C 111.792969 245.359375 111.988281 245.253906 112.183594 245.148438 C 112.238281 245.121094 112.289062 245.089844 112.34375 245.0625 C 112.433594 245.011719 112.523438 244.964844 112.613281 244.917969 C 112.757812 244.839844 112.902344 244.761719 113.050781 244.671875 C 113.332031 244.5 113.621094 244.292969 113.90625 244.09375 C 113.917969 244.082031 113.929688 244.074219 113.945312 244.066406 C 114.09375 243.964844 114.242188 243.863281 114.390625 243.757812 C 114.46875 243.699219 114.550781 243.644531 114.632812 243.582031 C 114.925781 243.355469 115.226562 243.085938 115.523438 242.832031 C 115.664062 242.710938 115.804688 242.589844 115.945312 242.46875 C 116.046875 242.382812 116.148438 242.296875 116.246094 242.203125 C 116.453125 242.007812 116.660156 241.792969 116.863281 241.578125 C 116.964844 241.46875 117.066406 241.363281 117.167969 241.257812 C 117.203125 241.222656 117.238281 241.1875 117.273438 241.148438 C 117.769531 244.417969 118.441406 247.671875 119.289062 250.890625 C 116.109375 248.875 113.195312 247.546875 111.164062 247.699219 C 105.679688 248.113281 105.523438 254.617188 105.523438 254.617188 C 105.523438 254.617188 100.539062 250.691406 95.796875 254.222656 C 91.703125 257.265625 95.53125 263 95.53125 263 C 95.53125 263 83.851562 263.097656 84.859375 271.238281 C 86.152344 281.714844 106.667969 283.195312 117.308594 283.253906 C 117.128906 290.335938 123.371094 300.628906 129.914062 302.21875 C 130.453125 305.859375 135.503906 308.011719 139.21875 304.390625 C 141.863281 301.8125 144.1875 297.941406 145.949219 294.453125 C 156.367188 303.285156 169.339844 309.285156 184.578125 310.707031 C 210.1875 313.101562 229.3125 304.972656 241.984375 291.441406 C 243.421875 293.734375 245.058594 295.945312 246.824219 297.59375 C 250.613281 301.140625 255.617188 298.886719 256.082031 295.230469 C 264.148438 293.097656 271.496094 277.601562 266.890625 271.671875 C 269.214844 269.097656 268.738281 264.648438 264.039062 263.5625 C 262.113281 263.113281 259.90625 262.851562 257.730469 262.699219 C 259.914062 254.796875 260.882812 246.445312 260.628906 238.070312 C 260.765625 238.164062 260.902344 238.261719 261.039062 238.355469 C 261.050781 238.363281 261.0625 238.371094 261.074219 238.378906 C 261.363281 238.582031 261.648438 238.789062 261.933594 238.960938 C 262.078125 239.050781 262.226562 239.128906 262.367188 239.207031 C 262.457031 239.253906 262.550781 239.300781 262.640625 239.351562 C 262.691406 239.378906 262.746094 239.410156 262.800781 239.4375 C 262.996094 239.542969 263.191406 239.644531 263.382812 239.738281 C 263.40625 239.75 263.433594 239.765625 263.460938 239.777344 C 263.484375 239.789062 263.507812 239.796875 263.53125 239.808594 C 263.734375 239.898438 263.933594 239.972656 264.136719 240.050781 C 264.246094 240.09375 264.355469 240.136719 264.464844 240.179688 C 264.613281 240.234375 264.761719 240.289062 264.90625 240.335938 C 265.121094 240.402344 265.328125 240.449219 265.539062 240.5 C 265.6875 240.535156 265.835938 240.570312 265.980469 240.597656 C 266.070312 240.617188 266.160156 240.640625 266.25 240.652344 C 266.449219 240.683594 266.636719 240.695312 266.828125 240.714844 C 267.046875 240.730469 267.265625 240.746094 267.472656 240.746094 C 267.652344 240.742188 267.816406 240.722656 267.984375 240.707031 C 268.175781 240.6875 268.367188 240.667969 268.546875 240.628906 L 268.988281 240.5 L 269.230469 240.40625 L 269.453125 240.320312 L 269.632812 240.214844 L 269.808594 240.109375 L 270.167969 239.832031 L 270.433594 239.542969 L 270.566406 239.347656 L 270.675781 239.1875 L 270.742188 239.03125 C 272.464844 241.097656 274.105469 243.234375 275.605469 245.460938 C 275.773438 245.710938 275.941406 245.914062 276.105469 246.078125 L 276.257812 246.207031 L 276.585938 246.457031 L 276.890625 246.578125 L 276.984375 246.613281 L 277.367188 246.601562 L 277.464844 246.558594 L 277.71875 246.4375 L 277.839844 246.332031 L 278.039062 246.136719 L 278.152344 245.980469 L 278.320312 245.710938 L 278.421875 245.511719 L 278.558594 245.164062 L 278.636719 244.941406 L 278.757812 244.480469 L 278.804688 244.28125 C 278.851562 244.046875 278.886719 243.800781 278.914062 243.542969 L 278.925781 243.390625 C 278.941406 243.179688 278.957031 242.960938 278.960938 242.738281 L 278.960938 242.4375 L 278.941406 241.886719 L 278.914062 241.535156 L 278.851562 240.988281 L 278.796875 240.621094 L 278.683594 240.058594 L 278.601562 239.695312 L 278.425781 239.085938 L 278.324219 238.765625 C 278.292969 238.675781 278.253906 238.589844 278.21875 238.5 C 278.292969 238.503906 278.371094 238.503906 278.445312 238.507812 C 278.746094 238.910156 279.050781 239.300781 279.359375 239.671875 L 279.691406 240.070312 C 280.164062 240.617188 280.644531 241.144531 281.132812 241.628906 L 281.234375 241.722656 C 281.703125 242.179688 282.175781 242.597656 282.652344 242.996094 L 282.996094 243.28125 C 283.496094 243.683594 283.996094 244.0625 284.5 244.402344 L 284.683594 244.519531 C 285.144531 244.828125 285.601562 245.109375 286.0625 245.371094 L 286.390625 245.558594 C 286.894531 245.835938 287.390625 246.085938 287.882812 246.3125 L 288.101562 246.402344 C 288.535156 246.59375 288.960938 246.765625 289.382812 246.917969 L 289.722656 247.039062 C 290.1875 247.203125 290.652344 247.347656 291.097656 247.46875 L 291.285156 247.511719 C 291.679688 247.613281 292.066406 247.699219 292.4375 247.769531 L 292.75 247.828125 C 293.160156 247.898438 293.5625 247.957031 293.9375 247.992188 L 294.070312 248 C 294.40625 248.03125 294.722656 248.046875 295.027344 248.050781 L 295.289062 248.054688 C 295.613281 248.050781 295.921875 248.039062 296.199219 248.011719 L 296.277344 248 C 296.53125 247.972656 296.757812 247.933594 296.964844 247.886719 L 297.136719 247.84375 L 297.691406 247.652344 L 297.714844 247.640625 L 298.046875 247.40625 L 298.105469 247.335938 L 298.222656 247.046875 C 300.847656 244.308594 292.476562 239.199219 290.382812 237.988281 C 290.527344 238.070312 290.707031 238.167969 290.910156 238.277344 L 291.128906 238.398438 C 291.273438 238.476562 291.429688 238.558594 291.597656 238.648438 L 291.964844 238.835938 C 292.121094 238.921875 292.289062 239.007812 292.46875 239.097656 L 292.894531 239.3125 C 293.085938 239.410156 293.28125 239.507812 293.488281 239.609375 C 293.644531 239.683594 293.804688 239.761719 293.96875 239.84375 C 294.179688 239.945312 294.398438 240.046875 294.621094 240.148438 C 294.792969 240.234375 294.96875 240.3125 295.152344 240.398438 C 295.386719 240.503906 295.636719 240.617188 295.886719 240.726562 C 296.066406 240.804688 296.238281 240.882812 296.425781 240.960938 C 296.710938 241.085938 297.007812 241.207031 297.304688 241.328125 L 297.765625 241.519531 C 298.21875 241.703125 298.679688 241.878906 299.148438 242.050781 L 299.429688 242.148438 C 299.808594 242.285156 300.191406 242.417969 300.574219 242.542969 C 300.746094 242.597656 300.917969 242.648438 301.089844 242.703125 C 301.398438 242.796875 301.703125 242.890625 302.007812 242.976562 C 302.203125 243.03125 302.398438 243.078125 302.59375 243.128906 C 302.878906 243.203125 303.164062 243.269531 303.445312 243.335938 C 303.644531 243.378906 303.84375 243.417969 304.042969 243.457031 C 304.320312 243.511719 304.589844 243.558594 304.859375 243.601562 C 305.054688 243.632812 305.253906 243.660156 305.445312 243.683594 C 305.714844 243.71875 305.976562 243.742188 306.238281 243.757812 L 306.789062 243.792969 C 307.054688 243.800781 307.308594 243.792969 307.5625 243.785156 L 308.058594 243.765625 C 308.328125 243.742188 308.585938 243.699219 308.839844 243.652344 L 309.234375 243.589844 C 309.605469 243.5 309.960938 243.390625 310.292969 243.242188 C 310.425781 243.183594 310.550781 243.121094 310.667969 243.054688 C 310.785156 242.988281 310.898438 242.917969 311.007812 242.847656 L 311.195312 242.710938 L 311.59375 242.378906 L 311.761719 242.207031 L 312.066406 241.8125 L 312.167969 241.667969 C 312.277344 241.476562 312.371094 241.28125 312.433594 241.078125 L 312.460938 240.957031 L 312.558594 240.445312 L 312.570312 240.234375 L 312.550781 239.769531 L 312.527344 239.554688 L 312.386719 238.996094 L 312.351562 238.871094 C 312.269531 238.644531 312.167969 238.417969 312.042969 238.1875 L 311.929688 238.003906 C 311.832031 237.839844 311.722656 237.671875 311.597656 237.503906 L 311.421875 237.277344 C 311.292969 237.121094 311.152344 236.964844 311.003906 236.808594 L 310.808594 236.609375 C 310.585938 236.394531 310.347656 236.179688 310.082031 235.976562 L 310.066406 235.964844 C 309.804688 235.765625 309.519531 235.570312 309.21875 235.386719 L 308.929688 235.214844 C 308.710938 235.089844 308.480469 234.964844 308.242188 234.84375 L 307.816406 234.640625 C 307.660156 234.570312 307.492188 234.503906 307.324219 234.4375 C 325.511719 233.886719 340.199219 242.597656 345.332031 244.269531 Z M 345.332031 244.269531 " fill-opacity="1" fill-rule="nonzero"/></g><path fill="#ffffff" d="M 241.753906 157.175781 C 242.992188 157.175781 243.996094 156.894531 244.441406 156.128906 C 246.953125 151.84375 227.304688 139.46875 227.304688 139.46875 L 217.75 73.382812 C 203.210938 61.984375 187.832031 58.09375 173.730469 58.09375 C 168.097656 58.09375 162.671875 58.710938 157.582031 59.726562 C 137.085938 63.796875 119.867188 82.566406 121.464844 83.214844 C 121.886719 83.386719 122.386719 83.460938 122.933594 83.460938 C 126.554688 83.460938 132.285156 80.195312 132.285156 80.195312 C 132.285156 80.195312 118.164062 95.902344 117.6875 101.933594 C 117.546875 103.714844 118.425781 104.339844 119.734375 104.339844 C 122.851562 104.339844 128.414062 100.773438 128.414062 100.773438 L 128.675781 128.785156 C 128.675781 128.785156 118.164062 157.625 118.164062 160.957031 C 118.164062 161.828125 118.542969 162.1875 119.160156 162.1875 C 122.019531 162.1875 130.066406 154.53125 130.066406 154.53125 C 130.066406 154.53125 120.863281 169.367188 123.402344 174.761719 C 123.78125 175.566406 124.617188 175.90625 125.769531 175.90625 C 132.335938 175.90625 149.109375 164.765625 149.109375 164.765625 C 149.109375 164.765625 137.757812 191.125 147.203125 192.371094 C 147.617188 192.425781 148.042969 192.453125 148.476562 192.453125 C 159.390625 192.453125 176.558594 175.871094 176.558594 175.871094 C 176.558594 175.871094 190.363281 202.367188 205.125 202.6875 C 205.199219 202.6875 205.273438 202.6875 205.351562 202.6875 C 219.878906 202.6875 219.40625 172.378906 219.40625 172.378906 C 219.40625 172.378906 232.609375 182.679688 241.074219 182.679688 C 241.886719 182.679688 242.65625 182.585938 243.367188 182.375 C 251.457031 179.996094 232.890625 154.925781 232.890625 154.925781 C 232.890625 154.925781 238.257812 157.175781 241.753906 157.175781 Z M 241.753906 157.175781 " fill-opacity="1" fill-rule="nonzero"/><path fill="#9d9d9c" d="M 243.28125 163.398438 C 242.835938 162.640625 242.382812 161.898438 241.9375 161.179688 C 245.425781 161.125 247.105469 159.511719 247.898438 158.15625 C 250.835938 153.144531 245.199219 147.707031 239.296875 143.046875 C 236.140625 140.554688 232.878906 138.332031 231.011719 137.097656 L 221.714844 72.8125 C 221.570312 71.792969 221.035156 70.867188 220.222656 70.230469 C 206.558594 59.519531 190.914062 54.085938 173.730469 54.085938 C 168.203125 54.085938 162.507812 54.660156 156.796875 55.796875 C 145.601562 58.019531 135.9375 64.089844 129.808594 68.789062 C 126.703125 71.164062 123.742188 73.796875 121.464844 76.195312 C 117.894531 79.957031 117.480469 81.476562 117.371094 82.609375 C 117.195312 84.492188 118.230469 86.226562 119.953125 86.925781 C 120.367188 87.09375 120.804688 87.222656 121.265625 87.3125 C 114.828125 95.867188 113.851562 99.566406 113.691406 101.617188 C 113.496094 104.089844 114.40625 105.640625 115.203125 106.5 C 115.980469 107.34375 117.398438 108.347656 119.734375 108.347656 C 121.210938 108.347656 122.878906 107.902344 124.464844 107.292969 L 124.660156 128.101562 C 123.941406 130.085938 121.773438 136.09375 119.628906 142.316406 C 114.15625 158.203125 114.15625 159.925781 114.15625 160.957031 C 114.15625 163.988281 116.257812 166.191406 119.15625 166.191406 C 119.449219 166.191406 119.761719 166.175781 120.105469 166.121094 C 118.671875 170.574219 118.578125 173.925781 119.773438 176.464844 C 120.261719 177.503906 121.820312 179.914062 125.765625 179.914062 C 129.796875 179.914062 136.144531 176.992188 141.566406 174.011719 L 141.53125 174.128906 C 138.972656 182.925781 138.757812 188.746094 140.855469 192.4375 C 142.097656 194.625 144.164062 196.011719 146.675781 196.34375 C 147.253906 196.421875 147.859375 196.460938 148.472656 196.460938 C 157.671875 196.460938 169.511719 187.394531 175.566406 182.175781 C 177.15625 184.765625 179.417969 188.191406 182.167969 191.652344 C 189.972656 201.472656 197.664062 206.53125 205.035156 206.691406 C 205.140625 206.695312 205.246094 206.695312 205.347656 206.695312 C 209.023438 206.695312 212.382812 205.257812 215.058594 202.539062 C 220.53125 196.984375 222.429688 186.851562 223.082031 179.8125 C 228.105469 182.972656 235.246094 186.6875 241.070312 186.6875 C 242.289062 186.6875 243.441406 186.53125 244.496094 186.222656 C 246.683594 185.578125 248.28125 184.046875 248.996094 181.917969 C 249.878906 179.285156 250.027344 174.804688 243.28125 163.398438 Z M 243.363281 182.375 C 242.652344 182.585938 241.886719 182.679688 241.070312 182.679688 C 232.609375 182.679688 219.402344 172.382812 219.402344 172.382812 C 219.402344 172.382812 219.875 202.691406 205.347656 202.691406 C 205.273438 202.691406 205.199219 202.6875 205.121094 202.6875 C 190.363281 202.371094 176.558594 175.871094 176.558594 175.871094 C 176.558594 175.871094 159.386719 192.453125 148.472656 192.453125 C 148.039062 192.453125 147.613281 192.429688 147.203125 192.375 C 137.757812 191.125 149.105469 164.765625 149.105469 164.765625 C 149.105469 164.765625 132.332031 175.910156 125.765625 175.910156 C 124.617188 175.910156 123.777344 175.566406 123.398438 174.761719 C 120.859375 169.367188 130.0625 154.53125 130.0625 154.53125 C 130.0625 154.53125 122.019531 162.1875 119.160156 162.1875 C 118.539062 162.1875 118.164062 161.828125 118.164062 160.957031 C 118.164062 157.625 128.675781 128.789062 128.675781 128.789062 L 128.410156 100.777344 C 128.410156 100.777344 122.851562 104.34375 119.734375 104.34375 C 118.425781 104.34375 117.546875 103.714844 117.6875 101.933594 C 118.164062 95.902344 132.285156 80.195312 132.285156 80.195312 C 132.285156 80.195312 126.554688 83.460938 122.933594 83.460938 C 122.386719 83.460938 121.886719 83.386719 121.460938 83.214844 C 119.867188 82.566406 137.082031 63.800781 157.578125 59.726562 C 162.671875 58.714844 168.097656 58.09375 173.730469 58.09375 C 187.832031 58.09375 203.210938 61.988281 217.75 73.386719 L 227.304688 139.472656 C 227.304688 139.472656 246.953125 151.847656 244.441406 156.132812 C 243.992188 156.894531 242.988281 157.179688 241.75 157.179688 C 238.253906 157.179688 232.890625 154.929688 232.890625 154.929688 C 232.890625 154.929688 251.457031 179.996094 243.363281 182.375 Z M 243.363281 182.375 " fill-opacity="1" fill-rule="nonzero"/><path fill="#d6d6d6" d="M 213.792969 118.402344 C 217.652344 115.429688 220.832031 107.007812 218.292969 94.472656 C 215.753906 81.9375 206.683594 72.046875 196.589844 71.136719 C 185.867188 70.167969 187.945312 94.601562 181.898438 94.601562 C 177.140625 94.601562 173.28125 84.875 166.347656 79.6875 C 160.917969 75.625 154.789062 75.890625 147.089844 83.480469 C 135.460938 94.949219 134.03125 104.46875 136.570312 112.085938 C 139.109375 119.703125 150.875 132.050781 168.25 128.003906 C 185.628906 123.957031 182.753906 115.40625 190.945312 113.328125 C 199.132812 111.25 206.179688 124.273438 213.792969 118.402344 Z M 213.792969 118.402344 " fill-opacity="1" fill-rule="nonzero"/><path fill="#ffffff" d="M 173.378906 100.238281 C 173.703125 101.351562 173.9375 102.476562 174.089844 103.613281 C 174.242188 104.753906 174.308594 105.882812 174.28125 107.003906 C 174.257812 108.125 174.144531 109.21875 173.945312 110.277344 C 173.742188 111.339844 173.460938 112.351562 173.089844 113.308594 C 172.722656 114.269531 172.277344 115.160156 171.753906 115.984375 C 171.230469 116.804688 170.640625 117.542969 169.984375 118.195312 C 169.328125 118.847656 168.613281 119.402344 167.851562 119.859375 C 167.085938 120.316406 166.277344 120.667969 165.433594 120.914062 C 164.589844 121.160156 163.722656 121.296875 162.828125 121.320312 C 161.9375 121.34375 161.039062 121.253906 160.136719 121.058594 C 159.230469 120.859375 158.335938 120.550781 157.457031 120.136719 C 156.574219 119.722656 155.71875 119.210938 154.894531 118.597656 C 154.066406 117.984375 153.285156 117.285156 152.546875 116.496094 C 151.808594 115.707031 151.128906 114.847656 150.507812 113.914062 C 149.886719 112.980469 149.332031 111.992188 148.851562 110.949219 C 148.371094 109.90625 147.96875 108.828125 147.644531 107.71875 C 147.320312 106.605469 147.082031 105.480469 146.929688 104.339844 C 146.777344 103.203125 146.714844 102.070312 146.738281 100.949219 C 146.765625 99.828125 146.875 98.738281 147.078125 97.675781 C 147.277344 96.617188 147.5625 95.605469 147.929688 94.644531 C 148.300781 93.683594 148.746094 92.792969 149.269531 91.972656 C 149.792969 91.148438 150.382812 90.414062 151.039062 89.761719 C 151.695312 89.109375 152.40625 88.554688 153.171875 88.09375 C 153.9375 87.636719 154.742188 87.285156 155.585938 87.039062 C 156.433594 86.796875 157.300781 86.660156 158.191406 86.636719 C 159.085938 86.613281 159.980469 86.699219 160.886719 86.898438 C 161.789062 87.097656 162.683594 87.402344 163.566406 87.816406 C 164.449219 88.230469 165.300781 88.746094 166.128906 89.355469 C 166.953125 89.96875 167.734375 90.671875 168.472656 91.457031 C 169.210938 92.246094 169.890625 93.109375 170.515625 94.042969 C 171.136719 94.976562 171.6875 95.964844 172.171875 97.007812 C 172.652344 98.046875 173.054688 99.125 173.378906 100.238281 Z M 173.378906 100.238281 " fill-opacity="1" fill-rule="nonzero"/><path fill="#ffffff" d="M 215.15625 94.363281 C 215.480469 95.472656 215.71875 96.601562 215.871094 97.738281 C 216.023438 98.878906 216.085938 100.007812 216.0625 101.128906 C 216.039062 102.25 215.925781 103.339844 215.722656 104.402344 C 215.523438 105.464844 215.238281 106.472656 214.871094 107.433594 C 214.5 108.394531 214.054688 109.285156 213.53125 110.105469 C 213.007812 110.929688 212.417969 111.667969 211.761719 112.320312 C 211.105469 112.972656 210.394531 113.527344 209.628906 113.984375 C 208.863281 114.441406 208.058594 114.792969 207.214844 115.039062 C 206.367188 115.285156 205.5 115.417969 204.609375 115.441406 C 203.71875 115.46875 202.820312 115.378906 201.914062 115.179688 C 201.011719 114.980469 200.117188 114.675781 199.234375 114.261719 C 198.351562 113.847656 197.5 113.335938 196.671875 112.722656 C 195.847656 112.109375 195.066406 111.410156 194.328125 110.621094 C 193.589844 109.832031 192.910156 108.972656 192.285156 108.039062 C 191.664062 107.105469 191.113281 106.117188 190.628906 105.074219 C 190.148438 104.03125 189.746094 102.953125 189.421875 101.839844 C 189.101562 100.730469 188.863281 99.605469 188.710938 98.464844 C 188.558594 97.328125 188.492188 96.195312 188.519531 95.074219 C 188.542969 93.953125 188.65625 92.863281 188.855469 91.800781 C 189.058594 90.738281 189.34375 89.730469 189.710938 88.769531 C 190.078125 87.808594 190.523438 86.917969 191.046875 86.097656 C 191.570312 85.273438 192.160156 84.539062 192.816406 83.882812 C 193.476562 83.230469 194.1875 82.675781 194.953125 82.21875 C 195.71875 81.761719 196.523438 81.410156 197.367188 81.164062 C 198.210938 80.917969 199.082031 80.785156 199.972656 80.761719 C 200.863281 80.738281 201.761719 80.824219 202.664062 81.023438 C 203.570312 81.222656 204.464844 81.527344 205.34375 81.941406 C 206.226562 82.355469 207.082031 82.867188 207.90625 83.480469 C 208.734375 84.09375 209.515625 84.792969 210.253906 85.582031 C 210.992188 86.371094 211.671875 87.230469 212.292969 88.164062 C 212.914062 89.097656 213.46875 90.085938 213.949219 91.128906 C 214.429688 92.171875 214.835938 93.25 215.15625 94.363281 Z M 215.15625 94.363281 " fill-opacity="1" fill-rule="nonzero"/><path fill="#e30613" d="M 219.140625 109.222656 C 219.160156 109.347656 219.140625 109.480469 219.085938 109.613281 C 219.03125 109.75 218.941406 109.882812 218.816406 110.019531 C 218.691406 110.15625 218.53125 110.292969 218.339844 110.425781 C 218.152344 110.5625 217.929688 110.691406 217.683594 110.816406 C 217.433594 110.941406 217.160156 111.0625 216.863281 111.175781 C 216.5625 111.289062 216.246094 111.394531 215.914062 111.488281 C 215.578125 111.585938 215.230469 111.671875 214.871094 111.746094 C 214.511719 111.820312 214.148438 111.882812 213.777344 111.933594 C 213.410156 111.984375 213.039062 112.023438 212.675781 112.050781 C 212.308594 112.074219 211.949219 112.085938 211.601562 112.085938 C 211.253906 112.085938 210.921875 112.070312 210.605469 112.042969 C 210.289062 112.015625 209.992188 111.972656 209.71875 111.921875 C 209.445312 111.867188 209.195312 111.800781 208.976562 111.726562 C 208.757812 111.648438 208.566406 111.5625 208.410156 111.464844 C 208.253906 111.367188 208.128906 111.261719 208.039062 111.144531 C 207.949219 111.03125 207.898438 110.910156 207.878906 110.785156 C 207.863281 110.65625 207.878906 110.527344 207.933594 110.390625 C 207.988281 110.257812 208.078125 110.121094 208.207031 109.984375 C 208.332031 109.847656 208.488281 109.714844 208.679688 109.578125 C 208.871094 109.445312 209.089844 109.316406 209.339844 109.191406 C 209.589844 109.0625 209.863281 108.945312 210.160156 108.832031 C 210.457031 108.71875 210.773438 108.613281 211.109375 108.519531 C 211.441406 108.421875 211.789062 108.335938 212.148438 108.261719 C 212.507812 108.1875 212.875 108.125 213.242188 108.074219 C 213.613281 108.019531 213.980469 107.984375 214.347656 107.957031 C 214.710938 107.933594 215.070312 107.917969 215.417969 107.921875 C 215.765625 107.921875 216.097656 107.9375 216.417969 107.964844 C 216.734375 107.992188 217.03125 108.03125 217.304688 108.085938 C 217.578125 108.140625 217.824219 108.203125 218.042969 108.28125 C 218.265625 108.359375 218.453125 108.445312 218.609375 108.542969 C 218.769531 108.640625 218.890625 108.746094 218.980469 108.859375 C 219.070312 108.976562 219.125 109.097656 219.140625 109.222656 Z M 219.140625 109.222656 " fill-opacity="1" fill-rule="nonzero"/><path fill="#e30613" d="M 158.84375 117.160156 C 158.859375 117.285156 158.839844 117.417969 158.785156 117.550781 C 158.730469 117.683594 158.640625 117.820312 158.515625 117.957031 C 158.390625 118.09375 158.234375 118.230469 158.042969 118.363281 C 157.851562 118.496094 157.632812 118.628906 157.382812 118.753906 C 157.132812 118.878906 156.859375 119 156.5625 119.109375 C 156.265625 119.222656 155.949219 119.328125 155.613281 119.425781 C 155.277344 119.519531 154.933594 119.605469 154.574219 119.679688 C 154.214844 119.757812 153.847656 119.820312 153.480469 119.871094 C 153.109375 119.921875 152.742188 119.960938 152.375 119.984375 C 152.007812 120.011719 151.652344 120.023438 151.304688 120.023438 C 150.953125 120.019531 150.621094 120.007812 150.304688 119.980469 C 149.988281 119.949219 149.691406 119.910156 149.417969 119.855469 C 149.144531 119.804688 148.898438 119.738281 148.675781 119.660156 C 148.457031 119.585938 148.269531 119.496094 148.109375 119.398438 C 147.953125 119.300781 147.828125 119.195312 147.738281 119.082031 C 147.652344 118.96875 147.597656 118.847656 147.578125 118.71875 C 147.5625 118.59375 147.582031 118.460938 147.636719 118.328125 C 147.691406 118.195312 147.78125 118.058594 147.90625 117.921875 C 148.03125 117.785156 148.1875 117.648438 148.378906 117.515625 C 148.570312 117.382812 148.789062 117.25 149.039062 117.125 C 149.289062 117 149.5625 116.878906 149.859375 116.765625 C 150.15625 116.65625 150.472656 116.550781 150.808594 116.453125 C 151.144531 116.359375 151.492188 116.273438 151.851562 116.199219 C 152.210938 116.121094 152.574219 116.058594 152.945312 116.007812 C 153.3125 115.957031 153.679688 115.917969 154.046875 115.894531 C 154.414062 115.867188 154.769531 115.855469 155.117188 115.855469 C 155.46875 115.859375 155.800781 115.871094 156.117188 115.898438 C 156.433594 115.929688 156.730469 115.96875 157.003906 116.023438 C 157.277344 116.074219 157.523438 116.140625 157.746094 116.21875 C 157.964844 116.292969 158.152344 116.382812 158.3125 116.480469 C 158.46875 116.578125 158.59375 116.683594 158.683594 116.796875 C 158.773438 116.910156 158.824219 117.03125 158.84375 117.160156 Z M 158.84375 117.160156 " fill-opacity="1" fill-rule="nonzero"/><path fill="#f29222" d="M 206.648438 136.703125 C 206.648438 136.703125 201.253906 124.753906 216.472656 123.175781 C 217.8125 117.59375 212.191406 110.140625 205.035156 107.054688 C 187.753906 99.609375 181.628906 117.6875 171.925781 121.816406 C 168.476562 123.28125 164.984375 122.769531 164.984375 122.769531 C 164.984375 122.769531 158.25 119.972656 157.363281 123.34375 C 156.136719 128.011719 163.785156 129.75 163.785156 129.75 C 169.695312 152.710938 182.945312 159.675781 190.046875 161.90625 C 201.976562 165.660156 213.375 152.863281 206.648438 136.703125 Z M 206.648438 136.703125 " fill-opacity="1" fill-rule="nonzero"/><path fill="#002d4b" d="M 209.019531 118.839844 C 202.101562 114.945312 195.816406 133.355469 169.230469 131.078125 C 173.035156 139.101562 184.148438 149.117188 190.207031 151.59375 C 197.1875 154.453125 201.808594 152.070312 204.011719 149.53125 C 207.738281 145.238281 206.550781 138.425781 206.550781 138.425781 C 206.550781 138.425781 201.824219 134.9375 203.136719 126.214844 C 203.703125 122.460938 209.019531 118.839844 209.019531 118.839844 Z M 209.019531 118.839844 " fill-opacity="1" fill-rule="nonzero"/><path fill="#ffffff" d="M 201.277344 108.296875 C 201.773438 108.464844 202.257812 108.644531 202.730469 108.835938 C 203.207031 109.03125 203.664062 109.234375 204.097656 109.449219 C 204.535156 109.664062 204.945312 109.882812 205.324219 110.109375 C 205.707031 110.335938 206.054688 110.566406 206.367188 110.796875 C 206.675781 111.027344 206.949219 111.253906 207.179688 111.480469 C 207.410156 111.707031 207.59375 111.925781 207.734375 112.136719 C 207.871094 112.347656 207.964844 112.550781 208.007812 112.742188 C 208.050781 112.929688 208.046875 113.105469 207.992188 113.269531 C 207.9375 113.429688 207.835938 113.570312 207.6875 113.699219 C 207.539062 113.824219 207.34375 113.929688 207.105469 114.015625 C 206.867188 114.101562 206.585938 114.164062 206.269531 114.207031 C 205.949219 114.246094 205.59375 114.265625 205.207031 114.265625 C 204.820312 114.261719 204.40625 114.234375 203.964844 114.1875 C 203.523438 114.140625 203.0625 114.070312 202.585938 113.980469 C 202.105469 113.886719 201.621094 113.777344 201.125 113.648438 C 200.628906 113.515625 200.132812 113.367188 199.640625 113.203125 C 199.144531 113.039062 198.660156 112.859375 198.1875 112.664062 C 197.710938 112.472656 197.253906 112.265625 196.820312 112.054688 C 196.382812 111.839844 195.972656 111.617188 195.59375 111.390625 C 195.210938 111.164062 194.863281 110.9375 194.550781 110.707031 C 194.242188 110.472656 193.96875 110.246094 193.738281 110.019531 C 193.507812 109.792969 193.324219 109.574219 193.183594 109.363281 C 193.046875 109.152344 192.953125 108.949219 192.910156 108.761719 C 192.867188 108.570312 192.871094 108.394531 192.925781 108.234375 C 192.980469 108.074219 193.082031 107.929688 193.230469 107.804688 C 193.378906 107.679688 193.574219 107.574219 193.8125 107.488281 C 194.050781 107.402344 194.332031 107.335938 194.648438 107.296875 C 194.96875 107.253906 195.324219 107.234375 195.710938 107.238281 C 196.097656 107.238281 196.511719 107.265625 196.953125 107.3125 C 197.394531 107.363281 197.855469 107.429688 198.332031 107.523438 C 198.8125 107.613281 199.296875 107.722656 199.792969 107.855469 C 200.289062 107.984375 200.785156 108.132812 201.277344 108.296875 Z M 201.277344 108.296875 " fill-opacity="1" fill-rule="nonzero"/><path fill="#ffffff" d="M 210.40625 113.78125 C 210.59375 113.859375 210.765625 113.957031 210.917969 114.078125 C 211.070312 114.203125 211.191406 114.335938 211.285156 114.484375 C 211.378906 114.632812 211.4375 114.78125 211.457031 114.933594 C 211.480469 115.085938 211.460938 115.226562 211.40625 115.359375 C 211.351562 115.492188 211.265625 115.601562 211.140625 115.695312 C 211.019531 115.785156 210.875 115.851562 210.703125 115.890625 C 210.53125 115.929688 210.347656 115.9375 210.15625 115.914062 C 209.960938 115.894531 209.769531 115.84375 209.585938 115.765625 C 209.398438 115.691406 209.226562 115.589844 209.074219 115.46875 C 208.921875 115.347656 208.800781 115.210938 208.707031 115.0625 C 208.613281 114.914062 208.554688 114.765625 208.535156 114.613281 C 208.515625 114.460938 208.53125 114.320312 208.585938 114.1875 C 208.640625 114.058594 208.726562 113.945312 208.851562 113.851562 C 208.972656 113.761719 209.117188 113.695312 209.289062 113.65625 C 209.460938 113.621094 209.644531 113.609375 209.835938 113.632812 C 210.03125 113.652344 210.222656 113.703125 210.40625 113.78125 Z M 210.40625 113.78125 " fill-opacity="1" fill-rule="nonzero"/><path fill="#002d4b" d="M 190.046875 83.683594 C 188.625 85.332031 186.277344 83.21875 186.679688 81.441406 C 187.085938 79.667969 189.191406 71.921875 195.457031 70.726562 C 205.28125 68.847656 212.851562 78.433594 212.851562 78.433594 C 215.882812 81.371094 214.898438 83.59375 213.71875 82.808594 C 195.648438 70.832031 192.753906 80.546875 190.046875 83.683594 Z M 190.046875 83.683594 " fill-opacity="1" fill-rule="nonzero"/><path fill="#002d4b" d="M 170.351562 85.167969 C 171.5625 84.816406 170.4375 82.359375 170.4375 82.359375 C 169.160156 80.816406 162.621094 72.675781 155.136719 73.847656 C 147.648438 75.019531 140.359375 84.554688 138.136719 88.757812 C 136.121094 92.5625 139.945312 93.695312 140.898438 92.554688 C 147.210938 84.988281 151.796875 82.332031 155.3125 81.738281 C 161.640625 80.667969 166.71875 86.222656 170.351562 85.167969 Z M 170.351562 85.167969 " fill-opacity="1" fill-rule="nonzero"/><path fill="#9d9d9c" d="M 203.179688 166.3125 C 203.179688 166.3125 199.132812 172.261719 188.421875 166.3125 C 195.285156 175.394531 203.851562 173.96875 203.179688 166.3125 Z M 203.179688 166.3125 " fill-opacity="1" fill-rule="nonzero"/><path fill="#002d4b" d="M 172.53125 106.453125 C 172.527344 105.320312 171.355469 99.519531 166.273438 97.976562 C 161.292969 96.433594 158.007812 98.722656 156.5 101.042969 C 155.914062 101.984375 156.855469 103.058594 157.886719 102.660156 C 160.050781 101.820312 162.015625 101.820312 163.75 102.292969 C 163.308594 102.328125 162.859375 102.386719 162.394531 102.503906 C 157.335938 103.773438 155.71875 107.433594 155.636719 110.203125 C 155.625 111.308594 156.988281 111.738281 157.660156 110.859375 C 161.542969 105.808594 167.433594 106.917969 170.789062 108.140625 C 171.574219 108.410156 172.304688 107.828125 172.335938 107.140625 C 172.46875 106.957031 172.546875 106.726562 172.53125 106.453125 Z M 172.53125 106.453125 " fill-opacity="1" fill-rule="nonzero"/><path fill="#002d4b" d="M 209.40625 103.6875 C 209.070312 102.605469 206.25 97.402344 200.941406 97.414062 C 199.535156 97.410156 198.335938 97.640625 197.3125 98.023438 C 199.65625 95.945312 202.816406 95.242188 205.078125 95.023438 C 206.152344 94.898438 206.527344 93.5 205.589844 92.957031 C 204.640625 92.34375 199.144531 90.144531 195.074219 93.550781 C 191.054688 96.875 191.167969 100.875 192.289062 103.410156 C 192.339844 103.519531 192.402344 103.609375 192.472656 103.691406 C 192.601562 104.480469 193.5625 104.921875 194.292969 104.347656 C 199.300781 100.40625 204.734375 102.933594 207.6875 104.949219 C 208.59375 105.539062 209.777344 104.707031 209.40625 103.6875 Z M 209.40625 103.6875 " fill-opacity="1" fill-rule="nonzero"/><path fill="#e30613" d="M 203.4375 140.453125 C 203.230469 140.210938 202.976562 139.976562 202.683594 139.753906 C 200.449219 138.046875 195.300781 138.304688 191.027344 142.214844 C 190.171875 142.054688 189.042969 142.097656 187.84375 142.382812 C 185.488281 142.941406 183.773438 144.21875 184.015625 145.238281 C 184.230469 146.148438 185.9375 146.539062 187.976562 146.214844 C 188.035156 146.207031 188.113281 146.195312 188.203125 146.179688 C 188.261719 146.167969 188.320312 146.15625 188.378906 146.144531 C 188.449219 146.128906 188.519531 146.117188 188.59375 146.097656 C 188.636719 146.089844 188.679688 146.082031 188.71875 146.070312 C 188.75 146.0625 188.777344 146.054688 188.808594 146.046875 C 188.816406 146.046875 188.828125 146.042969 188.839844 146.039062 C 189.003906 146 189.164062 145.953125 189.324219 145.90625 C 189.398438 145.882812 189.476562 145.859375 189.554688 145.835938 C 189.566406 145.832031 189.578125 145.828125 189.589844 145.824219 C 190.5625 145.507812 191.792969 144.964844 192.925781 144.042969 C 193.628906 144.441406 194.972656 145.851562 195.800781 146.648438 C 196 146.84375 196.203125 147.046875 196.414062 147.269531 C 199.625 150.054688 206.96875 144.554688 203.4375 140.453125 Z M 203.4375 140.453125 " fill-opacity="1" fill-rule="nonzero"/></svg>