<svg xmlns="http://www.w3.org/2000/svg" xmlns:xlink="http://www.w3.org/1999/xlink" width="500" zoomAndPan="magnify" viewBox="0 0 375 374.999991" height="500" preserveAspectRatio="xMidYMid meet" version="1.0"><defs><clipPath id="0a48e7ab0f"><path d="M 226 294 L 299 294 L 299 360.894531 L 226 360.894531 Z M 226 294 " clip-rule="nonzero"/></clipPath><clipPath id="8d77a798f6"><path d="M 100 294 L 173 294 L 173 360.894531 L 100 360.894531 Z M 100 294 " clip-rule="nonzero"/></clipPath></defs><g clip-path="url(#0a48e7ab0f)"><path fill="#f29222" d="M 243.171875 354.507812 C 243.953125 351.585938 250.054688 348.667969 251.011719 348.226562 C 246.195312 338.769531 226.1875 304.9375 226.1875 304.9375 C 226.1875 304.9375 236.023438 288.0625 243.6875 297.492188 C 251.351562 306.921875 257.554688 345.25 257.554688 345.25 C 265.214844 342.027344 277.546875 337.738281 282.078125 341.261719 C 283.617188 341.175781 286.777344 341.386719 287.355469 344.417969 C 286.761719 344.046875 285.398438 343.171875 283.050781 343.746094 C 282.460938 344.660156 280.726562 345.359375 278.421875 345.894531 C 285.0625 346.367188 291.007812 348 293.605469 351.894531 C 293.984375 352.46875 294.21875 352.980469 294.335938 353.449219 C 296.316406 354.683594 299.066406 357.148438 297.683594 360.796875 C 297.191406 359.8125 296.027344 357.398438 291.878906 356.488281 C 283.179688 359.109375 255.109375 352.886719 255.109375 352.886719 C 255.109375 352.886719 248.398438 360.0625 244.359375 357.207031 C 241.648438 358.066406 240.824219 359.773438 240.457031 360.511719 C 239.332031 357.539062 241.550781 355.527344 243.171875 354.507812 Z M 243.171875 354.507812 " fill-opacity="1" fill-rule="nonzero"/></g><g clip-path="url(#8d77a798f6)"><path fill="#f29222" d="M 155.730469 354.507812 C 154.949219 351.585938 148.847656 348.667969 147.890625 348.226562 C 152.710938 338.769531 172.71875 304.9375 172.71875 304.9375 C 172.71875 304.9375 162.878906 288.0625 155.214844 297.492188 C 147.550781 306.921875 141.347656 345.25 141.347656 345.25 C 133.6875 342.027344 121.355469 337.738281 116.824219 341.261719 C 115.285156 341.175781 112.125 341.386719 111.546875 344.417969 C 112.144531 344.046875 113.503906 343.171875 115.855469 343.746094 C 116.441406 344.660156 118.175781 345.359375 120.480469 345.894531 C 113.839844 346.367188 107.894531 348 105.300781 351.894531 C 104.917969 352.46875 104.683594 352.980469 104.566406 353.449219 C 102.585938 354.683594 99.839844 357.148438 101.21875 360.796875 C 101.710938 359.8125 102.875 357.398438 107.023438 356.488281 C 115.722656 359.109375 143.792969 352.886719 143.792969 352.886719 C 143.792969 352.886719 150.503906 360.0625 154.542969 357.207031 C 157.253906 358.066406 158.078125 359.773438 158.445312 360.511719 C 159.570312 357.539062 157.351562 355.527344 155.730469 354.507812 Z M 155.730469 354.507812 " fill-opacity="1" fill-rule="nonzero"/></g><path fill="#005995" d="M 340.722656 173.160156 C 340.871094 171.824219 348.277344 161.335938 341.011719 159.742188 C 339.226562 136.003906 325.207031 119.136719 308.945312 118.492188 C 294.152344 117.90625 289.394531 123.011719 287.960938 125.488281 C 287.960938 125.488281 268.367188 128.722656 266.648438 146.296875 C 265.011719 163.027344 239.195312 140.183594 217.871094 146.820312 C 207.320312 143.21875 195.171875 141.707031 181.410156 142.945312 C 170.320312 143.941406 160.777344 146.964844 152.714844 151.523438 C 151.667969 151.042969 150.484375 150.691406 149.136719 150.496094 C 125.242188 147.03125 105.683594 180.285156 98.914062 163.980469 C 92.140625 147.671875 98.917969 121.542969 98.917969 121.542969 C 87.613281 94.683594 44.320312 117.320312 72.457031 150.292969 C 70.367188 148.34375 64.324219 144.851562 50.347656 149.726562 C 34.980469 155.089844 26.488281 175.316406 31.707031 198.542969 C 25.222656 202.1875 35.363281 210.058594 35.898438 211.289062 C 30.917969 214.558594 30.527344 219.023438 41.703125 220.296875 C 32.574219 232.214844 52.875 229.449219 52.875 229.449219 C 52.875 229.449219 44.113281 236.386719 54.09375 238.113281 C 62.828125 239.625 69.53125 239.449219 69.53125 239.449219 C 69.53125 239.449219 59.386719 244.328125 69.71875 246.652344 C 76.167969 248.101562 95.382812 243.902344 110.230469 237.972656 C 112.65625 237 115.992188 235.160156 119.722656 232.710938 C 120.59375 238.664062 121.980469 244.574219 123.863281 250.320312 C 120.40625 248.089844 117.222656 246.601562 115.027344 246.765625 C 109.304688 247.195312 109.140625 253.984375 109.140625 253.984375 C 109.140625 253.984375 103.941406 249.886719 98.992188 253.570312 C 94.726562 256.75 98.71875 262.730469 98.71875 262.730469 C 98.71875 262.730469 86.53125 262.832031 87.582031 271.332031 C 89.410156 286.136719 128.011719 283.730469 128.011719 283.730469 C 133.789062 283.546875 137.710938 282.519531 140.335938 281.0625 C 143.453125 284.929688 146.886719 288.523438 150.640625 291.769531 C 148.300781 293.710938 145.851562 295.960938 144.050781 298.160156 C 140.867188 302.058594 143.316406 306.039062 146.875 306.679688 C 146.855469 314.511719 162.8125 322.625 170.832031 319.238281 C 173.546875 321.957031 179.113281 320.625 179.980469 315.277344 C 180.363281 312.914062 180.332031 310.207031 180.089844 307.527344 C 189.066406 309.972656 198.957031 310.882812 209.71875 309.878906 C 212.964844 309.574219 216.078125 309.050781 219.066406 308.332031 C 219.011719 311.175781 219.1875 314.058594 219.796875 316.519531 C 221.09375 321.777344 226.753906 322.652344 229.242188 319.71875 C 237.507812 322.441406 252.75 313.054688 252.09375 305.25 C 255.589844 304.320312 257.707031 300.152344 254.210938 296.53125 C 252.585938 294.847656 250.519531 293.164062 248.449219 291.644531 C 265.804688 273.925781 273.234375 246.003906 270.375 219.085938 C 273.144531 219.777344 275.558594 220.21875 277.402344 220.375 C 293.335938 221.714844 312.9375 220.125 318.683594 216.855469 C 327.890625 211.617188 316.761719 209.910156 316.761719 209.910156 C 316.761719 209.910156 323.226562 208.121094 331.140625 204.128906 C 340.183594 199.5625 329.777344 195.484375 329.777344 195.484375 C 329.777344 195.484375 350 192.203125 337.792969 183.46875 C 348.113281 178.988281 346.4375 174.832031 340.722656 173.160156 Z M 340.722656 173.160156 " fill-opacity="1" fill-rule="nonzero"/><path fill="#d33a22" d="M 191.746094 181.347656 C 191.746094 181.347656 191.75 181.351562 192.015625 181.796875 L 191.824219 181.746094 C 191.777344 181.488281 191.746094 181.347656 191.746094 181.347656 Z M 191.746094 181.347656 " fill-opacity="1" fill-rule="nonzero"/><path fill="#ffffff" d="M 151.421875 235.8125 C 151.429688 235.832031 151.429688 235.851562 151.433594 235.867188 C 151.429688 235.851562 151.425781 235.832031 151.421875 235.8125 Z M 151.421875 235.8125 " fill-opacity="1" fill-rule="nonzero"/><path fill="#ffffff" d="M 76.964844 157.191406 C 76.964844 157.191406 95 169.207031 84.039062 192.402344 C 73.078125 215.597656 57.800781 206.925781 57.800781 206.925781 C 57.800781 206.925781 65.179688 214.050781 60.734375 217.09375 C 66.351562 219.304688 65.605469 213.644531 65.605469 213.644531 C 65.605469 213.644531 85.019531 215.996094 92.621094 194.382812 C 96.984375 181.980469 99.957031 168.519531 76.964844 157.191406 Z M 76.964844 157.191406 " fill-opacity="1" fill-rule="nonzero"/><path fill="#d33a22" d="M 188.527344 191.734375 C 188.527344 191.734375 188.53125 191.738281 188.835938 192.253906 L 188.613281 192.195312 C 188.558594 191.898438 188.527344 191.734375 188.527344 191.734375 Z M 188.527344 191.734375 " fill-opacity="1" fill-rule="nonzero"/><path fill="#ffffff" d="M 254.121094 141.410156 C 255.414062 141.410156 256.457031 141.113281 256.925781 140.316406 C 259.546875 135.84375 239.046875 122.929688 239.046875 122.929688 L 229.078125 53.953125 C 213.910156 42.054688 197.863281 37.992188 183.152344 37.992188 C 177.273438 37.992188 171.609375 38.640625 166.300781 39.695312 C 144.917969 43.945312 126.949219 63.535156 128.617188 64.210938 C 129.058594 64.390625 129.582031 64.46875 130.152344 64.46875 C 133.929688 64.46875 139.910156 61.058594 139.910156 61.058594 C 139.910156 61.058594 125.175781 77.453125 124.675781 83.75 C 124.53125 85.609375 125.449219 86.261719 126.8125 86.261719 C 130.066406 86.261719 135.867188 82.539062 135.867188 82.539062 L 136.144531 111.777344 C 136.144531 111.777344 125.175781 141.875 125.175781 145.355469 C 125.175781 146.261719 125.566406 146.636719 126.214844 146.636719 C 129.199219 146.636719 137.589844 138.648438 137.589844 138.648438 C 137.589844 138.648438 127.988281 154.128906 130.636719 159.761719 C 131.03125 160.601562 131.90625 160.957031 133.105469 160.957031 C 139.957031 160.957031 157.460938 149.328125 157.460938 149.328125 C 157.460938 149.328125 145.621094 176.839844 155.472656 178.144531 C 155.902344 178.203125 156.347656 178.226562 156.800781 178.226562 C 168.1875 178.226562 186.101562 160.921875 186.101562 160.921875 C 186.101562 160.921875 200.503906 188.578125 215.902344 188.90625 C 215.980469 188.910156 216.0625 188.910156 216.140625 188.910156 C 231.296875 188.910156 230.800781 157.277344 230.800781 157.277344 C 230.800781 157.277344 244.582031 168.027344 253.410156 168.027344 C 254.257812 168.027344 255.0625 167.929688 255.804688 167.710938 C 264.246094 165.226562 244.875 139.058594 244.875 139.058594 C 244.875 139.058594 250.472656 141.410156 254.121094 141.410156 Z M 254.121094 141.410156 " fill-opacity="1" fill-rule="nonzero"/><path fill="#9d9d9c" d="M 255.714844 147.902344 C 255.25 147.113281 254.777344 146.335938 254.3125 145.589844 C 257.953125 145.53125 259.703125 143.847656 260.53125 142.429688 C 263.597656 137.199219 257.714844 131.523438 251.558594 126.664062 C 248.265625 124.0625 244.863281 121.742188 242.910156 120.453125 L 233.214844 53.355469 C 233.0625 52.289062 232.503906 51.324219 231.65625 50.664062 C 217.398438 39.480469 201.078125 33.808594 183.152344 33.808594 C 177.382812 33.808594 171.4375 34.410156 165.484375 35.59375 C 153.800781 37.917969 143.722656 44.25 137.324219 49.15625 C 134.085938 51.636719 130.996094 54.382812 128.621094 56.886719 C 124.894531 60.808594 124.460938 62.398438 124.351562 63.582031 C 124.164062 65.546875 125.246094 67.355469 127.042969 68.085938 C 127.472656 68.261719 127.929688 68.394531 128.410156 68.488281 C 121.695312 77.417969 120.679688 81.277344 120.507812 83.417969 C 120.304688 86.003906 121.253906 87.617188 122.085938 88.515625 C 122.898438 89.394531 124.378906 90.445312 126.8125 90.445312 C 128.355469 90.445312 130.09375 89.980469 131.75 89.347656 L 131.953125 111.058594 C 131.203125 113.132812 128.941406 119.40625 126.703125 125.898438 C 120.992188 142.480469 120.992188 144.277344 120.992188 145.355469 C 120.992188 148.519531 123.1875 150.820312 126.210938 150.820312 C 126.515625 150.820312 126.84375 150.800781 127.199219 150.746094 C 125.707031 155.390625 125.605469 158.890625 126.851562 161.542969 C 127.363281 162.625 128.992188 165.140625 133.105469 165.140625 C 137.3125 165.140625 143.933594 162.089844 149.589844 158.980469 L 149.554688 159.101562 C 146.886719 168.285156 146.660156 174.359375 148.847656 178.214844 C 150.144531 180.496094 152.300781 181.941406 154.921875 182.289062 C 155.527344 182.371094 156.15625 182.410156 156.796875 182.410156 C 166.394531 182.410156 178.75 172.949219 185.066406 167.5 C 186.722656 170.203125 189.082031 173.78125 191.953125 177.394531 C 200.09375 187.644531 208.121094 192.925781 215.8125 193.089844 C 215.921875 193.09375 216.03125 193.09375 216.136719 193.09375 C 219.972656 193.09375 223.476562 191.59375 226.269531 188.757812 C 231.976562 182.957031 233.960938 172.378906 234.640625 165.035156 C 239.882812 168.335938 247.332031 172.210938 253.410156 172.210938 C 254.679688 172.210938 255.882812 172.046875 256.980469 171.722656 C 259.265625 171.050781 260.933594 169.457031 261.679688 167.230469 C 262.601562 164.484375 262.753906 159.804688 255.714844 147.902344 Z M 255.800781 167.710938 C 255.0625 167.929688 254.257812 168.027344 253.410156 168.027344 C 244.582031 168.027344 230.800781 157.277344 230.800781 157.277344 C 230.800781 157.277344 231.296875 188.910156 216.136719 188.910156 C 216.058594 188.910156 215.980469 188.910156 215.902344 188.90625 C 200.503906 188.578125 186.101562 160.921875 186.101562 160.921875 C 186.101562 160.921875 168.183594 178.226562 156.800781 178.226562 C 156.347656 178.226562 155.902344 178.203125 155.472656 178.144531 C 145.617188 176.839844 157.457031 149.328125 157.457031 149.328125 C 157.457031 149.328125 139.957031 160.957031 133.105469 160.957031 C 131.90625 160.957031 131.03125 160.601562 130.636719 159.761719 C 127.988281 154.128906 137.589844 138.648438 137.589844 138.648438 C 137.589844 138.648438 129.199219 146.636719 126.210938 146.636719 C 125.566406 146.636719 125.171875 146.261719 125.171875 145.355469 C 125.171875 141.875 136.140625 111.777344 136.140625 111.777344 L 135.867188 82.539062 C 135.867188 82.539062 130.066406 86.261719 126.8125 86.261719 C 125.449219 86.261719 124.53125 85.609375 124.675781 83.75 C 125.171875 77.453125 139.90625 61.058594 139.90625 61.058594 C 139.90625 61.058594 133.929688 64.46875 130.152344 64.46875 C 129.582031 64.46875 129.058594 64.390625 128.617188 64.210938 C 126.949219 63.535156 144.914062 43.945312 166.296875 39.695312 C 171.609375 38.640625 177.273438 37.992188 183.152344 37.992188 C 197.863281 37.992188 213.90625 42.054688 229.078125 53.953125 L 239.046875 122.929688 C 239.046875 122.929688 259.546875 135.84375 256.925781 140.316406 C 256.457031 141.113281 255.414062 141.410156 254.121094 141.410156 C 250.472656 141.410156 244.875 139.058594 244.875 139.058594 C 244.875 139.058594 264.246094 165.226562 255.800781 167.710938 Z M 255.800781 167.710938 " fill-opacity="1" fill-rule="nonzero"/><path fill="#d6d6d6" d="M 224.949219 100.941406 C 228.976562 97.835938 232.292969 89.046875 229.644531 75.964844 C 226.996094 62.882812 217.535156 52.558594 207 51.605469 C 195.8125 50.597656 197.980469 76.097656 191.671875 76.097656 C 186.710938 76.097656 182.679688 65.945312 175.449219 60.53125 C 169.78125 56.292969 163.386719 56.566406 155.355469 64.488281 C 143.222656 76.460938 141.730469 86.398438 144.378906 94.347656 C 147.027344 102.296875 159.304688 115.183594 177.433594 110.960938 C 195.5625 106.738281 192.566406 97.808594 201.109375 95.640625 C 209.652344 93.472656 217.003906 107.066406 224.949219 100.941406 Z M 224.949219 100.941406 " fill-opacity="1" fill-rule="nonzero"/><path fill="#ffffff" d="M 182.78125 81.980469 C 182.949219 82.558594 183.097656 83.144531 183.222656 83.734375 C 183.347656 84.320312 183.449219 84.914062 183.527344 85.503906 C 183.605469 86.097656 183.664062 86.691406 183.695312 87.28125 C 183.730469 87.871094 183.738281 88.460938 183.726562 89.042969 C 183.714844 89.628906 183.679688 90.203125 183.617188 90.773438 C 183.558594 91.347656 183.476562 91.90625 183.375 92.460938 C 183.269531 93.011719 183.144531 93.554688 182.992188 94.082031 C 182.84375 94.609375 182.675781 95.125 182.484375 95.625 C 182.289062 96.125 182.078125 96.605469 181.84375 97.074219 C 181.613281 97.539062 181.359375 97.988281 181.085938 98.414062 C 180.816406 98.84375 180.523438 99.25 180.214844 99.632812 C 179.90625 100.019531 179.582031 100.382812 179.242188 100.722656 C 178.898438 101.0625 178.542969 101.378906 178.171875 101.667969 C 177.796875 101.957031 177.414062 102.222656 177.015625 102.460938 C 176.617188 102.699219 176.207031 102.910156 175.785156 103.09375 C 175.363281 103.277344 174.933594 103.433594 174.492188 103.5625 C 174.054688 103.691406 173.609375 103.789062 173.152344 103.859375 C 172.699219 103.929688 172.242188 103.972656 171.777344 103.984375 C 171.3125 103.996094 170.84375 103.980469 170.375 103.933594 C 169.90625 103.886719 169.4375 103.8125 168.964844 103.710938 C 168.496094 103.605469 168.027344 103.472656 167.558594 103.3125 C 167.09375 103.152344 166.628906 102.964844 166.167969 102.75 C 165.710938 102.535156 165.257812 102.292969 164.8125 102.023438 C 164.363281 101.757812 163.925781 101.464844 163.496094 101.144531 C 163.066406 100.824219 162.648438 100.480469 162.238281 100.117188 C 161.828125 99.75 161.433594 99.359375 161.046875 98.949219 C 160.664062 98.539062 160.292969 98.109375 159.9375 97.660156 C 159.582031 97.210938 159.242188 96.742188 158.917969 96.253906 C 158.597656 95.769531 158.289062 95.265625 158 94.75 C 157.710938 94.234375 157.441406 93.703125 157.191406 93.160156 C 156.941406 92.617188 156.710938 92.066406 156.5 91.5 C 156.289062 90.9375 156.101562 90.367188 155.933594 89.785156 C 155.765625 89.207031 155.617188 88.625 155.492188 88.035156 C 155.371094 87.445312 155.265625 86.855469 155.1875 86.261719 C 155.109375 85.671875 155.050781 85.078125 155.019531 84.488281 C 154.984375 83.894531 154.976562 83.308594 154.988281 82.726562 C 155 82.140625 155.039062 81.5625 155.097656 80.992188 C 155.15625 80.421875 155.238281 79.859375 155.339844 79.308594 C 155.445312 78.753906 155.570312 78.214844 155.722656 77.6875 C 155.871094 77.15625 156.039062 76.644531 156.230469 76.144531 C 156.425781 75.644531 156.636719 75.160156 156.871094 74.695312 C 157.101562 74.230469 157.355469 73.78125 157.628906 73.355469 C 157.898438 72.925781 158.191406 72.519531 158.5 72.132812 C 158.808594 71.746094 159.132812 71.386719 159.472656 71.046875 C 159.816406 70.707031 160.171875 70.390625 160.546875 70.101562 C 160.917969 69.808594 161.300781 69.546875 161.699219 69.308594 C 162.097656 69.070312 162.507812 68.859375 162.929688 68.675781 C 163.351562 68.488281 163.78125 68.335938 164.222656 68.207031 C 164.660156 68.078125 165.109375 67.980469 165.5625 67.910156 C 166.015625 67.839844 166.476562 67.796875 166.9375 67.785156 C 167.402344 67.773438 167.871094 67.789062 168.339844 67.835938 C 168.808594 67.878906 169.277344 67.953125 169.75 68.058594 C 170.21875 68.160156 170.6875 68.292969 171.15625 68.453125 C 171.625 68.613281 172.085938 68.800781 172.546875 69.015625 C 173.003906 69.234375 173.457031 69.472656 173.902344 69.742188 C 174.351562 70.011719 174.789062 70.304688 175.21875 70.625 C 175.648438 70.941406 176.066406 71.285156 176.476562 71.652344 C 176.886719 72.019531 177.28125 72.40625 177.667969 72.816406 C 178.050781 73.226562 178.421875 73.660156 178.777344 74.109375 C 179.132812 74.558594 179.472656 75.027344 179.796875 75.511719 C 180.117188 76 180.425781 76.5 180.714844 77.019531 C 181.003906 77.535156 181.273438 78.066406 181.523438 78.605469 C 181.773438 79.148438 182.003906 79.703125 182.214844 80.265625 C 182.425781 80.832031 182.613281 81.402344 182.78125 81.980469 Z M 182.78125 81.980469 " fill-opacity="1" fill-rule="nonzero"/><path fill="#99bdd5" d="M 180.320312 85.339844 C 180.519531 86.199219 180.65625 87.0625 180.730469 87.929688 C 180.804688 88.800781 180.816406 89.65625 180.769531 90.503906 C 180.71875 91.347656 180.609375 92.167969 180.433594 92.957031 C 180.261719 93.75 180.03125 94.496094 179.742188 95.203125 C 179.453125 95.90625 179.113281 96.554688 178.71875 97.148438 C 178.324219 97.742188 177.886719 98.265625 177.402344 98.722656 C 176.917969 99.179688 176.398438 99.558594 175.84375 99.863281 C 175.285156 100.167969 174.707031 100.390625 174.101562 100.527344 C 173.496094 100.667969 172.875 100.722656 172.242188 100.691406 C 171.609375 100.660156 170.976562 100.546875 170.34375 100.34375 C 169.707031 100.144531 169.082031 99.867188 168.46875 99.503906 C 167.855469 99.144531 167.265625 98.707031 166.699219 98.199219 C 166.132812 97.691406 165.597656 97.121094 165.097656 96.484375 C 164.597656 95.847656 164.140625 95.160156 163.726562 94.421875 C 163.3125 93.679688 162.949219 92.902344 162.636719 92.089844 C 162.328125 91.273438 162.070312 90.4375 161.875 89.582031 C 161.679688 88.722656 161.542969 87.859375 161.464844 86.992188 C 161.390625 86.121094 161.378906 85.265625 161.429688 84.417969 C 161.476562 83.574219 161.589844 82.753906 161.761719 81.964844 C 161.933594 81.171875 162.164062 80.425781 162.453125 79.71875 C 162.742188 79.015625 163.085938 78.363281 163.476562 77.773438 C 163.871094 77.179688 164.3125 76.65625 164.796875 76.199219 C 165.28125 75.742188 165.800781 75.359375 166.355469 75.058594 C 166.910156 74.753906 167.492188 74.53125 168.097656 74.390625 C 168.703125 74.253906 169.320312 74.199219 169.953125 74.230469 C 170.585938 74.261719 171.21875 74.375 171.855469 74.574219 C 172.488281 74.777344 173.113281 75.054688 173.726562 75.417969 C 174.339844 75.777344 174.929688 76.210938 175.496094 76.722656 C 176.066406 77.230469 176.597656 77.800781 177.097656 78.4375 C 177.601562 79.074219 178.058594 79.761719 178.472656 80.5 C 178.886719 81.242188 179.246094 82.019531 179.558594 82.832031 C 179.871094 83.648438 180.125 84.484375 180.320312 85.339844 Z M 180.320312 85.339844 " fill-opacity="1" fill-rule="nonzero"/><path fill="#002d4b" d="M 176.882812 86.175781 C 177.007812 86.726562 177.09375 87.28125 177.144531 87.839844 C 177.191406 88.394531 177.199219 88.945312 177.164062 89.488281 C 177.128906 90.03125 177.058594 90.554688 176.945312 91.0625 C 176.832031 91.570312 176.679688 92.050781 176.492188 92.503906 C 176.304688 92.957031 176.082031 93.375 175.828125 93.753906 C 175.570312 94.132812 175.285156 94.472656 174.972656 94.765625 C 174.65625 95.058594 174.320312 95.304688 173.960938 95.5 C 173.597656 95.695312 173.222656 95.839844 172.832031 95.929688 C 172.4375 96.019531 172.035156 96.054688 171.628906 96.035156 C 171.21875 96.015625 170.808594 95.945312 170.394531 95.816406 C 169.984375 95.691406 169.582031 95.511719 169.183594 95.28125 C 168.789062 95.050781 168.40625 94.773438 168.039062 94.445312 C 167.671875 94.121094 167.328125 93.753906 167.003906 93.347656 C 166.683594 92.941406 166.386719 92.5 166.121094 92.027344 C 165.851562 91.550781 165.621094 91.054688 165.417969 90.53125 C 165.21875 90.011719 165.054688 89.476562 164.929688 88.925781 C 164.800781 88.375 164.714844 87.820312 164.667969 87.261719 C 164.621094 86.707031 164.613281 86.15625 164.648438 85.613281 C 164.679688 85.070312 164.753906 84.546875 164.867188 84.039062 C 164.980469 83.53125 165.128906 83.050781 165.316406 82.597656 C 165.507812 82.144531 165.726562 81.726562 165.984375 81.347656 C 166.242188 80.96875 166.527344 80.628906 166.839844 80.335938 C 167.152344 80.042969 167.492188 79.796875 167.851562 79.601562 C 168.210938 79.40625 168.589844 79.261719 168.980469 79.171875 C 169.375 79.082031 169.773438 79.046875 170.183594 79.066406 C 170.59375 79.085938 171.003906 79.15625 171.414062 79.285156 C 171.824219 79.410156 172.230469 79.589844 172.625 79.820312 C 173.023438 80.050781 173.402344 80.328125 173.769531 80.65625 C 174.136719 80.980469 174.484375 81.347656 174.804688 81.753906 C 175.128906 82.160156 175.425781 82.601562 175.691406 83.074219 C 175.957031 83.550781 176.191406 84.046875 176.390625 84.570312 C 176.59375 85.089844 176.757812 85.625 176.882812 86.175781 Z M 176.882812 86.175781 " fill-opacity="1" fill-rule="nonzero"/><path fill="#ffffff" d="M 174.855469 83.253906 C 174.808594 83.261719 174.765625 83.277344 174.71875 83.285156 C 172.375 83.714844 170.125 82.160156 169.695312 79.816406 C 169.640625 79.523438 169.617188 79.234375 169.625 78.949219 C 169.660156 77.023438 170.992188 75.316406 172.914062 74.847656 C 172.996094 74.828125 173.078125 74.804688 173.164062 74.789062 C 175.507812 74.359375 177.761719 75.910156 178.1875 78.257812 C 178.335938 79.058594 178.246094 79.847656 177.976562 80.558594 C 177.476562 81.886719 176.332031 82.933594 174.855469 83.253906 Z M 174.855469 83.253906 " fill-opacity="1" fill-rule="nonzero"/><path fill="#ffffff" d="M 226.375 75.847656 C 226.542969 76.425781 226.6875 77.011719 226.8125 77.601562 C 226.9375 78.1875 227.039062 78.777344 227.117188 79.371094 C 227.195312 79.964844 227.253906 80.558594 227.285156 81.148438 C 227.320312 81.738281 227.328125 82.328125 227.316406 82.910156 C 227.304688 83.492188 227.269531 84.070312 227.210938 84.640625 C 227.152344 85.214844 227.070312 85.773438 226.964844 86.328125 C 226.859375 86.878906 226.734375 87.421875 226.585938 87.949219 C 226.4375 88.476562 226.265625 88.992188 226.074219 89.492188 C 225.882812 89.992188 225.667969 90.472656 225.4375 90.941406 C 225.203125 91.40625 224.949219 91.851562 224.679688 92.28125 C 224.40625 92.710938 224.117188 93.117188 223.808594 93.5 C 223.5 93.886719 223.171875 94.25 222.832031 94.589844 C 222.488281 94.929688 222.132812 95.246094 221.761719 95.535156 C 221.390625 95.824219 221.003906 96.089844 220.605469 96.328125 C 220.207031 96.566406 219.796875 96.777344 219.375 96.960938 C 218.953125 97.144531 218.523438 97.300781 218.085938 97.429688 C 217.644531 97.558594 217.199219 97.65625 216.746094 97.726562 C 216.289062 97.796875 215.832031 97.839844 215.367188 97.851562 C 214.902344 97.863281 214.4375 97.847656 213.964844 97.800781 C 213.496094 97.753906 213.027344 97.679688 212.554688 97.578125 C 212.085938 97.472656 211.617188 97.339844 211.148438 97.179688 C 210.683594 97.019531 210.21875 96.832031 209.761719 96.617188 C 209.300781 96.402344 208.847656 96.160156 208.402344 95.890625 C 207.957031 95.625 207.515625 95.328125 207.085938 95.011719 C 206.65625 94.691406 206.238281 94.347656 205.828125 93.984375 C 205.421875 93.617188 205.023438 93.226562 204.640625 92.816406 C 204.253906 92.40625 203.886719 91.976562 203.53125 91.527344 C 203.175781 91.078125 202.835938 90.609375 202.511719 90.121094 C 202.1875 89.636719 201.878906 89.132812 201.59375 88.617188 C 201.304688 88.101562 201.035156 87.570312 200.78125 87.027344 C 200.53125 86.484375 200.300781 85.933594 200.089844 85.367188 C 199.878906 84.804688 199.691406 84.234375 199.523438 83.652344 C 199.355469 83.074219 199.207031 82.492188 199.085938 81.902344 C 198.960938 81.3125 198.859375 80.722656 198.777344 80.128906 C 198.699219 79.539062 198.644531 78.945312 198.609375 78.355469 C 198.578125 77.761719 198.566406 77.175781 198.578125 76.59375 C 198.59375 76.007812 198.628906 75.429688 198.6875 74.859375 C 198.746094 74.289062 198.828125 73.726562 198.933594 73.175781 C 199.035156 72.621094 199.164062 72.082031 199.3125 71.554688 C 199.460938 71.023438 199.632812 70.511719 199.824219 70.011719 C 200.015625 69.511719 200.226562 69.027344 200.460938 68.5625 C 200.695312 68.097656 200.945312 67.648438 201.21875 67.222656 C 201.492188 66.792969 201.78125 66.386719 202.089844 66 C 202.398438 65.613281 202.722656 65.253906 203.066406 64.914062 C 203.40625 64.574219 203.765625 64.257812 204.136719 63.96875 C 204.507812 63.675781 204.894531 63.414062 205.292969 63.175781 C 205.691406 62.9375 206.097656 62.726562 206.519531 62.542969 C 206.941406 62.355469 207.371094 62.203125 207.8125 62.074219 C 208.25 61.945312 208.699219 61.847656 209.152344 61.777344 C 209.605469 61.707031 210.066406 61.664062 210.53125 61.652344 C 210.992188 61.640625 211.460938 61.65625 211.929688 61.703125 C 212.398438 61.746094 212.871094 61.820312 213.339844 61.925781 C 213.8125 62.027344 214.28125 62.160156 214.746094 62.320312 C 215.214844 62.480469 215.675781 62.667969 216.136719 62.882812 C 216.59375 63.101562 217.046875 63.339844 217.496094 63.609375 C 217.941406 63.878906 218.378906 64.171875 218.808594 64.492188 C 219.238281 64.808594 219.660156 65.152344 220.066406 65.519531 C 220.476562 65.886719 220.875 66.273438 221.257812 66.683594 C 221.640625 67.09375 222.011719 67.527344 222.367188 67.976562 C 222.722656 68.425781 223.0625 68.894531 223.386719 69.378906 C 223.710938 69.867188 224.015625 70.367188 224.304688 70.882812 C 224.59375 71.402344 224.863281 71.929688 225.113281 72.472656 C 225.363281 73.015625 225.59375 73.570312 225.804688 74.132812 C 226.015625 74.699219 226.207031 75.269531 226.375 75.847656 Z M 226.375 75.847656 " fill-opacity="1" fill-rule="nonzero"/><path fill="#99bdd5" d="M 221.121094 78.507812 C 221.316406 79.367188 221.453125 80.230469 221.527344 81.101562 C 221.605469 81.96875 221.617188 82.824219 221.566406 83.671875 C 221.519531 84.519531 221.40625 85.335938 221.234375 86.128906 C 221.0625 86.917969 220.832031 87.667969 220.542969 88.371094 C 220.253906 89.078125 219.910156 89.726562 219.515625 90.316406 C 219.125 90.910156 218.683594 91.433594 218.199219 91.890625 C 217.714844 92.347656 217.195312 92.730469 216.640625 93.03125 C 216.085938 93.335938 215.503906 93.558594 214.898438 93.699219 C 214.292969 93.835938 213.675781 93.890625 213.042969 93.859375 C 212.410156 93.828125 211.777344 93.714844 211.140625 93.515625 C 210.507812 93.316406 209.882812 93.035156 209.269531 92.671875 C 208.65625 92.3125 208.066406 91.878906 207.496094 91.371094 C 206.929688 90.859375 206.394531 90.289062 205.894531 89.652344 C 205.394531 89.015625 204.9375 88.328125 204.523438 87.589844 C 204.109375 86.851562 203.746094 86.074219 203.4375 85.257812 C 203.125 84.445312 202.871094 83.609375 202.671875 82.75 C 202.476562 81.890625 202.339844 81.027344 202.265625 80.160156 C 202.191406 79.289062 202.175781 78.433594 202.226562 77.585938 C 202.277344 76.742188 202.386719 75.921875 202.558594 75.132812 C 202.734375 74.339844 202.964844 73.59375 203.253906 72.886719 C 203.542969 72.183594 203.882812 71.535156 204.277344 70.941406 C 204.671875 70.347656 205.109375 69.824219 205.59375 69.367188 C 206.078125 68.910156 206.597656 68.53125 207.152344 68.226562 C 207.707031 67.921875 208.289062 67.699219 208.894531 67.5625 C 209.5 67.421875 210.121094 67.367188 210.753906 67.398438 C 211.382812 67.429688 212.019531 67.546875 212.652344 67.746094 C 213.289062 67.945312 213.914062 68.226562 214.523438 68.585938 C 215.136719 68.945312 215.730469 69.382812 216.296875 69.890625 C 216.863281 70.398438 217.398438 70.96875 217.898438 71.605469 C 218.398438 72.242188 218.855469 72.929688 219.269531 73.671875 C 219.683594 74.410156 220.046875 75.1875 220.359375 76 C 220.667969 76.816406 220.921875 77.652344 221.121094 78.507812 Z M 221.121094 78.507812 " fill-opacity="1" fill-rule="nonzero"/><path fill="#002d4b" d="M 217.085938 79.90625 C 217.214844 80.457031 217.300781 81.011719 217.347656 81.566406 C 217.394531 82.125 217.402344 82.675781 217.367188 83.21875 C 217.335938 83.761719 217.261719 84.285156 217.148438 84.792969 C 217.035156 85.300781 216.886719 85.78125 216.699219 86.234375 C 216.507812 86.6875 216.289062 87.101562 216.03125 87.484375 C 215.773438 87.863281 215.488281 88.203125 215.175781 88.496094 C 214.863281 88.789062 214.523438 89.035156 214.164062 89.230469 C 213.804688 89.425781 213.425781 89.570312 213.035156 89.660156 C 212.644531 89.75 212.242188 89.785156 211.832031 89.765625 C 211.421875 89.746094 211.011719 89.675781 210.601562 89.546875 C 210.191406 89.417969 209.785156 89.242188 209.390625 89.011719 C 208.992188 88.78125 208.613281 88.5 208.246094 88.175781 C 207.878906 87.851562 207.535156 87.484375 207.210938 87.078125 C 206.886719 86.671875 206.59375 86.230469 206.324219 85.757812 C 206.058594 85.28125 205.824219 84.785156 205.625 84.261719 C 205.421875 83.742188 205.261719 83.203125 205.132812 82.65625 C 205.007812 82.105469 204.921875 81.550781 204.871094 80.992188 C 204.824219 80.4375 204.820312 79.886719 204.851562 79.34375 C 204.886719 78.800781 204.957031 78.277344 205.070312 77.769531 C 205.183594 77.261719 205.335938 76.78125 205.523438 76.328125 C 205.710938 75.875 205.933594 75.457031 206.191406 75.078125 C 206.445312 74.695312 206.730469 74.359375 207.046875 74.066406 C 207.359375 73.773438 207.695312 73.527344 208.058594 73.332031 C 208.417969 73.136719 208.792969 72.992188 209.1875 72.902344 C 209.578125 72.8125 209.980469 72.777344 210.390625 72.796875 C 210.796875 72.8125 211.207031 72.886719 211.621094 73.015625 C 212.03125 73.140625 212.433594 73.320312 212.832031 73.550781 C 213.226562 73.78125 213.609375 74.058594 213.976562 74.386719 C 214.34375 74.710938 214.6875 75.078125 215.011719 75.484375 C 215.332031 75.890625 215.628906 76.332031 215.894531 76.804688 C 216.164062 77.277344 216.398438 77.777344 216.597656 78.296875 C 216.796875 78.820312 216.960938 79.355469 217.085938 79.90625 Z M 217.085938 79.90625 " fill-opacity="1" fill-rule="nonzero"/><path fill="#ffffff" d="M 213.699219 76.421875 C 213.65625 76.433594 213.609375 76.445312 213.566406 76.453125 C 211.21875 76.882812 208.96875 75.332031 208.539062 72.984375 C 208.484375 72.691406 208.464844 72.402344 208.46875 72.117188 C 208.503906 70.191406 209.835938 68.484375 211.757812 68.015625 C 211.839844 67.996094 211.921875 67.972656 212.007812 67.957031 C 214.355469 67.527344 216.605469 69.082031 217.035156 71.425781 C 217.179688 72.230469 217.089844 73.015625 216.824219 73.726562 C 216.320312 75.054688 215.175781 76.101562 213.699219 76.421875 Z M 213.699219 76.421875 " fill-opacity="1" fill-rule="nonzero"/><path fill="#e30613" d="M 230.53125 91.359375 C 230.546875 91.492188 230.527344 91.625 230.472656 91.765625 C 230.414062 91.90625 230.320312 92.046875 230.1875 92.191406 C 230.058594 92.332031 229.894531 92.476562 229.695312 92.613281 C 229.496094 92.753906 229.265625 92.890625 229.007812 93.019531 C 228.746094 93.152344 228.460938 93.277344 228.152344 93.394531 C 227.839844 93.511719 227.511719 93.621094 227.160156 93.722656 C 226.8125 93.824219 226.449219 93.910156 226.074219 93.988281 C 225.699219 94.070312 225.320312 94.132812 224.933594 94.1875 C 224.546875 94.242188 224.164062 94.28125 223.78125 94.308594 C 223.398438 94.335938 223.027344 94.347656 222.664062 94.347656 C 222.300781 94.34375 221.953125 94.328125 221.621094 94.300781 C 221.289062 94.273438 220.980469 94.230469 220.695312 94.171875 C 220.410156 94.117188 220.152344 94.050781 219.921875 93.96875 C 219.695312 93.890625 219.496094 93.796875 219.332031 93.695312 C 219.167969 93.59375 219.039062 93.484375 218.945312 93.363281 C 218.851562 93.246094 218.796875 93.121094 218.777344 92.988281 C 218.761719 92.855469 218.777344 92.71875 218.835938 92.578125 C 218.894531 92.4375 218.988281 92.296875 219.117188 92.152344 C 219.25 92.011719 219.414062 91.871094 219.613281 91.730469 C 219.8125 91.589844 220.042969 91.457031 220.300781 91.324219 C 220.5625 91.191406 220.847656 91.066406 221.15625 90.949219 C 221.46875 90.832031 221.796875 90.722656 222.148438 90.621094 C 222.496094 90.523438 222.859375 90.433594 223.234375 90.355469 C 223.609375 90.277344 223.988281 90.210938 224.375 90.15625 C 224.761719 90.105469 225.144531 90.0625 225.527344 90.039062 C 225.910156 90.011719 226.28125 90 226.644531 90 C 227.007812 90 227.355469 90.015625 227.6875 90.042969 C 228.015625 90.074219 228.324219 90.117188 228.613281 90.171875 C 228.898438 90.226562 229.15625 90.296875 229.382812 90.375 C 229.613281 90.457031 229.8125 90.546875 229.976562 90.648438 C 230.140625 90.75 230.269531 90.859375 230.363281 90.980469 C 230.457031 91.101562 230.511719 91.226562 230.53125 91.359375 Z M 230.53125 91.359375 " fill-opacity="1" fill-rule="nonzero"/><path fill="#e30613" d="M 167.617188 99.640625 C 167.636719 99.773438 167.617188 99.910156 167.558594 100.050781 C 167.5 100.191406 167.40625 100.332031 167.277344 100.476562 C 167.144531 100.617188 166.980469 100.757812 166.78125 100.898438 C 166.582031 101.039062 166.355469 101.171875 166.09375 101.304688 C 165.832031 101.4375 165.546875 101.5625 165.238281 101.679688 C 164.925781 101.796875 164.597656 101.90625 164.246094 102.007812 C 163.898438 102.105469 163.535156 102.195312 163.160156 102.273438 C 162.785156 102.351562 162.40625 102.417969 162.019531 102.472656 C 161.636719 102.523438 161.25 102.566406 160.867188 102.589844 C 160.488281 102.617188 160.113281 102.632812 159.75 102.628906 C 159.386719 102.628906 159.039062 102.613281 158.710938 102.585938 C 158.378906 102.554688 158.070312 102.511719 157.785156 102.457031 C 157.5 102.402344 157.242188 102.332031 157.011719 102.253906 C 156.78125 102.171875 156.585938 102.082031 156.417969 101.980469 C 156.253906 101.878906 156.125 101.769531 156.03125 101.648438 C 155.941406 101.527344 155.882812 101.402344 155.867188 101.269531 C 155.847656 101.136719 155.867188 101.003906 155.925781 100.863281 C 155.980469 100.722656 156.074219 100.582031 156.207031 100.4375 C 156.335938 100.296875 156.5 100.152344 156.699219 100.015625 C 156.898438 99.875 157.128906 99.738281 157.390625 99.609375 C 157.648438 99.476562 157.933594 99.351562 158.246094 99.234375 C 158.554688 99.117188 158.886719 99.007812 159.234375 98.90625 C 159.585938 98.804688 159.945312 98.71875 160.320312 98.640625 C 160.695312 98.5625 161.078125 98.496094 161.460938 98.441406 C 161.847656 98.386719 162.230469 98.347656 162.613281 98.320312 C 162.996094 98.292969 163.367188 98.28125 163.730469 98.28125 C 164.09375 98.285156 164.441406 98.300781 164.773438 98.328125 C 165.105469 98.355469 165.414062 98.398438 165.699219 98.457031 C 165.984375 98.511719 166.242188 98.578125 166.472656 98.660156 C 166.703125 98.738281 166.898438 98.832031 167.0625 98.933594 C 167.226562 99.035156 167.355469 99.144531 167.449219 99.265625 C 167.542969 99.382812 167.597656 99.507812 167.617188 99.640625 Z M 167.617188 99.640625 " fill-opacity="1" fill-rule="nonzero"/><path fill="#f29222" d="M 217.496094 120.039062 C 217.496094 120.039062 211.867188 107.566406 227.742188 105.917969 C 229.140625 100.09375 223.277344 92.316406 215.8125 89.097656 C 197.78125 81.324219 191.390625 100.195312 181.265625 104.5 C 177.667969 106.03125 174.027344 105.496094 174.027344 105.496094 C 174.027344 105.496094 166.996094 102.578125 166.074219 106.09375 C 164.792969 110.964844 172.773438 112.78125 172.773438 112.78125 C 178.9375 136.746094 189.179688 141.363281 196.585938 143.695312 C 209.039062 147.605469 229.953125 135.550781 217.496094 120.039062 Z M 217.496094 120.039062 " fill-opacity="1" fill-rule="nonzero"/><path fill="#002d4b" d="M 219.96875 101.394531 C 212.75 97.328125 206.195312 116.546875 178.457031 114.171875 C 182.425781 122.542969 188.910156 127.707031 195.484375 129.535156 C 211.589844 134.011719 216.953125 126.125 217.550781 120.46875 C 217.550781 120.46875 212.460938 118.199219 213.832031 109.089844 C 214.417969 105.175781 219.96875 101.394531 219.96875 101.394531 Z M 219.96875 101.394531 " fill-opacity="1" fill-rule="nonzero"/><path fill="#e20613" d="M 188.527344 124.496094 C 189.953125 125.984375 193.210938 129.152344 202.753906 129.878906 C 202.753906 129.878906 200.082031 119.484375 188.527344 124.496094 Z M 188.527344 124.496094 " fill-opacity="1" fill-rule="nonzero"/><path fill="#ffffff" d="M 211.890625 90.394531 C 212.40625 90.566406 212.914062 90.753906 213.40625 90.953125 C 213.902344 91.15625 214.378906 91.371094 214.832031 91.59375 C 215.289062 91.816406 215.714844 92.046875 216.113281 92.285156 C 216.511719 92.519531 216.875 92.757812 217.199219 93 C 217.523438 93.242188 217.804688 93.480469 218.046875 93.714844 C 218.285156 93.949219 218.480469 94.179688 218.625 94.402344 C 218.769531 94.621094 218.867188 94.832031 218.910156 95.03125 C 218.957031 95.230469 218.953125 95.410156 218.894531 95.582031 C 218.839844 95.75 218.734375 95.898438 218.578125 96.027344 C 218.421875 96.160156 218.21875 96.269531 217.96875 96.359375 C 217.722656 96.449219 217.429688 96.515625 217.097656 96.558594 C 216.761719 96.605469 216.394531 96.625 215.988281 96.621094 C 215.585938 96.617188 215.152344 96.589844 214.691406 96.542969 C 214.230469 96.492188 213.753906 96.417969 213.253906 96.324219 C 212.753906 96.230469 212.246094 96.113281 211.730469 95.976562 C 211.214844 95.839844 210.695312 95.6875 210.179688 95.511719 C 209.664062 95.339844 209.160156 95.152344 208.664062 94.953125 C 208.167969 94.75 207.695312 94.535156 207.238281 94.3125 C 206.78125 94.089844 206.355469 93.859375 205.957031 93.621094 C 205.558594 93.386719 205.199219 93.148438 204.875 92.90625 C 204.546875 92.664062 204.265625 92.425781 204.027344 92.191406 C 203.785156 91.957031 203.59375 91.726562 203.445312 91.507812 C 203.300781 91.285156 203.207031 91.074219 203.160156 90.875 C 203.113281 90.679688 203.121094 90.496094 203.175781 90.328125 C 203.230469 90.160156 203.339844 90.007812 203.492188 89.878906 C 203.648438 89.746094 203.851562 89.636719 204.101562 89.546875 C 204.351562 89.457031 204.640625 89.390625 204.976562 89.347656 C 205.308594 89.304688 205.679688 89.28125 206.082031 89.285156 C 206.488281 89.289062 206.921875 89.316406 207.378906 89.367188 C 207.839844 89.414062 208.320312 89.488281 208.816406 89.582031 C 209.316406 89.679688 209.824219 89.792969 210.339844 89.929688 C 210.859375 90.066406 211.375 90.222656 211.890625 90.394531 Z M 211.890625 90.394531 " fill-opacity="1" fill-rule="nonzero"/><path fill="#ffffff" d="M 221.417969 96.113281 C 221.613281 96.195312 221.789062 96.300781 221.949219 96.425781 C 222.105469 96.554688 222.234375 96.695312 222.332031 96.851562 C 222.429688 97.003906 222.492188 97.160156 222.511719 97.320312 C 222.535156 97.476562 222.515625 97.625 222.460938 97.761719 C 222.402344 97.898438 222.3125 98.015625 222.183594 98.113281 C 222.054688 98.207031 221.902344 98.277344 221.726562 98.316406 C 221.546875 98.355469 221.355469 98.363281 221.15625 98.34375 C 220.953125 98.320312 220.753906 98.269531 220.558594 98.1875 C 220.363281 98.105469 220.1875 98.003906 220.027344 97.875 C 219.867188 97.75 219.742188 97.605469 219.644531 97.453125 C 219.542969 97.296875 219.484375 97.140625 219.460938 96.984375 C 219.441406 96.828125 219.457031 96.679688 219.515625 96.542969 C 219.570312 96.402344 219.664062 96.285156 219.792969 96.191406 C 219.917969 96.09375 220.070312 96.027344 220.25 95.988281 C 220.429688 95.945312 220.617188 95.9375 220.820312 95.960938 C 221.023438 95.984375 221.222656 96.035156 221.417969 96.113281 Z M 221.417969 96.113281 " fill-opacity="1" fill-rule="nonzero"/><path fill="#002d4b" d="M 200.175781 64.703125 C 198.691406 66.421875 196.238281 64.214844 196.660156 62.363281 C 197.082031 60.511719 199.28125 52.425781 205.816406 51.179688 C 216.066406 49.21875 223.96875 59.222656 223.96875 59.222656 C 227.128906 62.289062 226.105469 64.609375 224.871094 63.789062 C 206.019531 51.289062 203 61.429688 200.175781 64.703125 Z M 200.175781 64.703125 " fill-opacity="1" fill-rule="nonzero"/><path fill="#002d4b" d="M 179.625 66.253906 C 180.890625 65.882812 179.710938 63.320312 179.710938 63.320312 C 178.382812 61.710938 171.558594 53.210938 163.75 54.4375 C 155.9375 55.660156 148.332031 65.613281 146.011719 69.996094 C 143.914062 73.96875 147.898438 75.152344 148.894531 73.960938 C 155.480469 66.0625 160.265625 63.292969 163.933594 62.671875 C 170.539062 61.558594 175.835938 67.351562 179.625 66.253906 Z M 179.625 66.253906 " fill-opacity="1" fill-rule="nonzero"/><path fill="#f29222" d="M 342.8125 76.015625 L 340.277344 31.113281 C 339.75 21.726562 331.710938 14.546875 322.324219 15.074219 L 265.890625 18.261719 C 256.503906 18.789062 249.328125 26.828125 249.855469 36.21875 L 252.390625 81.121094 C 252.917969 90.507812 260.957031 97.691406 270.34375 97.160156 L 293.742188 95.839844 L 294.1875 131.894531 C 297.09375 132.5625 298.828125 134.785156 299.398438 137.324219 L 305.492188 133.179688 L 304.972656 95.207031 L 326.777344 93.976562 C 336.160156 93.445312 343.34375 85.402344 342.8125 76.015625 Z M 342.8125 76.015625 " fill-opacity="1" fill-rule="nonzero"/><path fill="#f29222" d="M 310.070312 182.28125 C 305.097656 182.003906 300.847656 179.652344 297.898438 176.125 L 299.703125 200.648438 C 299.933594 203.742188 302.628906 206.066406 305.722656 205.839844 C 308.820312 205.613281 311.144531 202.917969 310.914062 199.820312 Z M 310.070312 182.28125 " fill-opacity="1" fill-rule="nonzero"/><path fill="#ffffff" d="M 316.203125 57.617188 C 315.828125 59.382812 315.242188 61.046875 314.449219 62.621094 C 313.65625 64.191406 312.636719 65.542969 311.390625 66.664062 C 310.140625 67.792969 308.679688 68.398438 307.007812 68.492188 C 305.636719 68.570312 304.421875 68.199219 303.363281 67.375 C 302.308594 66.554688 301.421875 65.527344 300.707031 64.300781 C 299.992188 63.070312 299.445312 61.757812 299.066406 60.359375 C 298.683594 58.960938 298.464844 57.703125 298.402344 56.589844 C 298.320312 55.171875 298.476562 53.574219 298.871094 51.789062 C 299.265625 50 299.871094 48.308594 300.683594 46.714844 C 301.496094 45.121094 302.527344 43.761719 303.773438 42.636719 C 305.023438 41.511719 306.484375 40.902344 308.15625 40.808594 C 309.527344 40.730469 310.734375 41.113281 311.769531 41.960938 C 312.804688 42.804688 313.671875 43.851562 314.367188 45.105469 C 315.058594 46.359375 315.597656 47.703125 315.980469 49.144531 C 316.363281 50.585938 316.585938 51.84375 316.644531 52.914062 C 316.722656 54.285156 316.574219 55.851562 316.203125 57.617188 Z M 324.582031 44.300781 C 323.800781 41.527344 322.648438 39.054688 321.128906 36.878906 C 319.605469 34.707031 317.671875 32.980469 315.320312 31.691406 C 312.964844 30.402344 310.140625 29.855469 306.839844 30.042969 C 304.910156 30.148438 303.078125 30.640625 301.339844 31.511719 C 299.605469 32.386719 298.011719 33.519531 296.566406 34.910156 C 295.117188 36.308594 293.832031 37.90625 292.707031 39.710938 C 291.582031 41.515625 290.636719 43.386719 289.863281 45.324219 C 289.089844 47.261719 288.523438 49.207031 288.160156 51.164062 C 287.796875 53.121094 287.664062 54.976562 287.765625 56.734375 C 287.90625 59.226562 288.46875 61.785156 289.457031 64.417969 C 290.445312 67.050781 291.78125 69.449219 293.476562 71.609375 C 295.167969 73.773438 297.167969 75.523438 299.480469 76.855469 C 301.789062 78.1875 304.339844 78.773438 307.128906 78.617188 C 310.429688 78.429688 313.300781 77.527344 315.75 75.90625 C 318.195312 74.28125 320.199219 72.234375 321.757812 69.757812 C 323.316406 67.28125 324.453125 64.550781 325.167969 61.5625 C 325.878906 58.574219 326.152344 55.625 325.988281 52.707031 C 325.828125 49.878906 325.359375 47.074219 324.582031 44.300781 Z M 282.199219 41.53125 C 282.011719 39.800781 281.671875 38.109375 281.171875 36.457031 C 280.667969 34.808594 279.933594 33.410156 278.964844 32.261719 C 278 31.109375 276.71875 30.578125 275.132812 30.667969 C 273.289062 30.773438 261.175781 42.503906 265.355469 45.832031 C 269.53125 49.15625 271.835938 45.203125 272.734375 45.882812 C 272.855469 48.804688 272.929688 48.972656 273.074219 51.886719 C 273.214844 54.804688 273.367188 57.722656 273.53125 60.636719 C 273.566406 61.238281 273.59375 62.097656 273.613281 63.214844 C 273.632812 64.332031 273.691406 65.542969 273.789062 66.851562 C 273.882812 68.160156 274.03125 69.484375 274.238281 70.828125 C 274.441406 72.171875 274.757812 73.378906 275.183594 74.453125 C 275.609375 75.523438 276.164062 76.398438 276.847656 77.066406 C 277.53125 77.738281 278.386719 78.046875 279.414062 77.988281 C 280.484375 77.925781 281.296875 77.441406 281.847656 76.527344 C 282.398438 75.617188 282.78125 74.5625 282.992188 73.367188 C 283.203125 72.171875 283.296875 70.960938 283.273438 69.734375 C 283.246094 68.511719 283.230469 67.535156 283.234375 66.800781 C 283.238281 64.605469 283.183594 62.429688 283.058594 60.261719 C 282.9375 58.097656 282.855469 55.917969 282.820312 53.726562 C 282.785156 52.394531 282.753906 51.0625 282.722656 49.730469 C 282.691406 48.398438 282.636719 47.066406 282.5625 45.738281 C 282.503906 44.667969 282.382812 43.261719 282.199219 41.53125 Z M 282.199219 41.53125 " fill-opacity="1" fill-rule="nonzero"/><path fill="#ffffff" d="M 325.875 181.625 C 325.875 181.625 309.53125 188.058594 301.933594 163.558594 C 299.992188 157.289062 299.828125 152.015625 300.65625 147.632812 C 303.691406 145.679688 305.699219 142.863281 305.253906 138.808594 C 305.203125 138.34375 305.125 137.902344 305.03125 137.476562 C 308.976562 132.042969 313.886719 129.6875 313.886719 129.6875 C 309.808594 131.023438 306.460938 132.527344 303.695312 134.152344 C 298.671875 126.148438 282.28125 131.707031 286.503906 132.515625 C 290.746094 133.328125 297.601562 134.199219 296.976562 140.960938 C 296.1875 149.46875 280.75 152.058594 280.75 152.058594 C 280.75 152.058594 286.242188 152.125 292.03125 150.882812 C 291.566406 155.277344 292.269531 159.84375 293.164062 164.308594 C 297.65625 186.777344 317.207031 187.179688 317.207031 187.179688 C 317.207031 187.179688 315.671875 192.679688 321.542969 191.277344 C 317.570312 187.636719 325.875 181.625 325.875 181.625 Z M 325.875 181.625 " fill-opacity="1" fill-rule="nonzero"/></svg>