<svg xmlns="http://www.w3.org/2000/svg" xmlns:xlink="http://www.w3.org/1999/xlink" width="500" zoomAndPan="magnify" viewBox="0 0 375 374.999991" height="500" preserveAspectRatio="xMidYMid meet" version="1.0"><defs><clipPath id="03f6ca1313"><path d="M 18.738281 87 L 331 87 L 331 321 L 18.738281 321 Z M 18.738281 87 " clip-rule="nonzero"/></clipPath></defs><path fill="#d33a22" d="M 172.511719 212.910156 C 172.511719 212.910156 172.519531 212.917969 172.828125 213.4375 L 172.601562 213.375 C 172.546875 213.074219 172.511719 212.910156 172.511719 212.910156 Z M 172.511719 212.910156 " fill-opacity="1" fill-rule="nonzero"/><path fill="#d33a22" d="M 150.277344 193.824219 C 150.277344 193.824219 150.28125 193.832031 150.589844 194.351562 L 150.363281 194.292969 C 150.3125 193.992188 150.277344 193.824219 150.277344 193.824219 Z M 150.277344 193.824219 " fill-opacity="1" fill-rule="nonzero"/><path fill="#005995" d="M 319.769531 56.449219 C 320.84375 35.753906 293.507812 17.515625 258.710938 15.710938 C 223.914062 13.90625 194.835938 29.222656 193.761719 49.914062 C 193 64.59375 206.542969 78.027344 226.890625 85.25 C 223.554688 88.277344 221.359375 91.398438 224.273438 92.824219 C 229.855469 95.558594 259.457031 91.710938 268.207031 90.496094 C 296.78125 88.328125 318.835938 74.421875 319.769531 56.449219 Z M 319.769531 56.449219 " fill-opacity="1" fill-rule="nonzero"/><path fill="#ffffff" d="M 301.71875 53.996094 C 301.464844 54.234375 301.167969 54.425781 300.824219 54.574219 C 300.480469 54.71875 300.121094 54.832031 299.742188 54.90625 C 299.363281 54.984375 299.039062 55.046875 298.769531 55.089844 C 298.804688 54.765625 298.882812 54.414062 299.007812 54.035156 C 299.128906 53.660156 299.296875 53.308594 299.503906 52.980469 C 299.714844 52.65625 299.964844 52.390625 300.265625 52.183594 C 300.5625 51.976562 300.921875 51.886719 301.34375 51.90625 C 301.628906 51.917969 301.835938 52.066406 301.957031 52.339844 C 302.078125 52.613281 302.132812 52.875 302.117188 53.125 C 302.101562 53.46875 301.96875 53.761719 301.71875 53.996094 Z M 306.015625 59.390625 C 305.722656 59.128906 305.382812 58.988281 305 58.96875 C 304.65625 58.953125 304.3125 59.03125 303.964844 59.207031 C 303.621094 59.378906 303.269531 59.578125 302.914062 59.800781 C 302.558594 60.023438 302.191406 60.222656 301.820312 60.394531 C 301.445312 60.570312 301.066406 60.644531 300.683594 60.628906 C 300.167969 60.601562 299.730469 60.453125 299.367188 60.1875 C 299.003906 59.921875 298.796875 59.507812 298.75 58.949219 C 299.613281 58.953125 300.464844 58.796875 301.308594 58.484375 C 302.148438 58.167969 302.902344 57.742188 303.558594 57.199219 C 304.21875 56.65625 304.761719 56 305.183594 55.234375 C 305.605469 54.46875 305.839844 53.632812 305.882812 52.734375 C 305.917969 52.042969 305.8125 51.414062 305.574219 50.847656 C 305.332031 50.277344 305 49.78125 304.582031 49.359375 C 304.160156 48.933594 303.65625 48.597656 303.074219 48.347656 C 302.492188 48.097656 301.875 47.957031 301.222656 47.925781 C 300.074219 47.867188 299.066406 48.125 298.203125 48.699219 C 297.339844 49.269531 296.613281 50.003906 296.023438 50.894531 C 295.429688 51.785156 294.976562 52.773438 294.652344 53.851562 C 294.332031 54.929688 294.144531 55.945312 294.097656 56.902344 C 294.054688 57.804688 294.148438 58.734375 294.378906 59.695312 C 294.609375 60.660156 294.972656 61.542969 295.472656 62.355469 C 295.96875 63.167969 296.601562 63.847656 297.375 64.394531 C 298.144531 64.941406 299.035156 65.238281 300.050781 65.289062 C 300.644531 65.316406 301.304688 65.199219 302.027344 64.9375 C 302.75 64.679688 303.4375 64.316406 304.082031 63.859375 C 304.726562 63.402344 305.273438 62.871094 305.714844 62.269531 C 306.160156 61.667969 306.394531 61.042969 306.429688 60.390625 C 306.445312 59.988281 306.308594 59.65625 306.015625 59.390625 Z M 292.730469 54.230469 C 292.734375 53.761719 292.710938 53.25 292.664062 52.703125 C 292.613281 52.152344 292.546875 51.59375 292.457031 51.023438 C 292.371094 50.453125 292.234375 49.9375 292.042969 49.476562 C 291.855469 49.015625 291.625 48.632812 291.351562 48.332031 C 291.078125 48.03125 290.742188 47.871094 290.339844 47.851562 C 289.917969 47.828125 289.507812 47.894531 289.105469 48.050781 C 288.707031 48.203125 288.335938 48.40625 287.996094 48.65625 C 287.65625 48.910156 287.339844 49.207031 287.046875 49.546875 C 286.75 49.886719 286.496094 50.222656 286.289062 50.558594 C 286.246094 50.230469 286.160156 49.882812 286.023438 49.511719 C 285.890625 49.136719 285.714844 48.789062 285.5 48.460938 C 285.285156 48.132812 285.03125 47.859375 284.734375 47.632812 C 284.4375 47.40625 284.097656 47.285156 283.714844 47.265625 C 283.3125 47.246094 282.90625 47.308594 282.496094 47.449219 C 282.085938 47.59375 281.699219 47.785156 281.332031 48.027344 C 280.964844 48.265625 280.617188 48.539062 280.296875 48.839844 C 279.976562 49.140625 279.699219 49.4375 279.476562 49.734375 C 279.5 49.640625 279.519531 49.535156 279.535156 49.421875 C 279.546875 49.304688 279.558594 49.191406 279.566406 49.078125 C 279.589844 48.539062 279.453125 48.128906 279.148438 47.847656 C 278.847656 47.5625 278.445312 47.410156 277.949219 47.382812 C 277.507812 47.363281 277.140625 47.523438 276.847656 47.863281 C 276.550781 48.203125 276.304688 48.648438 276.101562 49.195312 C 275.902344 49.742188 275.75 50.351562 275.636719 51.027344 C 275.527344 51.703125 275.441406 52.367188 275.382812 53.015625 C 275.320312 53.667969 275.28125 54.269531 275.265625 54.824219 C 275.246094 55.382812 275.230469 55.804688 275.214844 56.089844 C 275.203125 56.339844 275.191406 56.71875 275.175781 57.226562 C 275.160156 57.734375 275.15625 58.300781 275.164062 58.925781 C 275.171875 59.546875 275.210938 60.183594 275.285156 60.828125 C 275.359375 61.476562 275.476562 62.074219 275.644531 62.617188 C 275.808594 63.164062 276.027344 63.609375 276.296875 63.960938 C 276.570312 64.308594 276.925781 64.496094 277.363281 64.515625 C 277.976562 64.546875 278.46875 64.34375 278.835938 63.914062 C 279.203125 63.480469 279.398438 62.996094 279.425781 62.460938 C 279.46875 61.539062 279.457031 60.636719 279.386719 59.75 C 279.3125 58.863281 279.300781 57.960938 279.347656 57.042969 L 279.355469 56.867188 C 279.363281 56.679688 279.421875 56.375 279.527344 55.957031 C 279.636719 55.539062 279.777344 55.121094 279.953125 54.695312 C 280.125 54.273438 280.328125 53.90625 280.550781 53.601562 C 280.777344 53.296875 281.015625 53.152344 281.265625 53.164062 C 281.417969 53.171875 281.546875 53.28125 281.652344 53.5 C 281.757812 53.714844 281.832031 53.992188 281.871094 54.332031 C 281.910156 54.667969 281.9375 55.039062 281.945312 55.441406 C 281.953125 55.847656 281.953125 56.234375 281.945312 56.609375 C 281.9375 56.984375 281.925781 57.324219 281.910156 57.628906 C 281.894531 57.933594 281.882812 58.15625 281.878906 58.289062 C 281.859375 58.613281 281.839844 58.933594 281.816406 59.238281 C 281.789062 59.542969 281.769531 59.859375 281.753906 60.183594 C 281.738281 60.492188 281.734375 60.921875 281.734375 61.480469 C 281.734375 62.035156 281.78125 62.585938 281.871094 63.125 C 281.957031 63.667969 282.117188 64.144531 282.347656 64.5625 C 282.574219 64.976562 282.917969 65.195312 283.378906 65.214844 C 283.742188 65.234375 284.058594 65.085938 284.324219 64.773438 C 284.585938 64.460938 284.8125 64.054688 285.003906 63.554688 C 285.191406 63.054688 285.351562 62.496094 285.488281 61.878906 C 285.625 61.261719 285.730469 60.65625 285.808594 60.066406 C 285.882812 59.476562 285.949219 58.929688 286.003906 58.433594 C 286.054688 57.9375 286.105469 57.566406 286.160156 57.320312 C 286.1875 57.089844 286.246094 56.742188 286.324219 56.277344 C 286.40625 55.808594 286.523438 55.339844 286.683594 54.867188 C 286.839844 54.398438 287.03125 53.988281 287.261719 53.644531 C 287.488281 53.300781 287.777344 53.136719 288.121094 53.152344 C 288.292969 53.164062 288.417969 53.265625 288.496094 53.460938 C 288.570312 53.65625 288.625 53.878906 288.648438 54.128906 C 288.675781 54.382812 288.679688 54.632812 288.667969 54.878906 C 288.65625 55.128906 288.648438 55.300781 288.644531 55.398438 C 288.601562 56.257812 288.53125 57.101562 288.433594 57.921875 C 288.335938 58.742188 288.265625 59.582031 288.222656 60.445312 C 288.207031 60.730469 288.195312 61.125 288.179688 61.621094 C 288.164062 62.121094 288.191406 62.613281 288.265625 63.09375 C 288.335938 63.578125 288.472656 64.003906 288.675781 64.367188 C 288.878906 64.734375 289.191406 64.925781 289.613281 64.945312 C 290.09375 64.972656 290.492188 64.796875 290.820312 64.429688 C 291.144531 64.0625 291.421875 63.585938 291.652344 63.003906 C 291.882812 62.417969 292.0625 61.761719 292.195312 61.027344 C 292.328125 60.296875 292.425781 59.566406 292.492188 58.839844 C 292.554688 58.113281 292.601562 57.441406 292.632812 56.816406 C 292.664062 56.195312 292.6875 55.703125 292.707031 55.339844 C 292.71875 55.070312 292.726562 54.703125 292.730469 54.230469 Z M 268.726562 51.910156 C 268.929688 52.210938 269.09375 52.582031 269.214844 53.03125 C 269.339844 53.480469 269.425781 53.957031 269.476562 54.46875 C 269.527344 54.980469 269.546875 55.445312 269.523438 55.867188 C 269.5 56.328125 269.449219 56.820312 269.363281 57.34375 C 269.28125 57.867188 269.160156 58.347656 269.003906 58.777344 C 268.847656 59.214844 268.652344 59.566406 268.417969 59.84375 C 268.183594 60.121094 267.914062 60.25 267.609375 60.238281 C 267.320312 60.222656 267.074219 60.0625 266.867188 59.753906 C 266.664062 59.445312 266.496094 59.0625 266.363281 58.605469 C 266.234375 58.148438 266.136719 57.648438 266.078125 57.109375 C 266.015625 56.570312 266 56.070312 266.023438 55.609375 C 266.039062 55.246094 266.097656 54.820312 266.199219 54.335938 C 266.300781 53.851562 266.433594 53.394531 266.597656 52.960938 C 266.765625 52.527344 266.964844 52.160156 267.199219 51.867188 C 267.433594 51.570312 267.695312 51.429688 267.984375 51.445312 C 268.273438 51.457031 268.519531 51.613281 268.726562 51.910156 Z M 269.828125 63.773438 C 270.617188 63.292969 271.28125 62.65625 271.820312 61.855469 C 272.359375 61.054688 272.785156 60.144531 273.09375 59.125 C 273.402344 58.101562 273.613281 57.085938 273.71875 56.074219 C 273.824219 55.15625 273.804688 54.175781 273.664062 53.132812 C 273.523438 52.089844 273.242188 51.121094 272.828125 50.226562 C 272.410156 49.335938 271.839844 48.578125 271.109375 47.953125 C 270.382812 47.335938 269.484375 46.996094 268.410156 46.945312 C 267.300781 46.890625 266.328125 47.125 265.492188 47.648438 C 264.660156 48.175781 263.964844 48.871094 263.402344 49.734375 C 262.84375 50.601562 262.410156 51.566406 262.109375 52.636719 C 261.804688 53.707031 261.628906 54.75 261.582031 55.761719 C 261.53125 56.722656 261.609375 57.699219 261.808594 58.699219 C 262.011719 59.695312 262.339844 60.609375 262.796875 61.4375 C 263.257812 62.269531 263.835938 62.957031 264.539062 63.511719 C 265.242188 64.0625 266.082031 64.363281 267.058594 64.414062 C 268.113281 64.464844 269.035156 64.25 269.828125 63.773438 Z M 260.617188 51.917969 C 260.621094 51.820312 260.628906 51.726562 260.632812 51.628906 C 260.664062 50.996094 260.601562 50.351562 260.453125 49.691406 C 260.304688 49.03125 260.0625 48.429688 259.734375 47.886719 C 259.40625 47.339844 258.976562 46.894531 258.449219 46.539062 C 257.917969 46.1875 257.28125 45.992188 256.535156 45.957031 C 255.328125 45.898438 254.269531 46.171875 253.367188 46.78125 C 252.464844 47.386719 251.710938 48.167969 251.105469 49.117188 C 250.503906 50.066406 250.039062 51.101562 249.714844 52.230469 C 249.390625 53.355469 249.203125 54.40625 249.15625 55.382812 C 249.113281 56.226562 249.167969 57.121094 249.3125 58.070312 C 249.457031 59.015625 249.730469 59.898438 250.132812 60.714844 C 250.53125 61.53125 251.082031 62.214844 251.773438 62.769531 C 252.464844 63.320312 253.328125 63.621094 254.363281 63.671875 C 254.9375 63.699219 255.546875 63.609375 256.191406 63.402344 C 256.835938 63.195312 257.425781 62.898438 257.964844 62.511719 C 258.503906 62.125 258.957031 61.65625 259.332031 61.109375 C 259.703125 60.5625 259.90625 59.960938 259.9375 59.3125 C 259.957031 58.871094 259.835938 58.472656 259.578125 58.113281 C 259.316406 57.753906 258.949219 57.5625 258.46875 57.539062 C 258.085938 57.519531 257.738281 57.628906 257.429688 57.863281 C 257.121094 58.097656 256.835938 58.324219 256.574219 58.539062 C 256.292969 58.796875 256.011719 59.015625 255.722656 59.203125 C 255.433594 59.390625 255.128906 59.476562 254.800781 59.460938 C 254.476562 59.445312 254.21875 59.292969 254.03125 59.003906 C 253.84375 58.71875 253.703125 58.378906 253.605469 57.992188 C 253.511719 57.601562 253.453125 57.203125 253.433594 56.789062 C 253.417969 56.375 253.414062 56.023438 253.429688 55.738281 C 253.445312 55.375 253.539062 54.898438 253.703125 54.3125 C 253.863281 53.722656 254.070312 53.152344 254.320312 52.597656 C 254.566406 52.046875 254.847656 51.570312 255.167969 51.171875 C 255.484375 50.777344 255.804688 50.585938 256.128906 50.601562 C 256.359375 50.613281 256.519531 50.695312 256.609375 50.855469 C 256.695312 51.011719 256.753906 51.226562 256.777344 51.496094 L 256.738281 52.328125 C 256.75 52.464844 256.75 52.59375 256.746094 52.71875 C 256.738281 52.84375 256.753906 52.953125 256.789062 53.050781 C 257.019531 53.8125 257.507812 54.210938 258.257812 54.246094 C 258.753906 54.273438 259.191406 54.144531 259.570312 53.867188 C 259.949219 53.585938 260.234375 53.230469 260.429688 52.800781 C 260.472656 52.707031 260.503906 52.605469 260.53125 52.503906 C 260.554688 52.398438 260.570312 52.296875 260.574219 52.203125 C 260.597656 52.109375 260.613281 52.011719 260.617188 51.917969 Z M 248.070312 44.085938 C 248.074219 43.652344 248.035156 43.238281 247.960938 42.84375 C 247.882812 42.445312 247.742188 42.101562 247.535156 41.8125 C 247.328125 41.523438 247.011719 41.371094 246.59375 41.351562 C 246.074219 41.324219 245.617188 41.519531 245.222656 41.929688 C 244.828125 42.34375 244.480469 42.882812 244.179688 43.550781 C 243.878906 44.214844 243.625 44.960938 243.421875 45.785156 C 243.21875 46.613281 243.046875 47.425781 242.914062 48.222656 C 242.777344 49.023438 242.679688 49.765625 242.617188 50.453125 C 242.554688 51.144531 242.511719 51.667969 242.496094 52.03125 C 242.480469 52.359375 242.46875 52.863281 242.464844 53.542969 C 242.457031 54.222656 242.46875 54.972656 242.496094 55.789062 C 242.523438 56.609375 242.585938 57.449219 242.6875 58.320312 C 242.789062 59.1875 242.933594 59.976562 243.117188 60.6875 C 243.304688 61.398438 243.554688 61.984375 243.867188 62.453125 C 244.179688 62.917969 244.566406 63.164062 245.027344 63.183594 C 245.503906 63.210938 245.894531 63.101562 246.195312 62.867188 C 246.492188 62.632812 246.722656 62.339844 246.886719 61.980469 C 247.046875 61.625 247.15625 61.234375 247.21875 60.804688 C 247.277344 60.375 247.316406 59.988281 247.332031 59.644531 C 247.398438 58.265625 247.425781 56.894531 247.40625 55.527344 C 247.386719 54.164062 247.410156 52.804688 247.476562 51.445312 C 247.527344 50.390625 247.621094 49.34375 247.761719 48.304688 C 247.898438 47.265625 247.992188 46.230469 248.042969 45.195312 C 248.0625 44.886719 248.066406 44.515625 248.070312 44.085938 Z M 236.207031 50.773438 C 235.953125 51.007812 235.65625 51.199219 235.3125 51.347656 C 234.96875 51.492188 234.609375 51.605469 234.230469 51.683594 C 233.851562 51.761719 233.527344 51.820312 233.257812 51.863281 C 233.292969 51.539062 233.371094 51.191406 233.496094 50.8125 C 233.621094 50.433594 233.785156 50.082031 233.996094 49.757812 C 234.203125 49.429688 234.457031 49.164062 234.753906 48.957031 C 235.050781 48.753906 235.414062 48.660156 235.832031 48.679688 C 236.121094 48.695312 236.324219 48.839844 236.445312 49.113281 C 236.566406 49.390625 236.621094 49.652344 236.609375 49.898438 C 236.59375 50.242188 236.457031 50.535156 236.207031 50.773438 Z M 240.503906 56.167969 C 240.210938 55.902344 239.871094 55.761719 239.488281 55.742188 C 239.144531 55.726562 238.800781 55.804688 238.457031 55.980469 C 238.109375 56.152344 237.761719 56.351562 237.402344 56.574219 C 237.046875 56.796875 236.683594 56.996094 236.308594 57.167969 C 235.933594 57.34375 235.558594 57.417969 235.175781 57.402344 C 234.65625 57.375 234.21875 57.230469 233.855469 56.960938 C 233.496094 56.695312 233.289062 56.28125 233.242188 55.722656 C 234.105469 55.726562 234.957031 55.570312 235.796875 55.257812 C 236.636719 54.945312 237.390625 54.515625 238.050781 53.972656 C 238.710938 53.429688 239.25 52.773438 239.675781 52.007812 C 240.097656 51.242188 240.328125 50.410156 240.371094 49.507812 C 240.40625 48.820312 240.304688 48.191406 240.0625 47.621094 C 239.820312 47.054688 239.492188 46.558594 239.070312 46.132812 C 238.648438 45.707031 238.148438 45.371094 237.566406 45.125 C 236.980469 44.875 236.363281 44.734375 235.714844 44.699219 C 234.5625 44.644531 233.558594 44.902344 232.695312 45.472656 C 231.828125 46.046875 231.105469 46.777344 230.511719 47.667969 C 229.921875 48.5625 229.464844 49.546875 229.140625 50.625 C 228.820312 51.703125 228.636719 52.722656 228.589844 53.679688 C 228.542969 54.578125 228.636719 55.511719 228.867188 56.472656 C 229.097656 57.433594 229.464844 58.320312 229.960938 59.132812 C 230.457031 59.941406 231.09375 60.621094 231.863281 61.167969 C 232.632812 61.714844 233.523438 62.011719 234.539062 62.0625 C 235.132812 62.09375 235.792969 61.976562 236.515625 61.714844 C 237.238281 61.453125 237.925781 61.09375 238.570312 60.632812 C 239.21875 60.175781 239.761719 59.648438 240.207031 59.042969 C 240.648438 58.441406 240.886719 57.816406 240.917969 57.164062 C 240.9375 56.761719 240.800781 56.429688 240.503906 56.167969 Z M 228.3125 43.542969 C 228.296875 43.054688 228.234375 42.582031 228.121094 42.125 C 228.007812 41.667969 227.816406 41.273438 227.542969 40.945312 C 227.273438 40.613281 226.898438 40.4375 226.417969 40.414062 C 225.996094 40.390625 225.605469 40.597656 225.234375 41.03125 C 224.871094 41.464844 224.535156 42.03125 224.230469 42.722656 C 223.925781 43.417969 223.65625 44.1875 223.410156 45.03125 C 223.167969 45.875 222.960938 46.699219 222.785156 47.503906 C 222.613281 48.3125 222.46875 49.042969 222.359375 49.703125 C 222.25 50.359375 222.179688 50.839844 222.144531 51.144531 C 222.117188 50.894531 222.082031 50.46875 222.035156 49.871094 C 221.988281 49.277344 221.910156 48.605469 221.800781 47.859375 C 221.695312 47.117188 221.566406 46.347656 221.414062 45.550781 C 221.257812 44.757812 221.078125 44.035156 220.871094 43.378906 C 220.664062 42.726562 220.421875 42.191406 220.144531 41.773438 C 219.867188 41.359375 219.5625 41.152344 219.238281 41.15625 C 218.988281 41.160156 218.71875 41.355469 218.433594 41.734375 C 218.144531 42.113281 217.851562 42.59375 217.554688 43.171875 C 217.257812 43.753906 216.972656 44.398438 216.695312 45.105469 C 216.421875 45.8125 216.160156 46.5 215.917969 47.167969 C 215.671875 47.835938 215.46875 48.4375 215.296875 48.964844 C 215.125 49.496094 215.007812 49.882812 214.9375 50.128906 L 215.003906 49.382812 C 215.035156 49.117188 215.054688 48.695312 215.066406 48.121094 C 215.074219 47.542969 215.0625 46.910156 215.027344 46.21875 C 214.996094 45.523438 214.933594 44.808594 214.847656 44.0625 C 214.757812 43.320312 214.625 42.640625 214.445312 42.027344 C 214.261719 41.414062 214.027344 40.917969 213.738281 40.539062 C 213.449219 40.160156 213.09375 39.96875 212.671875 39.96875 C 212.171875 39.984375 211.78125 40.1875 211.503906 40.585938 C 211.226562 40.988281 211.011719 41.457031 210.859375 41.996094 C 210.707031 42.535156 210.609375 43.085938 210.5625 43.652344 C 210.515625 44.214844 210.484375 44.660156 210.464844 44.984375 C 210.421875 45.902344 210.402344 46.804688 210.40625 47.6875 C 210.410156 48.570312 210.417969 49.476562 210.429688 50.394531 C 210.429688 50.800781 210.441406 51.347656 210.464844 52.039062 C 210.488281 52.730469 210.527344 53.476562 210.585938 54.277344 C 210.640625 55.078125 210.734375 55.886719 210.867188 56.710938 C 211 57.53125 211.175781 58.28125 211.390625 58.953125 C 211.609375 59.625 211.886719 60.183594 212.230469 60.621094 C 212.574219 61.058594 212.984375 61.292969 213.464844 61.316406 C 213.828125 61.332031 214.199219 61.160156 214.582031 60.792969 C 214.964844 60.429688 215.339844 59.957031 215.707031 59.382812 C 216.070312 58.804688 216.421875 58.167969 216.765625 57.476562 C 217.105469 56.78125 217.417969 56.101562 217.699219 55.433594 C 217.980469 54.765625 218.21875 54.164062 218.40625 53.625 C 218.597656 53.085938 218.738281 52.695312 218.824219 52.453125 C 218.871094 52.742188 218.9375 53.171875 219.035156 53.742188 C 219.132812 54.3125 219.253906 54.945312 219.402344 55.632812 C 219.550781 56.320312 219.734375 57.035156 219.945312 57.777344 C 220.160156 58.515625 220.398438 59.183594 220.667969 59.785156 C 220.933594 60.382812 221.238281 60.882812 221.570312 61.28125 C 221.910156 61.683594 222.265625 61.894531 222.648438 61.910156 C 223.03125 61.929688 223.402344 61.722656 223.761719 61.289062 C 224.117188 60.855469 224.453125 60.300781 224.765625 59.625 C 225.078125 58.949219 225.367188 58.195312 225.640625 57.367188 C 225.910156 56.535156 226.148438 55.730469 226.347656 54.953125 C 226.550781 54.175781 226.722656 53.46875 226.871094 52.832031 C 227.015625 52.199219 227.125 51.738281 227.199219 51.453125 C 227.464844 50.371094 227.699219 49.273438 227.90625 48.160156 C 228.117188 47.050781 228.25 45.917969 228.304688 44.769531 C 228.324219 44.441406 228.324219 44.035156 228.3125 43.542969 Z M 228.3125 43.542969 " fill-opacity="1" fill-rule="nonzero"/><path fill="#f29222" d="M 113.015625 354.589844 C 112.226562 351.640625 106.066406 348.695312 105.101562 348.25 C 109.964844 338.707031 130.164062 304.566406 130.164062 304.566406 C 130.164062 304.566406 120.234375 287.542969 112.496094 297.058594 C 104.757812 306.574219 98.496094 345.246094 98.496094 345.246094 C 90.761719 341.992188 78.3125 337.667969 73.734375 341.222656 C 72.183594 341.136719 68.992188 341.351562 68.410156 344.40625 C 69.011719 344.03125 70.382812 343.152344 72.757812 343.730469 C 73.351562 344.652344 75.101562 345.355469 77.429688 345.894531 C 70.722656 346.375 64.722656 348.019531 62.101562 351.953125 C 61.714844 352.53125 61.476562 353.046875 61.363281 353.519531 C 59.363281 354.765625 56.585938 357.253906 57.980469 360.933594 C 58.480469 359.941406 59.652344 357.503906 63.839844 356.589844 C 72.625 359.234375 100.964844 352.953125 100.964844 352.953125 C 100.964844 352.953125 107.738281 360.191406 111.816406 357.3125 C 114.554688 358.179688 115.386719 359.902344 115.757812 360.644531 C 116.890625 357.648438 114.652344 355.617188 113.015625 354.589844 Z M 113.015625 354.589844 " fill-opacity="1" fill-rule="nonzero"/><path fill="#f29222" d="M 198.214844 354.589844 C 199.003906 351.640625 205.164062 348.695312 206.128906 348.25 C 201.265625 338.707031 181.066406 304.566406 181.066406 304.566406 C 181.066406 304.566406 190.996094 287.542969 198.734375 297.058594 C 206.472656 306.574219 212.738281 345.246094 212.738281 345.246094 C 220.472656 341.992188 232.921875 337.667969 237.496094 341.222656 C 239.050781 341.136719 242.238281 341.351562 242.824219 344.40625 C 242.222656 344.03125 240.847656 343.152344 238.472656 343.730469 C 237.878906 344.652344 236.128906 345.355469 233.800781 345.894531 C 240.507812 346.375 246.507812 348.019531 249.128906 351.953125 C 249.515625 352.53125 249.753906 353.046875 249.867188 353.519531 C 251.871094 354.765625 254.644531 357.253906 253.25 360.933594 C 252.75 359.941406 251.578125 357.503906 247.390625 356.589844 C 238.605469 359.234375 210.269531 352.953125 210.269531 352.953125 C 210.269531 352.953125 203.492188 360.191406 199.414062 357.3125 C 196.675781 358.179688 195.84375 359.902344 195.472656 360.644531 C 194.339844 357.648438 196.578125 355.617188 198.214844 354.589844 Z M 198.214844 354.589844 " fill-opacity="1" fill-rule="nonzero"/><g clip-path="url(#03f6ca1313)"><path fill="#005995" d="M 308.59375 115.71875 C 356.253906 74.835938 307.84375 94.164062 307.84375 94.164062 C 307.84375 94.164062 317.871094 81.128906 289.789062 90.65625 C 261.710938 100.179688 244.175781 112.199219 244.160156 112.210938 C 240.363281 96.542969 229.015625 94.011719 218.019531 100.988281 C 233.3125 109.761719 234.128906 128.695312 233.371094 129.5 C 233.117188 129.519531 232.949219 129.558594 232.929688 129.589844 C 232.945312 129.695312 232.957031 129.804688 232.972656 129.910156 C 232.46875 130.417969 231.867188 130.96875 231.15625 131.546875 C 229.585938 132.824219 227.492188 134.234375 224.765625 135.578125 C 224.707031 135.605469 224.652344 135.632812 224.597656 135.660156 C 224.382812 135.765625 224.160156 135.867188 223.941406 135.972656 C 223.851562 136.011719 223.765625 136.050781 223.675781 136.09375 C 223.464844 136.191406 223.25 136.285156 223.03125 136.378906 C 222.925781 136.425781 222.820312 136.472656 222.710938 136.519531 C 222.5 136.609375 222.28125 136.699219 222.0625 136.789062 C 221.945312 136.839844 221.824219 136.886719 221.707031 136.933594 C 221.484375 137.023438 221.265625 137.109375 221.039062 137.195312 C 220.917969 137.242188 220.789062 137.289062 220.667969 137.332031 C 219.910156 137.617188 219.113281 137.890625 218.28125 138.152344 C 218.097656 138.210938 217.914062 138.269531 217.726562 138.328125 C 217.523438 138.390625 217.308594 138.453125 217.101562 138.511719 C 216.894531 138.574219 216.691406 138.632812 216.484375 138.691406 C 216.277344 138.75 216.0625 138.804688 215.851562 138.863281 C 215.632812 138.921875 215.40625 138.980469 215.179688 139.039062 C 214.96875 139.09375 214.757812 139.144531 214.542969 139.195312 C 214.304688 139.253906 214.0625 139.3125 213.820312 139.367188 C 213.609375 139.417969 213.394531 139.464844 213.179688 139.511719 C 212.917969 139.570312 212.65625 139.625 212.390625 139.679688 C 212.183594 139.722656 211.972656 139.765625 211.761719 139.808594 C 211.460938 139.867188 211.148438 139.921875 210.839844 139.980469 C 210.65625 140.011719 210.476562 140.046875 210.292969 140.078125 C 209.796875 140.164062 209.292969 140.25 208.78125 140.328125 C 208.683594 140.339844 208.582031 140.355469 208.484375 140.367188 C 208.058594 140.429688 207.628906 140.492188 207.1875 140.550781 C 207.132812 140.554688 207.074219 140.5625 207.019531 140.570312 C 206.222656 140.671875 205.402344 140.761719 204.566406 140.84375 C 204.445312 140.855469 204.320312 140.867188 204.195312 140.878906 C 203.410156 140.949219 202.605469 141.015625 201.785156 141.066406 C 201.667969 141.074219 201.550781 141.082031 201.433594 141.089844 C 200.632812 141.140625 199.808594 141.175781 198.96875 141.207031 C 198.761719 141.214844 198.550781 141.21875 198.339844 141.226562 C 197.433594 141.25 196.511719 141.269531 195.566406 141.269531 C 193.46875 141.273438 191.730469 141.550781 190.3125 142.050781 C 184.898438 143.953125 111.578125 150.371094 102.769531 148.992188 C 67.667969 145.984375 28.246094 213.058594 28.113281 213.109375 C 27.984375 213.15625 27.863281 213.207031 27.753906 213.257812 L 27.574219 213.367188 L 27.210938 213.605469 L 26.984375 213.867188 L 26.917969 213.953125 L 26.878906 214.078125 L 26.796875 214.332031 L 26.804688 214.445312 L 26.839844 214.742188 L 26.878906 214.839844 L 26.898438 214.898438 L 26.984375 215.074219 L 27.027344 215.164062 L 27.054688 215.203125 L 27.144531 215.332031 L 27.195312 215.394531 L 27.355469 215.589844 L 27.457031 215.691406 L 27.519531 215.757812 L 27.816406 216.015625 L 28.011719 216.171875 L 28.429688 216.449219 L 28.613281 216.566406 C 28.832031 216.691406 29.0625 216.8125 29.308594 216.929688 L 29.457031 216.988281 C 29.558594 217.035156 29.671875 217.078125 29.777344 217.121094 C 29.882812 217.164062 29.984375 217.210938 30.09375 217.25 L 30.394531 217.351562 L 30.949219 217.527344 L 31.308594 217.621094 L 31.875 217.746094 L 32.257812 217.816406 L 32.777344 217.886719 L 32.859375 217.898438 L 33.054688 217.921875 L 33.25 217.941406 L 33.914062 217.976562 L 34.269531 217.988281 C 34.582031 217.984375 34.898438 217.972656 35.214844 217.945312 C 35.230469 217.945312 35.242188 217.945312 35.253906 217.945312 L 35.304688 217.941406 C 34.5 218.167969 33.746094 218.429688 33.007812 218.703125 L 32.5 218.898438 C 31.789062 219.179688 31.097656 219.476562 30.449219 219.796875 L 30.320312 219.863281 C 29.734375 220.15625 29.179688 220.46875 28.640625 220.789062 C 28.617188 220.804688 28.589844 220.820312 28.5625 220.835938 L 28.164062 221.078125 C 27.878906 221.257812 27.597656 221.441406 27.324219 221.625 C 27.050781 221.808594 26.785156 221.996094 26.527344 222.1875 L 26.347656 222.328125 C 26.078125 222.53125 25.820312 222.738281 25.570312 222.945312 C 25.382812 223.101562 25.199219 223.253906 25.023438 223.40625 L 24.882812 223.53125 L 24.722656 223.671875 C 24.277344 224.074219 23.855469 224.484375 23.460938 224.898438 L 23.375 224.992188 L 23.292969 225.085938 C 22.953125 225.449219 22.636719 225.8125 22.339844 226.179688 L 22.296875 226.234375 L 22.101562 226.472656 C 21.777344 226.882812 21.472656 227.296875 21.199219 227.699219 L 21.089844 227.867188 C 20.855469 228.226562 20.636719 228.578125 20.4375 228.929688 L 20.273438 229.21875 C 20.203125 229.34375 20.140625 229.464844 20.074219 229.589844 C 20.007812 229.71875 19.941406 229.84375 19.882812 229.96875 C 19.820312 230.09375 19.753906 230.21875 19.699219 230.339844 L 19.644531 230.46875 C 19.496094 230.796875 19.375 231.105469 19.265625 231.40625 L 19.171875 231.664062 C 19.0625 231.988281 18.96875 232.300781 18.898438 232.585938 L 18.882812 232.664062 C 18.875 232.710938 18.871094 232.746094 18.863281 232.789062 C 18.816406 233 18.78125 233.207031 18.757812 233.390625 L 18.742188 233.574219 L 18.742188 234.195312 L 18.746094 234.222656 L 18.824219 234.488281 L 18.867188 234.632812 L 18.914062 234.714844 L 19.035156 234.824219 L 19.160156 234.929688 C 19.558594 235.707031 20.25 236 21.109375 235.96875 C 21.234375 235.960938 21.359375 235.953125 21.488281 235.933594 C 21.617188 235.917969 21.75 235.890625 21.882812 235.863281 C 22.78125 235.664062 23.792969 235.210938 24.816406 234.640625 C 25.238281 234.40625 25.660156 234.148438 26.078125 233.882812 C 26.324219 233.722656 26.566406 233.5625 26.804688 233.402344 C 27.015625 233.261719 27.21875 233.117188 27.421875 232.972656 C 28.253906 232.382812 29.015625 231.792969 29.640625 231.289062 C 29.816406 231.144531 29.984375 231.007812 30.136719 230.882812 C 30.4375 230.632812 30.691406 230.417969 30.882812 230.253906 C 30.75 230.367188 30.589844 230.511719 30.410156 230.675781 L 30.21875 230.851562 C 30.089844 230.972656 29.953125 231.09375 29.808594 231.234375 L 29.492188 231.53125 C 29.351562 231.660156 29.207031 231.796875 29.058594 231.945312 L 28.695312 232.292969 C 28.644531 232.347656 28.585938 232.402344 28.53125 232.457031 C 28.421875 232.5625 28.3125 232.667969 28.199219 232.78125 C 28.066406 232.910156 27.933594 233.046875 27.800781 233.183594 C 27.625 233.355469 27.449219 233.539062 27.269531 233.722656 C 27.128906 233.867188 26.984375 234.015625 26.839844 234.167969 C 26.652344 234.363281 26.453125 234.574219 26.261719 234.785156 C 26.117188 234.933594 25.980469 235.082031 25.839844 235.238281 C 25.617188 235.480469 25.394531 235.734375 25.171875 235.988281 L 24.820312 236.378906 C 24.484375 236.769531 24.148438 237.167969 23.816406 237.574219 L 23.621094 237.820312 C 23.355469 238.152344 23.09375 238.484375 22.835938 238.824219 C 22.722656 238.976562 22.613281 239.128906 22.5 239.28125 C 22.296875 239.554688 22.101562 239.828125 21.910156 240.101562 C 21.789062 240.277344 21.675781 240.457031 21.554688 240.632812 C 21.382812 240.890625 21.214844 241.148438 21.054688 241.40625 C 20.941406 241.589844 20.835938 241.777344 20.726562 241.960938 C 20.664062 242.074219 20.605469 242.183594 20.542969 242.292969 C 20.460938 242.4375 20.378906 242.582031 20.304688 242.722656 C 20.207031 242.90625 20.109375 243.09375 20.019531 243.277344 C 19.933594 243.453125 19.859375 243.625 19.78125 243.800781 C 19.746094 243.878906 19.707031 243.960938 19.671875 244.039062 L 19.449219 244.578125 C 19.351562 244.835938 19.269531 245.089844 19.1875 245.34375 L 19.125 245.554688 L 19.039062 245.847656 C 18.964844 246.125 18.921875 246.394531 18.878906 246.664062 L 18.867188 246.734375 L 18.808594 247.078125 C 18.769531 247.476562 18.757812 247.871094 18.789062 248.253906 C 18.800781 248.402344 18.820312 248.546875 18.84375 248.6875 C 18.871094 248.828125 18.898438 248.964844 18.933594 249.097656 L 18.957031 249.171875 L 19.007812 249.335938 L 19.066406 249.492188 L 19.199219 249.84375 L 19.3125 250.070312 L 19.601562 250.511719 L 19.710938 250.664062 C 19.859375 250.835938 20.023438 250.992188 20.203125 251.128906 L 20.253906 251.160156 L 20.316406 251.199219 L 20.789062 251.472656 L 20.875 251.503906 L 20.996094 251.554688 L 21.324219 251.652344 L 21.464844 251.695312 L 21.5 251.703125 L 21.691406 251.746094 L 22.246094 251.796875 L 22.292969 251.800781 L 22.300781 251.800781 L 22.429688 251.808594 C 22.683594 251.804688 22.945312 251.78125 23.214844 251.734375 L 23.4375 251.6875 C 23.636719 251.648438 23.84375 251.59375 24.050781 251.53125 L 24.335938 251.433594 C 24.539062 251.359375 24.742188 251.273438 24.949219 251.175781 L 25.214844 251.054688 C 25.503906 250.90625 25.796875 250.742188 26.09375 250.546875 L 26.109375 250.535156 C 26.398438 250.34375 26.691406 250.128906 26.976562 249.894531 L 27.25 249.664062 C 27.371094 249.558594 27.492188 249.4375 27.617188 249.324219 C 27.695312 249.25 27.773438 249.183594 27.851562 249.105469 L 28.089844 248.867188 L 28.203125 248.75 C 28.371094 248.574219 28.539062 248.386719 28.703125 248.195312 C 28.722656 248.171875 28.742188 248.152344 28.761719 248.128906 L 28.808594 248.074219 L 29.09375 247.730469 C 29.289062 247.484375 29.484375 247.21875 29.675781 246.949219 L 29.871094 246.675781 L 29.949219 246.5625 C 30.175781 246.226562 30.394531 245.867188 30.609375 245.496094 C 30.660156 245.410156 30.710938 245.332031 30.757812 245.246094 L 30.769531 245.496094 C 30.550781 246.023438 30.347656 246.542969 30.160156 247.054688 C 29.972656 247.5625 29.796875 248.066406 29.636719 248.5625 C 29.601562 248.671875 29.574219 248.773438 29.542969 248.878906 C 29.480469 249.097656 29.421875 249.316406 29.359375 249.539062 C 29.195312 250.09375 29.03125 250.644531 28.894531 251.179688 C 28.875 251.261719 28.847656 251.347656 28.828125 251.429688 C 28.777344 251.636719 28.742188 251.832031 28.707031 252.03125 C 28.675781 252.195312 28.644531 252.355469 28.613281 252.519531 C 28.582031 252.679688 28.550781 252.839844 28.515625 253 C 28.441406 253.371094 28.367188 253.742188 28.316406 254.09375 C 28.261719 254.464844 28.238281 254.808594 28.199219 255.167969 C 28.1875 255.289062 28.171875 255.414062 28.160156 255.535156 C 28.121094 255.878906 28.085938 256.222656 28.066406 256.550781 C 28.058594 256.722656 28.054688 256.886719 28.054688 257.050781 C 28.054688 257.21875 28.054688 257.390625 28.054688 257.5625 C 28.050781 257.769531 28.046875 257.976562 28.046875 258.183594 C 28.042969 258.390625 28.046875 258.59375 28.054688 258.789062 C 28.058594 258.816406 28.0625 258.84375 28.0625 258.871094 C 28.078125 259.160156 28.109375 259.4375 28.136719 259.71875 C 28.15625 259.902344 28.171875 260.085938 28.1875 260.269531 C 28.207031 260.449219 28.226562 260.628906 28.253906 260.800781 C 28.300781 261.09375 28.363281 261.359375 28.421875 261.636719 C 28.457031 261.796875 28.488281 261.957031 28.523438 262.117188 C 28.558594 262.277344 28.59375 262.433594 28.636719 262.585938 C 28.707031 262.839844 28.792969 263.074219 28.875 263.3125 C 28.917969 263.4375 28.957031 263.558594 29 263.679688 C 29.054688 263.835938 29.109375 263.984375 29.171875 264.125 C 29.261719 264.347656 29.367188 264.542969 29.46875 264.746094 C 29.570312 264.945312 29.667969 265.136719 29.773438 265.320312 C 29.792969 265.351562 29.8125 265.390625 29.832031 265.425781 C 29.847656 265.453125 29.867188 265.476562 29.886719 265.503906 C 29.980469 265.652344 30.078125 265.792969 30.175781 265.929688 C 30.253906 266.039062 30.335938 266.140625 30.417969 266.246094 C 30.472656 266.320312 30.527344 266.402344 30.585938 266.46875 C 30.710938 266.609375 30.839844 266.730469 30.964844 266.855469 C 31.113281 266.996094 31.261719 267.136719 31.410156 267.253906 L 31.8125 267.519531 L 32.277344 267.773438 L 32.6875 267.914062 L 33.15625 268.015625 L 33.566406 268.035156 L 34.015625 267.984375 L 34.414062 267.867188 L 34.617188 267.769531 L 34.839844 267.664062 L 35.207031 267.410156 C 35.304688 267.332031 35.402344 267.253906 35.5 267.167969 C 35.59375 267.078125 35.6875 266.984375 35.777344 266.875 C 36.6875 269.058594 37.855469 271.09375 39.269531 273.03125 C 40.210938 274.320312 41.261719 275.566406 42.417969 276.785156 C 42.996094 277.398438 43.601562 278 44.230469 278.597656 C 44.585938 278.933594 44.953125 279.269531 45.328125 279.605469 C 45.703125 279.9375 46.089844 280.273438 46.476562 280.605469 C 47.242188 281.257812 48.035156 281.90625 48.863281 282.554688 C 49.269531 282.871094 49.703125 283.191406 50.128906 283.511719 C 50.367188 283.71875 50.59375 283.882812 50.8125 284.03125 C 51.671875 284.671875 52.554688 285.308594 53.476562 285.953125 C 58.367188 289.367188 64.074219 292.875 70.53125 296.84375 L 70.542969 296.851562 C 70.785156 297 71.078125 297.136719 71.394531 297.265625 L 71.679688 297.375 C 71.960938 297.476562 72.261719 297.570312 72.582031 297.660156 L 72.828125 297.730469 C 73.238281 297.832031 73.679688 297.921875 74.148438 298 L 74.515625 298.054688 C 74.898438 298.113281 75.296875 298.160156 75.710938 298.199219 L 76.15625 298.242188 C 76.691406 298.285156 77.246094 298.316406 77.832031 298.328125 L 78.132812 298.328125 C 78.632812 298.335938 79.148438 298.332031 79.679688 298.3125 L 80.257812 298.292969 C 80.800781 298.265625 81.355469 298.230469 81.921875 298.175781 L 82.246094 298.152344 C 82.902344 298.085938 83.574219 297.996094 84.253906 297.894531 L 84.871094 297.796875 C 85.40625 297.707031 85.949219 297.605469 86.492188 297.492188 L 87.074219 297.375 C 87.773438 297.21875 88.480469 297.042969 89.191406 296.84375 L 89.714844 296.6875 C 90.285156 296.519531 90.855469 296.339844 91.425781 296.144531 C 91.644531 296.070312 91.863281 295.996094 92.082031 295.914062 C 92.804688 295.652344 93.527344 295.375 94.242188 295.0625 L 94.40625 294.988281 C 95.074219 294.695312 95.738281 294.371094 96.398438 294.03125 C 96.609375 293.925781 96.816406 293.8125 97.023438 293.699219 C 97.597656 293.386719 98.167969 293.054688 98.730469 292.707031 L 99.15625 292.449219 C 99.832031 292.015625 100.5 291.546875 101.148438 291.054688 C 101.3125 290.929688 101.476562 290.796875 101.640625 290.664062 C 101.726562 290.597656 101.804688 290.519531 101.890625 290.453125 C 103 291.496094 104.15625 292.5 105.347656 293.46875 C 103.835938 294.847656 102.390625 296.300781 101.21875 297.730469 C 98.003906 301.664062 100.476562 305.679688 104.070312 306.324219 C 104.050781 314.230469 120.160156 322.414062 128.253906 318.996094 C 131 321.742188 136.621094 320.398438 137.496094 315.003906 C 137.871094 312.675781 137.851562 310.019531 137.621094 307.386719 C 144.332031 308.402344 151.621094 308.613281 159.492188 307.878906 C 163.96875 307.460938 168.257812 306.664062 172.355469 305.539062 C 171.914062 308.902344 171.730469 312.480469 172.222656 315.503906 C 173.097656 320.898438 178.71875 322.242188 181.460938 319.5 C 189.558594 322.914062 205.664062 314.730469 205.644531 306.828125 C 209.242188 306.179688 211.714844 302.164062 208.496094 298.234375 C 206.296875 295.546875 203.140625 292.785156 200.375 290.589844 C 228.382812 266.6875 238.734375 223.316406 226.21875 191.28125 C 226.265625 191.042969 226.300781 190.792969 226.328125 190.53125 L 226.332031 190.414062 L 226.335938 190.371094 C 226.351562 190.148438 226.363281 189.921875 226.367188 189.683594 L 226.367188 189.621094 L 226.363281 189.367188 L 226.351562 189.035156 L 226.339844 188.785156 L 226.324219 188.574219 L 226.308594 188.414062 L 226.257812 187.996094 L 226.238281 187.84375 L 226.175781 187.453125 L 226.152344 187.339844 L 226.054688 186.863281 L 225.964844 186.480469 L 225.773438 185.84375 L 225.664062 185.503906 C 225.582031 185.269531 225.480469 185.039062 225.382812 184.808594 C 225.351562 184.738281 225.328125 184.664062 225.296875 184.589844 L 225.277344 184.546875 C 225.339844 184.632812 225.402344 184.710938 225.464844 184.796875 C 225.886719 185.378906 226.320312 185.929688 226.761719 186.453125 L 227.03125 186.769531 L 227.117188 186.867188 C 227.289062 187.066406 227.464844 187.257812 227.640625 187.449219 C 227.972656 187.8125 228.308594 188.167969 228.648438 188.5 L 228.75 188.597656 L 228.753906 188.597656 C 228.765625 188.609375 228.773438 188.617188 228.785156 188.625 C 229.269531 189.089844 229.765625 189.523438 230.257812 189.929688 L 230.429688 190.070312 L 230.621094 190.222656 C 230.789062 190.359375 230.960938 190.484375 231.128906 190.613281 C 231.492188 190.886719 231.851562 191.152344 232.214844 191.394531 L 232.40625 191.515625 C 232.84375 191.804688 233.277344 192.066406 233.710938 192.3125 C 233.761719 192.339844 233.8125 192.371094 233.867188 192.402344 L 233.992188 192.472656 L 234.214844 192.597656 C 234.671875 192.84375 235.125 193.066406 235.570312 193.273438 C 235.644531 193.304688 235.71875 193.34375 235.792969 193.375 L 235.878906 193.410156 L 236.023438 193.472656 C 236.253906 193.570312 236.472656 193.648438 236.699219 193.738281 C 236.925781 193.824219 237.152344 193.921875 237.375 194 L 237.570312 194.070312 L 237.734375 194.128906 C 238.226562 194.296875 238.71875 194.445312 239.1875 194.566406 L 239.382812 194.613281 C 239.800781 194.71875 240.207031 194.804688 240.601562 194.875 L 240.671875 194.886719 L 240.929688 194.933594 C 241.046875 194.953125 241.15625 194.96875 241.269531 194.984375 C 241.503906 195.019531 241.730469 195.046875 241.953125 195.070312 C 242.027344 195.078125 242.109375 195.089844 242.183594 195.097656 L 242.300781 195.105469 L 242.320312 195.105469 C 242.675781 195.132812 243.011719 195.148438 243.332031 195.148438 L 243.605469 195.148438 C 243.949219 195.144531 244.273438 195.128906 244.566406 195.097656 L 244.632812 195.089844 L 244.644531 195.085938 C 244.679688 195.082031 244.710938 195.078125 244.742188 195.070312 C 244.96875 195.042969 245.179688 195.003906 245.371094 194.960938 L 245.460938 194.9375 L 245.550781 194.917969 L 246.136719 194.710938 L 246.160156 194.695312 L 246.34375 194.5625 L 246.507812 194.445312 L 246.570312 194.371094 L 246.6875 194.066406 C 247.117188 193.613281 247.261719 193.101562 247.191406 192.554688 C 247.179688 192.445312 247.15625 192.332031 247.128906 192.222656 C 247.082031 192.050781 247.007812 191.875 246.925781 191.695312 C 245.621094 188.882812 240.054688 185.554688 238.359375 184.589844 C 238.511719 184.675781 238.699219 184.777344 238.914062 184.890625 L 239.144531 185.015625 C 239.300781 185.09375 239.464844 185.179688 239.640625 185.273438 L 239.976562 185.445312 L 240.027344 185.472656 C 240.199219 185.558594 240.375 185.648438 240.5625 185.742188 L 241.015625 185.964844 C 241.101562 186.007812 241.195312 186.054688 241.285156 186.097656 C 241.402344 186.15625 241.519531 186.210938 241.640625 186.273438 C 241.804688 186.351562 241.976562 186.429688 242.148438 186.511719 C 242.371094 186.617188 242.605469 186.726562 242.839844 186.832031 C 243.023438 186.917969 243.207031 187 243.398438 187.085938 C 243.652344 187.199219 243.914062 187.3125 244.175781 187.425781 C 244.367188 187.507812 244.550781 187.589844 244.746094 187.671875 C 245.050781 187.800781 245.363281 187.925781 245.675781 188.050781 L 246.164062 188.25 C 246.640625 188.4375 247.132812 188.621094 247.625 188.796875 L 247.921875 188.898438 C 248.320312 189.039062 248.726562 189.175781 249.128906 189.304688 C 249.3125 189.359375 249.496094 189.414062 249.675781 189.464844 C 250 189.5625 250.324219 189.660156 250.644531 189.75 C 250.851562 189.804688 251.058594 189.851562 251.261719 189.902344 C 251.5625 189.980469 251.863281 190.050781 252.160156 190.117188 C 252.371094 190.160156 252.582031 190.199219 252.792969 190.238281 C 252.984375 190.277344 253.175781 190.304688 253.367188 190.335938 C 253.460938 190.351562 253.558594 190.371094 253.652344 190.386719 C 253.800781 190.40625 253.949219 190.425781 254.09375 190.445312 C 254.152344 190.453125 254.210938 190.460938 254.273438 190.46875 C 254.554688 190.5 254.828125 190.523438 255.105469 190.539062 L 255.6875 190.570312 C 255.953125 190.578125 256.207031 190.566406 256.464844 190.558594 C 256.476562 190.558594 256.488281 190.558594 256.5 190.558594 L 256.535156 190.554688 L 257.023438 190.53125 C 257.308594 190.507812 257.578125 190.457031 257.84375 190.40625 L 258.257812 190.335938 C 258.648438 190.238281 259.023438 190.121094 259.371094 189.964844 C 259.511719 189.902344 259.640625 189.832031 259.765625 189.761719 C 259.890625 189.691406 260.007812 189.617188 260.121094 189.542969 L 260.253906 189.441406 L 260.320312 189.394531 L 260.734375 189.042969 L 260.777344 188.996094 L 260.910156 188.859375 L 261.117188 188.589844 L 261.230469 188.441406 L 261.335938 188.289062 C 261.363281 188.238281 261.386719 188.1875 261.410156 188.136719 C 261.445312 188.070312 261.480469 188 261.507812 187.933594 C 261.546875 187.84375 261.582031 187.757812 261.609375 187.667969 L 261.636719 187.539062 L 261.703125 187.175781 L 261.734375 187 L 261.746094 186.777344 L 261.734375 186.507812 L 261.722656 186.289062 L 261.695312 186.058594 L 261.640625 185.851562 L 261.542969 185.472656 L 261.503906 185.34375 C 261.417969 185.105469 261.308594 184.867188 261.175781 184.625 L 261.054688 184.433594 C 261.042969 184.414062 261.027344 184.398438 261.015625 184.378906 C 260.921875 184.222656 260.816406 184.0625 260.699219 183.910156 L 260.515625 183.671875 C 260.375 183.507812 260.226562 183.34375 260.066406 183.179688 L 260.027344 183.136719 L 259.863281 182.972656 C 259.625 182.746094 259.371094 182.527344 259.089844 182.3125 L 259.074219 182.300781 C 258.796875 182.089844 258.496094 181.890625 258.179688 181.699219 L 257.871094 181.519531 C 257.683594 181.414062 257.484375 181.3125 257.285156 181.210938 C 257.238281 181.1875 257.191406 181.160156 257.144531 181.136719 L 256.710938 180.933594 L 256.691406 180.925781 C 256.648438 180.90625 256.597656 180.886719 256.554688 180.867188 C 256.347656 180.78125 256.136719 180.691406 255.917969 180.609375 L 255.765625 180.550781 L 255.429688 180.429688 C 255.132812 180.328125 254.820312 180.234375 254.5 180.144531 L 254.046875 180.015625 C 253.5625 179.890625 253.058594 179.78125 252.53125 179.691406 L 252.5625 179.679688 L 252.765625 179.597656 C 252.789062 179.601562 252.8125 179.601562 252.839844 179.601562 C 253.953125 179.65625 255.015625 179.667969 256.03125 179.640625 C 256.300781 179.632812 256.550781 179.609375 256.804688 179.589844 C 256.886719 179.585938 256.964844 179.578125 257.046875 179.574219 C 257.398438 179.554688 257.753906 179.539062 258.105469 179.515625 C 258.410156 179.496094 258.714844 179.472656 259.003906 179.441406 C 259.277344 179.414062 259.53125 179.371094 259.789062 179.328125 C 259.894531 179.3125 260 179.296875 260.109375 179.28125 C 260.222656 179.261719 260.335938 179.246094 260.449219 179.230469 C 260.871094 179.171875 261.296875 179.113281 261.691406 179.035156 C 262.058594 178.960938 262.390625 178.867188 262.738281 178.785156 C 262.90625 178.742188 263.074219 178.703125 263.242188 178.664062 C 263.53125 178.597656 263.816406 178.527344 264.089844 178.445312 C 264.1875 178.417969 264.28125 178.382812 264.375 178.351562 C 264.601562 178.277344 264.820312 178.195312 265.046875 178.121094 C 265.4375 177.984375 265.839844 177.855469 266.203125 177.707031 C 266.328125 177.65625 266.445312 177.601562 266.566406 177.546875 C 266.703125 177.484375 266.835938 177.417969 266.972656 177.355469 C 267 177.34375 267.023438 177.332031 267.050781 177.320312 C 267.386719 177.164062 267.726562 177.011719 268.03125 176.847656 C 268.199219 176.757812 268.351562 176.664062 268.503906 176.570312 C 268.589844 176.515625 268.675781 176.464844 268.765625 176.410156 C 268.851562 176.359375 268.9375 176.304688 269.023438 176.253906 C 269.21875 176.132812 269.410156 176.015625 269.585938 175.890625 C 269.804688 175.738281 269.996094 175.578125 270.191406 175.421875 C 270.277344 175.355469 270.363281 175.285156 270.449219 175.21875 C 270.59375 175.105469 270.734375 174.988281 270.859375 174.871094 C 270.949219 174.792969 271.03125 174.710938 271.109375 174.628906 C 271.191406 174.546875 271.265625 174.464844 271.34375 174.382812 C 271.390625 174.335938 271.433594 174.289062 271.480469 174.242188 C 271.613281 174.097656 271.746094 173.957031 271.863281 173.816406 C 271.996094 173.652344 272.109375 173.488281 272.222656 173.320312 C 272.355469 173.132812 272.488281 172.941406 272.59375 172.753906 C 272.6875 172.589844 272.757812 172.429688 272.832031 172.269531 C 272.917969 172.082031 273 171.894531 273.058594 171.714844 L 273.070312 171.671875 L 273.175781 171.246094 L 273.210938 171.011719 L 273.257812 170.726562 L 273.253906 170.289062 L 273.230469 170.113281 L 273.195312 169.816406 L 273.070312 169.421875 L 272.875 169.015625 L 272.769531 168.867188 C 275.5625 168.398438 278.378906 168.039062 281.199219 167.855469 C 281.519531 167.835938 281.789062 167.789062 282.027344 167.730469 L 282.226562 167.65625 L 282.625 167.492188 L 282.898438 167.277344 L 282.980469 167.210938 L 283.171875 166.859375 L 283.1875 166.746094 L 283.210938 166.449219 L 283.179688 166.285156 L 283.105469 166 L 283.023438 165.8125 L 282.867188 165.519531 L 282.738281 165.320312 L 282.496094 165.011719 L 282.335938 164.820312 L 281.976562 164.46875 L 281.820312 164.320312 C 281.632812 164.152344 281.429688 163.988281 281.207031 163.828125 L 281.074219 163.738281 C 280.890625 163.609375 280.703125 163.484375 280.5 163.359375 L 280.226562 163.203125 L 279.714844 162.925781 L 279.378906 162.765625 L 278.851562 162.53125 L 278.484375 162.386719 L 277.914062 162.191406 L 277.539062 162.074219 L 276.894531 161.914062 L 276.546875 161.832031 C 276.449219 161.8125 276.347656 161.804688 276.25 161.789062 C 276.292969 161.722656 276.335938 161.652344 276.378906 161.585938 C 276.402344 161.582031 276.425781 161.578125 276.449219 161.578125 C 276.449219 161.578125 292.792969 153.320312 296.304688 139.28125 L 330.902344 114.214844 C 330.910156 114.214844 330.40625 103.1875 308.59375 115.71875 Z M 308.59375 115.71875 " fill-opacity="1" fill-rule="nonzero"/></g><path fill="#ffffff" d="M 106.449219 259.617188 C 106.449219 259.617188 111.839844 250.59375 100.976562 244.117188 C 96.890625 241.683594 93.660156 241.507812 88.492188 244.304688 C 95.714844 235.058594 101.433594 219.847656 101.433594 219.847656 C 101.433594 219.847656 87.394531 239.898438 79.871094 251.09375 C 81.308594 250.78125 82.746094 249.988281 84.160156 248.851562 C 84.945312 248.222656 85.71875 247.480469 86.484375 246.664062 C 90.050781 245.824219 95.910156 244.710938 98.425781 245.746094 C 103.191406 247.710938 107.699219 257.273438 104.234375 257.195312 C 103.382812 255.539062 101.070312 254.398438 98.507812 254.019531 C 98.507812 254.019531 100.304688 255.605469 101.265625 258.574219 C 102.226562 261.539062 100.972656 265.171875 100.972656 265.171875 C 100.972656 265.171875 101.753906 265.402344 102.519531 264.753906 C 103.570312 263.867188 104.597656 261.859375 103.605469 260.117188 C 105.101562 261.316406 110.628906 264.964844 111.296875 269.976562 C 112.746094 280.847656 101.644531 290.664062 101.644531 290.664062 C 101.644531 290.664062 111.628906 286.6875 114.804688 270.144531 C 115.308594 265.96875 106.449219 259.617188 106.449219 259.617188 Z M 106.449219 259.617188 " fill-opacity="1" fill-rule="nonzero"/><path fill="#ffffff" d="M 209.554688 146.183594 C 210.859375 146.183594 211.914062 145.886719 212.386719 145.082031 C 215.03125 140.566406 194.335938 127.535156 194.335938 127.535156 L 184.269531 57.9375 C 168.957031 45.933594 152.757812 41.832031 137.902344 41.832031 C 131.96875 41.832031 126.253906 42.484375 120.890625 43.550781 C 99.300781 47.839844 81.164062 67.605469 82.847656 68.289062 C 83.292969 68.46875 83.820312 68.550781 84.394531 68.550781 C 88.210938 68.550781 94.246094 65.109375 94.246094 65.109375 C 94.246094 65.109375 79.371094 81.652344 78.867188 88.003906 C 78.722656 89.878906 79.648438 90.539062 81.023438 90.539062 C 84.308594 90.539062 90.164062 86.785156 90.164062 86.785156 L 90.445312 116.285156 C 90.445312 116.285156 79.371094 146.65625 79.371094 150.164062 C 79.371094 151.082031 79.765625 151.460938 80.417969 151.460938 C 83.433594 151.460938 91.90625 143.398438 91.90625 143.398438 C 91.90625 143.398438 82.210938 159.023438 84.886719 164.703125 C 85.285156 165.550781 86.167969 165.910156 87.378906 165.910156 C 94.296875 165.910156 111.964844 154.175781 111.964844 154.175781 C 111.964844 154.175781 100.011719 181.933594 109.960938 183.25 C 110.394531 183.308594 110.84375 183.335938 111.300781 183.335938 C 122.792969 183.335938 140.882812 165.875 140.882812 165.875 C 140.882812 165.875 155.421875 193.78125 170.96875 194.113281 C 171.046875 194.117188 171.128906 194.117188 171.207031 194.117188 C 186.507812 194.117188 186.011719 162.195312 186.011719 162.195312 C 186.011719 162.195312 199.921875 173.042969 208.835938 173.042969 C 209.691406 173.042969 210.503906 172.945312 211.25 172.722656 C 219.777344 170.21875 200.21875 143.816406 200.21875 143.816406 C 200.21875 143.816406 205.871094 146.183594 209.554688 146.183594 Z M 209.554688 146.183594 " fill-opacity="1" fill-rule="nonzero"/><path fill="#9d9d9c" d="M 211.164062 152.734375 C 210.691406 151.9375 210.21875 151.15625 209.746094 150.402344 C 213.421875 150.34375 215.1875 148.644531 216.027344 147.214844 C 219.121094 141.9375 213.183594 136.210938 206.96875 131.304688 C 203.640625 128.679688 200.207031 126.335938 198.238281 125.039062 L 188.449219 57.332031 C 188.292969 56.257812 187.730469 55.285156 186.875 54.617188 C 172.480469 43.332031 156.003906 37.613281 137.902344 37.613281 C 132.082031 37.613281 126.078125 38.21875 120.066406 39.414062 C 108.269531 41.757812 98.097656 48.148438 91.636719 53.097656 C 88.371094 55.601562 85.25 58.371094 82.851562 60.894531 C 79.089844 64.855469 78.652344 66.460938 78.539062 67.652344 C 78.351562 69.632812 79.445312 71.460938 81.257812 72.199219 C 81.691406 72.375 82.152344 72.507812 82.636719 72.605469 C 75.859375 81.617188 74.832031 85.507812 74.660156 87.667969 C 74.457031 90.277344 75.414062 91.90625 76.253906 92.816406 C 77.074219 93.703125 78.566406 94.757812 81.027344 94.757812 C 82.585938 94.757812 84.339844 94.292969 86.011719 93.652344 L 86.214844 115.5625 C 85.457031 117.652344 83.175781 123.984375 80.917969 130.535156 C 75.148438 147.265625 75.148438 149.082031 75.148438 150.164062 C 75.148438 153.359375 77.367188 155.679688 80.417969 155.679688 C 80.726562 155.679688 81.054688 155.664062 81.414062 155.605469 C 79.90625 160.296875 79.808594 163.824219 81.066406 166.5 C 81.582031 167.589844 83.222656 170.132812 87.378906 170.132812 C 91.628906 170.132812 98.3125 167.054688 104.023438 163.914062 L 103.988281 164.039062 C 101.289062 173.304688 101.066406 179.433594 103.273438 183.324219 C 104.582031 185.625 106.757812 187.085938 109.402344 187.433594 C 110.015625 187.515625 110.652344 187.558594 111.296875 187.558594 C 120.988281 187.558594 133.460938 178.007812 139.835938 172.511719 C 141.511719 175.238281 143.894531 178.851562 146.789062 182.492188 C 155.011719 192.835938 163.113281 198.164062 170.875 198.332031 C 170.988281 198.335938 171.097656 198.335938 171.207031 198.335938 C 175.078125 198.335938 178.613281 196.824219 181.433594 193.960938 C 187.199219 188.105469 189.199219 177.433594 189.886719 170.023438 C 195.175781 173.351562 202.699219 177.261719 208.835938 177.261719 C 210.117188 177.261719 211.332031 177.097656 212.441406 176.773438 C 214.746094 176.09375 216.429688 174.484375 217.183594 172.238281 C 218.113281 169.46875 218.269531 164.746094 211.164062 152.734375 Z M 211.25 172.722656 C 210.503906 172.945312 209.691406 173.042969 208.835938 173.042969 C 199.921875 173.042969 186.011719 162.195312 186.011719 162.195312 C 186.011719 162.195312 186.507812 194.117188 171.207031 194.117188 C 171.128906 194.117188 171.046875 194.113281 170.96875 194.113281 C 155.421875 193.777344 140.882812 165.871094 140.882812 165.871094 C 140.882812 165.871094 122.792969 183.335938 111.300781 183.335938 C 110.84375 183.335938 110.394531 183.308594 109.960938 183.25 C 100.011719 181.933594 111.964844 154.175781 111.964844 154.175781 C 111.964844 154.175781 94.296875 165.910156 87.378906 165.910156 C 86.167969 165.910156 85.285156 165.550781 84.886719 164.703125 C 82.210938 159.019531 91.90625 143.398438 91.90625 143.398438 C 91.90625 143.398438 83.433594 151.460938 80.417969 151.460938 C 79.765625 151.460938 79.371094 151.082031 79.371094 150.164062 C 79.371094 146.65625 90.445312 116.285156 90.445312 116.285156 L 90.164062 86.78125 C 90.164062 86.78125 84.308594 90.539062 81.023438 90.539062 C 79.648438 90.539062 78.722656 89.878906 78.867188 88 C 79.371094 81.652344 94.246094 65.109375 94.246094 65.109375 C 94.246094 65.109375 88.210938 68.546875 84.394531 68.546875 C 83.820312 68.546875 83.292969 68.46875 82.847656 68.289062 C 81.164062 67.605469 99.300781 47.839844 120.890625 43.550781 C 126.253906 42.484375 131.96875 41.832031 137.902344 41.832031 C 152.757812 41.832031 168.957031 45.933594 184.269531 57.9375 L 194.335938 127.535156 C 194.335938 127.535156 215.03125 140.566406 212.386719 145.082031 C 211.914062 145.886719 210.859375 146.183594 209.554688 146.183594 C 205.871094 146.183594 200.21875 143.8125 200.21875 143.8125 C 200.21875 143.8125 219.777344 170.21875 211.25 172.722656 Z M 211.25 172.722656 " fill-opacity="1" fill-rule="nonzero"/><path fill="#d6d6d6" d="M 180.105469 105.351562 C 184.167969 102.21875 187.515625 93.347656 184.84375 80.148438 C 182.167969 66.945312 172.617188 56.53125 161.980469 55.570312 C 150.6875 54.550781 152.875 80.285156 146.507812 80.285156 C 141.496094 80.285156 137.425781 70.035156 130.125 64.574219 C 124.40625 60.296875 117.949219 60.574219 109.84375 68.566406 C 97.589844 80.648438 96.085938 90.675781 98.761719 98.695312 C 101.433594 106.714844 113.828125 119.71875 132.132812 115.460938 C 150.433594 111.199219 147.410156 102.191406 156.035156 100.003906 C 164.660156 97.816406 172.082031 111.53125 180.105469 105.351562 Z M 180.105469 105.351562 " fill-opacity="1" fill-rule="nonzero"/><path fill="#ffffff" d="M 137.53125 86.21875 C 137.703125 86.804688 137.847656 87.390625 137.976562 87.984375 C 138.101562 88.578125 138.203125 89.175781 138.28125 89.773438 C 138.363281 90.371094 138.421875 90.96875 138.453125 91.566406 C 138.488281 92.164062 138.496094 92.753906 138.484375 93.34375 C 138.472656 93.933594 138.433594 94.515625 138.375 95.09375 C 138.316406 95.667969 138.234375 96.234375 138.128906 96.792969 C 138.023438 97.351562 137.894531 97.894531 137.746094 98.429688 C 137.59375 98.960938 137.421875 99.480469 137.230469 99.984375 C 137.035156 100.488281 136.820312 100.976562 136.585938 101.445312 C 136.351562 101.917969 136.09375 102.367188 135.820312 102.800781 C 135.546875 103.230469 135.253906 103.644531 134.941406 104.03125 C 134.628906 104.421875 134.300781 104.785156 133.957031 105.128906 C 133.609375 105.472656 133.25 105.789062 132.875 106.082031 C 132.5 106.375 132.109375 106.644531 131.707031 106.882812 C 131.304688 107.125 130.890625 107.335938 130.46875 107.523438 C 130.042969 107.707031 129.609375 107.867188 129.164062 107.996094 C 128.71875 108.125 128.269531 108.222656 127.808594 108.292969 C 127.351562 108.367188 126.886719 108.40625 126.417969 108.421875 C 125.953125 108.433594 125.480469 108.414062 125.007812 108.371094 C 124.53125 108.324219 124.058594 108.25 123.582031 108.144531 C 123.105469 108.039062 122.632812 107.90625 122.164062 107.746094 C 121.691406 107.582031 121.222656 107.394531 120.757812 107.175781 C 120.296875 106.960938 119.839844 106.714844 119.386719 106.445312 C 118.9375 106.171875 118.496094 105.875 118.0625 105.554688 C 117.625 105.234375 117.203125 104.886719 116.789062 104.515625 C 116.378906 104.148438 115.976562 103.753906 115.589844 103.339844 C 115.203125 102.925781 114.828125 102.492188 114.46875 102.039062 C 114.109375 101.585938 113.765625 101.113281 113.441406 100.621094 C 113.113281 100.132812 112.804688 99.625 112.511719 99.105469 C 112.222656 98.582031 111.949219 98.046875 111.695312 97.5 C 111.441406 96.953125 111.210938 96.394531 110.996094 95.824219 C 110.785156 95.253906 110.59375 94.679688 110.425781 94.09375 C 110.253906 93.511719 110.105469 92.921875 109.980469 92.328125 C 109.855469 91.734375 109.753906 91.136719 109.671875 90.539062 C 109.59375 89.941406 109.535156 89.34375 109.503906 88.746094 C 109.46875 88.152344 109.457031 87.558594 109.472656 86.96875 C 109.484375 86.378906 109.519531 85.796875 109.578125 85.222656 C 109.640625 84.644531 109.722656 84.078125 109.828125 83.519531 C 109.933594 82.964844 110.058594 82.417969 110.210938 81.886719 C 110.359375 81.351562 110.535156 80.832031 110.726562 80.328125 C 110.921875 79.824219 111.136719 79.335938 111.371094 78.867188 C 111.605469 78.394531 111.859375 77.945312 112.136719 77.511719 C 112.410156 77.082031 112.703125 76.671875 113.015625 76.28125 C 113.328125 75.894531 113.65625 75.527344 114 75.183594 C 114.34375 74.839844 114.707031 74.523438 115.082031 74.230469 C 115.457031 73.9375 115.84375 73.671875 116.246094 73.429688 C 116.648438 73.191406 117.0625 72.976562 117.488281 72.792969 C 117.914062 72.605469 118.347656 72.449219 118.792969 72.320312 C 119.234375 72.191406 119.6875 72.089844 120.144531 72.019531 C 120.605469 71.949219 121.066406 71.90625 121.535156 71.894531 C 122.003906 71.882812 122.476562 71.898438 122.949219 71.945312 C 123.425781 71.992188 123.898438 72.066406 124.375 72.167969 C 124.847656 72.273438 125.324219 72.40625 125.792969 72.570312 C 126.265625 72.730469 126.734375 72.921875 127.195312 73.136719 C 127.660156 73.355469 128.117188 73.597656 128.566406 73.871094 C 129.019531 74.140625 129.460938 74.4375 129.894531 74.757812 C 130.328125 75.082031 130.753906 75.425781 131.164062 75.796875 C 131.578125 76.167969 131.980469 76.558594 132.367188 76.972656 C 132.753906 77.386719 133.128906 77.820312 133.488281 78.273438 C 133.847656 78.730469 134.1875 79.203125 134.515625 79.691406 C 134.84375 80.183594 135.152344 80.6875 135.441406 81.210938 C 135.734375 81.730469 136.007812 82.265625 136.261719 82.8125 C 136.511719 83.363281 136.746094 83.921875 136.957031 84.488281 C 137.171875 85.058594 137.363281 85.632812 137.53125 86.21875 Z M 137.53125 86.21875 " fill-opacity="1" fill-rule="nonzero"/><path fill="#99bdd5" d="M 135.046875 89.609375 C 135.246094 90.476562 135.382812 91.347656 135.460938 92.222656 C 135.535156 93.097656 135.546875 93.964844 135.5 94.816406 C 135.449219 95.671875 135.335938 96.496094 135.160156 97.296875 C 134.988281 98.09375 134.753906 98.847656 134.464844 99.558594 C 134.171875 100.269531 133.828125 100.925781 133.429688 101.523438 C 133.03125 102.121094 132.585938 102.652344 132.097656 103.113281 C 131.609375 103.574219 131.085938 103.957031 130.523438 104.265625 C 129.964844 104.570312 129.378906 104.792969 128.765625 104.933594 C 128.15625 105.074219 127.53125 105.128906 126.890625 105.097656 C 126.253906 105.066406 125.613281 104.949219 124.972656 104.75 C 124.332031 104.546875 123.699219 104.265625 123.082031 103.902344 C 122.464844 103.535156 121.867188 103.097656 121.292969 102.585938 C 120.722656 102.070312 120.183594 101.496094 119.675781 100.851562 C 119.171875 100.210938 118.710938 99.515625 118.292969 98.769531 C 117.875 98.023438 117.507812 97.242188 117.195312 96.417969 C 116.878906 95.597656 116.621094 94.753906 116.421875 93.886719 C 116.222656 93.023438 116.085938 92.148438 116.011719 91.273438 C 115.933594 90.398438 115.921875 89.53125 115.972656 88.679688 C 116.023438 87.824219 116.132812 87 116.308594 86.199219 C 116.484375 85.402344 116.714844 84.648438 117.007812 83.9375 C 117.300781 83.226562 117.644531 82.570312 118.042969 81.972656 C 118.441406 81.375 118.882812 80.84375 119.371094 80.382812 C 119.859375 79.921875 120.386719 79.539062 120.945312 79.234375 C 121.507812 78.925781 122.09375 78.703125 122.703125 78.5625 C 123.316406 78.421875 123.941406 78.367188 124.578125 78.398438 C 125.21875 78.429688 125.859375 78.546875 126.5 78.746094 C 127.140625 78.949219 127.769531 79.230469 128.386719 79.59375 C 129.007812 79.960938 129.605469 80.398438 130.175781 80.910156 C 130.75 81.425781 131.289062 82 131.792969 82.644531 C 132.300781 83.285156 132.761719 83.980469 133.179688 84.726562 C 133.597656 85.472656 133.960938 86.253906 134.277344 87.078125 C 134.589844 87.898438 134.847656 88.742188 135.046875 89.609375 Z M 135.046875 89.609375 " fill-opacity="1" fill-rule="nonzero"/><path fill="#002d4b" d="M 131.574219 90.453125 C 131.703125 91.007812 131.789062 91.566406 131.839844 92.128906 C 131.886719 92.691406 131.894531 93.246094 131.859375 93.792969 C 131.824219 94.34375 131.75 94.871094 131.636719 95.382812 C 131.523438 95.894531 131.371094 96.378906 131.179688 96.835938 C 130.992188 97.292969 130.765625 97.714844 130.507812 98.097656 C 130.25 98.484375 129.960938 98.824219 129.644531 99.121094 C 129.328125 99.417969 128.988281 99.664062 128.625 99.859375 C 128.261719 100.058594 127.878906 100.203125 127.484375 100.292969 C 127.085938 100.386719 126.683594 100.421875 126.269531 100.402344 C 125.855469 100.382812 125.441406 100.308594 125.027344 100.179688 C 124.613281 100.050781 124.203125 99.871094 123.804688 99.640625 C 123.402344 99.40625 123.019531 99.125 122.648438 98.796875 C 122.277344 98.46875 121.929688 98.101562 121.601562 97.6875 C 121.277344 97.277344 120.980469 96.832031 120.710938 96.355469 C 120.441406 95.878906 120.203125 95.375 120 94.847656 C 119.800781 94.320312 119.632812 93.78125 119.507812 93.226562 C 119.378906 92.671875 119.292969 92.113281 119.242188 91.550781 C 119.195312 90.988281 119.1875 90.433594 119.222656 89.886719 C 119.257812 89.335938 119.328125 88.808594 119.445312 88.296875 C 119.558594 87.785156 119.710938 87.300781 119.898438 86.84375 C 120.089844 86.386719 120.3125 85.964844 120.574219 85.582031 C 120.832031 85.195312 121.117188 84.855469 121.4375 84.558594 C 121.753906 84.261719 122.09375 84.015625 122.457031 83.820312 C 122.820312 83.621094 123.203125 83.476562 123.597656 83.386719 C 123.992188 83.292969 124.398438 83.257812 124.8125 83.277344 C 125.226562 83.296875 125.640625 83.371094 126.054688 83.5 C 126.46875 83.628906 126.878906 83.808594 127.277344 84.039062 C 127.675781 84.273438 128.0625 84.554688 128.433594 84.882812 C 128.804688 85.210938 129.152344 85.578125 129.476562 85.992188 C 129.804688 86.402344 130.101562 86.847656 130.371094 87.324219 C 130.640625 87.800781 130.878906 88.304688 131.078125 88.832031 C 131.28125 89.359375 131.449219 89.898438 131.574219 90.453125 Z M 131.574219 90.453125 " fill-opacity="1" fill-rule="nonzero"/><path fill="#ffffff" d="M 129.527344 87.503906 C 129.484375 87.511719 129.4375 87.527344 129.390625 87.535156 C 127.023438 87.96875 124.75 86.402344 124.316406 84.03125 C 124.265625 83.738281 124.242188 83.445312 124.246094 83.160156 C 124.285156 81.214844 125.628906 79.496094 127.566406 79.019531 C 127.652344 79 127.734375 78.976562 127.820312 78.960938 C 130.1875 78.527344 132.460938 80.09375 132.894531 82.460938 C 133.042969 83.269531 132.953125 84.066406 132.679688 84.78125 C 132.175781 86.125 131.019531 87.179688 129.527344 87.503906 Z M 129.527344 87.503906 " fill-opacity="1" fill-rule="nonzero"/><path fill="#ffffff" d="M 181.539062 80.03125 C 181.710938 80.613281 181.859375 81.203125 181.984375 81.796875 C 182.109375 82.390625 182.210938 82.988281 182.292969 83.585938 C 182.371094 84.183594 182.429688 84.78125 182.460938 85.378906 C 182.496094 85.972656 182.507812 86.566406 182.492188 87.15625 C 182.480469 87.746094 182.445312 88.328125 182.382812 88.902344 C 182.324219 89.480469 182.242188 90.046875 182.136719 90.605469 C 182.03125 91.160156 181.902344 91.707031 181.753906 92.242188 C 181.601562 92.773438 181.429688 93.292969 181.238281 93.796875 C 181.042969 94.300781 180.828125 94.789062 180.59375 95.257812 C 180.359375 95.730469 180.101562 96.179688 179.828125 96.613281 C 179.554688 97.042969 179.261719 97.453125 178.949219 97.84375 C 178.636719 98.234375 178.308594 98.597656 177.964844 98.941406 C 177.621094 99.285156 177.257812 99.601562 176.882812 99.894531 C 176.507812 100.1875 176.121094 100.453125 175.71875 100.695312 C 175.316406 100.9375 174.902344 101.148438 174.476562 101.335938 C 174.050781 101.519531 173.617188 101.675781 173.171875 101.804688 C 172.726562 101.933594 172.277344 102.035156 171.820312 102.105469 C 171.359375 102.175781 170.898438 102.21875 170.429688 102.230469 C 169.960938 102.246094 169.488281 102.226562 169.015625 102.179688 C 168.539062 102.136719 168.066406 102.058594 167.589844 101.957031 C 167.117188 101.851562 166.640625 101.71875 166.171875 101.554688 C 165.699219 101.394531 165.230469 101.207031 164.769531 100.988281 C 164.304688 100.769531 163.847656 100.527344 163.398438 100.253906 C 162.945312 99.984375 162.503906 99.6875 162.070312 99.367188 C 161.636719 99.042969 161.210938 98.699219 160.800781 98.328125 C 160.386719 97.960938 159.984375 97.566406 159.597656 97.152344 C 159.210938 96.738281 158.835938 96.304688 158.476562 95.851562 C 158.117188 95.394531 157.777344 94.921875 157.449219 94.433594 C 157.121094 93.941406 156.8125 93.4375 156.523438 92.914062 C 156.230469 92.394531 155.957031 91.859375 155.703125 91.3125 C 155.453125 90.761719 155.21875 90.203125 155.007812 89.636719 C 154.792969 89.066406 154.601562 88.492188 154.433594 87.90625 C 154.261719 87.324219 154.113281 86.734375 153.988281 86.140625 C 153.863281 85.546875 153.761719 84.949219 153.679688 84.351562 C 153.601562 83.753906 153.542969 83.15625 153.511719 82.558594 C 153.476562 81.960938 153.46875 81.371094 153.480469 80.78125 C 153.492188 80.191406 153.527344 79.609375 153.589844 79.03125 C 153.648438 78.457031 153.730469 77.890625 153.835938 77.332031 C 153.941406 76.777344 154.070312 76.230469 154.21875 75.695312 C 154.371094 75.164062 154.542969 74.644531 154.734375 74.140625 C 154.929688 73.636719 155.144531 73.148438 155.378906 72.679688 C 155.613281 72.207031 155.871094 71.757812 156.144531 71.324219 C 156.417969 70.894531 156.710938 70.484375 157.023438 70.09375 C 157.335938 69.703125 157.664062 69.339844 158.007812 68.996094 C 158.355469 68.652344 158.714844 68.335938 159.089844 68.042969 C 159.464844 67.75 159.855469 67.480469 160.257812 67.242188 C 160.660156 67 161.070312 66.789062 161.496094 66.601562 C 161.921875 66.417969 162.355469 66.261719 162.800781 66.128906 C 163.246094 66 163.695312 65.902344 164.15625 65.832031 C 164.613281 65.757812 165.078125 65.71875 165.542969 65.707031 C 166.011719 65.691406 166.484375 65.710938 166.957031 65.753906 C 167.433594 65.800781 167.90625 65.878906 168.382812 65.980469 C 168.859375 66.085938 169.332031 66.21875 169.800781 66.378906 C 170.273438 66.542969 170.742188 66.730469 171.203125 66.949219 C 171.667969 67.167969 172.125 67.410156 172.578125 67.679688 C 173.027344 67.953125 173.46875 68.25 173.902344 68.570312 C 174.335938 68.890625 174.761719 69.238281 175.175781 69.609375 C 175.585938 69.976562 175.988281 70.371094 176.375 70.785156 C 176.761719 71.199219 177.136719 71.632812 177.496094 72.085938 C 177.855469 72.542969 178.199219 73.011719 178.523438 73.503906 C 178.851562 73.996094 179.160156 74.5 179.453125 75.023438 C 179.742188 75.542969 180.015625 76.078125 180.269531 76.625 C 180.523438 77.171875 180.753906 77.730469 180.96875 78.300781 C 181.179688 78.871094 181.371094 79.445312 181.539062 80.03125 Z M 181.539062 80.03125 " fill-opacity="1" fill-rule="nonzero"/><path fill="#99bdd5" d="M 176.234375 82.714844 C 176.433594 83.582031 176.574219 84.453125 176.648438 85.328125 C 176.722656 86.207031 176.738281 87.070312 176.6875 87.925781 C 176.636719 88.777344 176.523438 89.605469 176.351562 90.402344 C 176.175781 91.199219 175.945312 91.957031 175.652344 92.667969 C 175.359375 93.378906 175.015625 94.035156 174.617188 94.632812 C 174.21875 95.230469 173.777344 95.757812 173.289062 96.21875 C 172.800781 96.679688 172.273438 97.066406 171.714844 97.371094 C 171.152344 97.679688 170.566406 97.902344 169.957031 98.042969 C 169.34375 98.183594 168.71875 98.238281 168.082031 98.207031 C 167.441406 98.175781 166.800781 98.058594 166.160156 97.855469 C 165.519531 97.65625 164.890625 97.371094 164.269531 97.007812 C 163.652344 96.644531 163.054688 96.207031 162.484375 95.691406 C 161.910156 95.179688 161.371094 94.601562 160.867188 93.960938 C 160.359375 93.316406 159.898438 92.625 159.480469 91.878906 C 159.0625 91.132812 158.695312 90.347656 158.382812 89.527344 C 158.066406 88.703125 157.8125 87.859375 157.613281 86.996094 C 157.414062 86.128906 157.277344 85.257812 157.199219 84.382812 C 157.125 83.503906 157.113281 82.640625 157.160156 81.785156 C 157.210938 80.933594 157.324219 80.105469 157.496094 79.308594 C 157.671875 78.511719 157.90625 77.753906 158.195312 77.042969 C 158.488281 76.332031 158.832031 75.675781 159.230469 75.078125 C 159.628906 74.480469 160.070312 73.953125 160.5625 73.492188 C 161.050781 73.03125 161.574219 72.644531 162.136719 72.339844 C 162.695312 72.03125 163.28125 71.808594 163.894531 71.667969 C 164.503906 71.527344 165.128906 71.472656 165.769531 71.503906 C 166.40625 71.535156 167.046875 71.652344 167.6875 71.855469 C 168.328125 72.054688 168.957031 72.339844 169.578125 72.703125 C 170.195312 73.066406 170.792969 73.503906 171.367188 74.019531 C 171.9375 74.53125 172.476562 75.109375 172.984375 75.75 C 173.488281 76.394531 173.949219 77.085938 174.367188 77.832031 C 174.785156 78.578125 175.152344 79.363281 175.464844 80.183594 C 175.78125 81.007812 176.039062 81.851562 176.234375 82.714844 Z M 176.234375 82.714844 " fill-opacity="1" fill-rule="nonzero"/><path fill="#002d4b" d="M 172.164062 84.125 C 172.292969 84.679688 172.378906 85.238281 172.429688 85.800781 C 172.476562 86.363281 172.484375 86.917969 172.449219 87.464844 C 172.414062 88.015625 172.339844 88.542969 172.226562 89.054688 C 172.113281 89.570312 171.960938 90.054688 171.773438 90.511719 C 171.582031 90.964844 171.359375 91.386719 171.097656 91.769531 C 170.839844 92.15625 170.550781 92.496094 170.234375 92.792969 C 169.917969 93.089844 169.578125 93.335938 169.214844 93.535156 C 168.851562 93.730469 168.46875 93.875 168.074219 93.964844 C 167.679688 94.058594 167.273438 94.09375 166.859375 94.074219 C 166.445312 94.054688 166.03125 93.980469 165.617188 93.851562 C 165.203125 93.726562 164.792969 93.542969 164.394531 93.3125 C 163.992188 93.078125 163.609375 92.796875 163.238281 92.46875 C 162.867188 92.140625 162.519531 91.773438 162.191406 91.363281 C 161.867188 90.949219 161.570312 90.507812 161.300781 90.027344 C 161.03125 89.550781 160.792969 89.046875 160.589844 88.519531 C 160.390625 87.996094 160.222656 87.453125 160.097656 86.898438 C 159.96875 86.34375 159.882812 85.785156 159.832031 85.222656 C 159.785156 84.660156 159.777344 84.105469 159.8125 83.558594 C 159.847656 83.011719 159.921875 82.480469 160.035156 81.96875 C 160.148438 81.457031 160.300781 80.972656 160.488281 80.515625 C 160.679688 80.058594 160.902344 79.636719 161.164062 79.253906 C 161.421875 78.867188 161.710938 78.527344 162.027344 78.230469 C 162.34375 77.9375 162.683594 77.6875 163.046875 77.492188 C 163.410156 77.292969 163.792969 77.148438 164.1875 77.058594 C 164.585938 76.96875 164.988281 76.929688 165.402344 76.949219 C 165.816406 76.96875 166.230469 77.042969 166.644531 77.171875 C 167.058594 77.300781 167.46875 77.480469 167.867188 77.710938 C 168.269531 77.945312 168.652344 78.226562 169.023438 78.554688 C 169.394531 78.882812 169.742188 79.25 170.070312 79.664062 C 170.394531 80.074219 170.691406 80.519531 170.960938 80.996094 C 171.230469 81.472656 171.46875 81.976562 171.671875 82.503906 C 171.871094 83.03125 172.039062 83.570312 172.164062 84.125 Z M 172.164062 84.125 " fill-opacity="1" fill-rule="nonzero"/><path fill="#ffffff" d="M 168.746094 80.609375 C 168.699219 80.621094 168.65625 80.632812 168.609375 80.640625 C 166.242188 81.078125 163.96875 79.507812 163.535156 77.140625 C 163.480469 76.847656 163.457031 76.554688 163.464844 76.269531 C 163.5 74.324219 164.847656 72.601562 166.785156 72.128906 C 166.867188 72.105469 166.949219 72.085938 167.039062 72.066406 C 169.40625 71.632812 171.679688 73.203125 172.109375 75.570312 C 172.257812 76.378906 172.167969 77.175781 171.898438 77.890625 C 171.390625 79.230469 170.238281 80.285156 168.746094 80.609375 Z M 168.746094 80.609375 " fill-opacity="1" fill-rule="nonzero"/><path fill="#e30613" d="M 185.738281 95.679688 C 185.753906 95.816406 185.734375 95.953125 185.679688 96.09375 C 185.621094 96.234375 185.523438 96.378906 185.394531 96.523438 C 185.261719 96.667969 185.09375 96.808594 184.894531 96.949219 C 184.691406 97.089844 184.460938 97.226562 184.199219 97.359375 C 183.9375 97.492188 183.648438 97.617188 183.335938 97.738281 C 183.019531 97.855469 182.6875 97.964844 182.335938 98.066406 C 181.984375 98.167969 181.617188 98.257812 181.238281 98.335938 C 180.859375 98.417969 180.476562 98.484375 180.085938 98.535156 C 179.699219 98.589844 179.308594 98.632812 178.925781 98.660156 C 178.539062 98.683594 178.164062 98.699219 177.796875 98.695312 C 177.429688 98.695312 177.078125 98.679688 176.742188 98.652344 C 176.410156 98.621094 176.097656 98.578125 175.808594 98.523438 C 175.519531 98.464844 175.261719 98.398438 175.027344 98.316406 C 174.796875 98.234375 174.597656 98.144531 174.433594 98.042969 C 174.265625 97.9375 174.136719 97.828125 174.042969 97.707031 C 173.949219 97.585938 173.890625 97.460938 173.871094 97.324219 C 173.855469 97.191406 173.875 97.054688 173.933594 96.914062 C 173.988281 96.773438 174.085938 96.628906 174.214844 96.484375 C 174.347656 96.339844 174.515625 96.199219 174.714844 96.058594 C 174.917969 95.917969 175.148438 95.78125 175.410156 95.648438 C 175.671875 95.515625 175.960938 95.390625 176.273438 95.269531 C 176.589844 95.152344 176.921875 95.039062 177.273438 94.941406 C 177.628906 94.839844 177.992188 94.75 178.371094 94.667969 C 178.75 94.589844 179.132812 94.523438 179.523438 94.46875 C 179.914062 94.417969 180.300781 94.375 180.6875 94.347656 C 181.070312 94.320312 181.449219 94.308594 181.816406 94.3125 C 182.179688 94.3125 182.53125 94.328125 182.867188 94.355469 C 183.199219 94.386719 183.511719 94.429688 183.800781 94.484375 C 184.089844 94.539062 184.347656 94.609375 184.582031 94.691406 C 184.8125 94.773438 185.011719 94.863281 185.175781 94.964844 C 185.34375 95.070312 185.472656 95.179688 185.566406 95.300781 C 185.664062 95.421875 185.71875 95.546875 185.738281 95.679688 Z M 185.738281 95.679688 " fill-opacity="1" fill-rule="nonzero"/><path fill="#e30613" d="M 122.222656 104.039062 C 122.238281 104.171875 122.21875 104.3125 122.164062 104.453125 C 122.105469 104.59375 122.007812 104.738281 121.878906 104.878906 C 121.746094 105.023438 121.578125 105.167969 121.378906 105.308594 C 121.175781 105.449219 120.945312 105.585938 120.683594 105.71875 C 120.421875 105.851562 120.132812 105.976562 119.820312 106.097656 C 119.503906 106.214844 119.171875 106.324219 118.820312 106.425781 C 118.46875 106.527344 118.101562 106.617188 117.722656 106.695312 C 117.34375 106.773438 116.960938 106.839844 116.570312 106.894531 C 116.179688 106.949219 115.792969 106.988281 115.410156 107.015625 C 115.023438 107.042969 114.644531 107.054688 114.28125 107.054688 C 113.914062 107.054688 113.5625 107.039062 113.226562 107.007812 C 112.894531 106.980469 112.582031 106.9375 112.292969 106.882812 C 112.003906 106.824219 111.746094 106.757812 111.511719 106.675781 C 111.28125 106.59375 111.082031 106.503906 110.917969 106.398438 C 110.75 106.296875 110.621094 106.183594 110.527344 106.066406 C 110.433594 105.945312 110.375 105.816406 110.355469 105.683594 C 110.339844 105.550781 110.359375 105.414062 110.414062 105.273438 C 110.472656 105.128906 110.570312 104.988281 110.699219 104.84375 C 110.832031 104.699219 111 104.558594 111.199219 104.417969 C 111.402344 104.273438 111.632812 104.136719 111.894531 104.003906 C 112.15625 103.875 112.445312 103.746094 112.757812 103.628906 C 113.074219 103.507812 113.40625 103.398438 113.757812 103.296875 C 114.109375 103.195312 114.476562 103.105469 114.855469 103.027344 C 115.234375 102.949219 115.617188 102.882812 116.007812 102.828125 C 116.398438 102.773438 116.785156 102.734375 117.171875 102.707031 C 117.554688 102.679688 117.933594 102.667969 118.296875 102.667969 C 118.664062 102.671875 119.015625 102.683594 119.351562 102.714844 C 119.683594 102.742188 119.996094 102.785156 120.285156 102.84375 C 120.574219 102.898438 120.832031 102.96875 121.066406 103.050781 C 121.296875 103.128906 121.496094 103.222656 121.660156 103.324219 C 121.828125 103.425781 121.957031 103.539062 122.050781 103.660156 C 122.144531 103.78125 122.203125 103.90625 122.222656 104.039062 Z M 122.222656 104.039062 " fill-opacity="1" fill-rule="nonzero"/><path fill="#f29222" d="M 172.578125 124.621094 C 172.578125 124.621094 166.894531 112.035156 182.925781 110.375 C 184.335938 104.496094 178.417969 96.648438 170.878906 93.398438 C 152.675781 85.554688 146.222656 104.597656 136 108.941406 C 132.371094 110.484375 128.691406 109.949219 128.691406 109.949219 C 128.691406 109.949219 121.597656 107 120.664062 110.550781 C 119.371094 115.464844 127.425781 117.296875 127.425781 117.296875 C 133.652344 141.480469 143.988281 146.136719 151.46875 148.488281 C 164.039062 152.4375 185.152344 140.273438 172.578125 124.621094 Z M 172.578125 124.621094 " fill-opacity="1" fill-rule="nonzero"/><path fill="#002d4b" d="M 175.074219 105.808594 C 167.785156 101.707031 161.167969 121.097656 133.164062 118.699219 C 137.171875 127.148438 143.714844 132.355469 150.355469 134.203125 C 166.613281 138.71875 172.03125 130.761719 172.632812 125.054688 C 172.632812 125.054688 167.496094 122.761719 168.878906 113.574219 C 169.472656 109.621094 175.074219 105.808594 175.074219 105.808594 Z M 175.074219 105.808594 " fill-opacity="1" fill-rule="nonzero"/><path fill="#e20613" d="M 143.332031 129.117188 C 144.769531 130.617188 148.0625 133.816406 157.691406 134.550781 C 157.691406 134.550781 154.996094 124.058594 143.332031 129.117188 Z M 143.332031 129.117188 " fill-opacity="1" fill-rule="nonzero"/><path fill="#ffffff" d="M 166.921875 94.707031 C 167.441406 94.882812 167.953125 95.070312 168.453125 95.273438 C 168.953125 95.480469 169.433594 95.695312 169.890625 95.917969 C 170.351562 96.144531 170.78125 96.378906 171.183594 96.617188 C 171.585938 96.855469 171.953125 97.097656 172.28125 97.339844 C 172.609375 97.582031 172.894531 97.824219 173.136719 98.058594 C 173.378906 98.296875 173.574219 98.527344 173.71875 98.75 C 173.867188 98.976562 173.964844 99.1875 174.007812 99.386719 C 174.054688 99.585938 174.050781 99.773438 173.992188 99.941406 C 173.9375 100.113281 173.828125 100.261719 173.671875 100.394531 C 173.515625 100.527344 173.3125 100.640625 173.058594 100.730469 C 172.808594 100.820312 172.511719 100.886719 172.175781 100.929688 C 171.839844 100.976562 171.46875 100.996094 171.058594 100.992188 C 170.648438 100.988281 170.214844 100.960938 169.75 100.910156 C 169.285156 100.863281 168.800781 100.789062 168.296875 100.691406 C 167.792969 100.597656 167.28125 100.480469 166.757812 100.34375 C 166.238281 100.203125 165.714844 100.050781 165.195312 99.875 C 164.671875 99.699219 164.164062 99.511719 163.664062 99.308594 C 163.164062 99.105469 162.683594 98.890625 162.222656 98.664062 C 161.765625 98.4375 161.332031 98.207031 160.933594 97.96875 C 160.53125 97.726562 160.164062 97.488281 159.835938 97.242188 C 159.507812 97 159.222656 96.761719 158.980469 96.523438 C 158.738281 96.285156 158.542969 96.054688 158.394531 95.832031 C 158.25 95.609375 158.152344 95.394531 158.105469 95.195312 C 158.0625 94.996094 158.066406 94.8125 158.121094 94.640625 C 158.179688 94.472656 158.285156 94.320312 158.445312 94.1875 C 158.601562 94.054688 158.804688 93.945312 159.058594 93.855469 C 159.308594 93.765625 159.601562 93.695312 159.941406 93.652344 C 160.277344 93.609375 160.648438 93.585938 161.058594 93.589844 C 161.464844 93.59375 161.902344 93.621094 162.367188 93.671875 C 162.832031 93.722656 163.316406 93.792969 163.820312 93.890625 C 164.320312 93.988281 164.835938 94.101562 165.355469 94.242188 C 165.878906 94.378906 166.398438 94.535156 166.921875 94.707031 Z M 166.921875 94.707031 " fill-opacity="1" fill-rule="nonzero"/><path fill="#ffffff" d="M 176.535156 100.480469 C 176.734375 100.5625 176.914062 100.667969 177.074219 100.796875 C 177.234375 100.925781 177.363281 101.066406 177.460938 101.222656 C 177.558594 101.378906 177.621094 101.535156 177.644531 101.695312 C 177.664062 101.855469 177.648438 102.003906 177.589844 102.140625 C 177.53125 102.28125 177.4375 102.398438 177.3125 102.496094 C 177.183594 102.59375 177.027344 102.660156 176.847656 102.703125 C 176.667969 102.742188 176.476562 102.75 176.269531 102.726562 C 176.066406 102.707031 175.867188 102.652344 175.667969 102.574219 C 175.472656 102.492188 175.292969 102.386719 175.132812 102.257812 C 174.972656 102.128906 174.84375 101.984375 174.746094 101.832031 C 174.644531 101.675781 174.585938 101.515625 174.5625 101.359375 C 174.542969 101.199219 174.558594 101.050781 174.617188 100.910156 C 174.675781 100.773438 174.765625 100.652344 174.894531 100.558594 C 175.023438 100.460938 175.179688 100.390625 175.359375 100.351562 C 175.539062 100.3125 175.730469 100.300781 175.933594 100.324219 C 176.140625 100.347656 176.339844 100.398438 176.535156 100.480469 Z M 176.535156 100.480469 " fill-opacity="1" fill-rule="nonzero"/><path fill="#002d4b" d="M 155.089844 68.785156 C 153.589844 70.519531 151.117188 68.292969 151.542969 66.425781 C 151.96875 64.554688 154.1875 56.398438 160.785156 55.136719 C 171.136719 53.160156 179.113281 63.253906 179.113281 63.253906 C 182.304688 66.347656 181.269531 68.6875 180.023438 67.863281 C 160.992188 55.246094 157.941406 65.480469 155.089844 68.785156 Z M 155.089844 68.785156 " fill-opacity="1" fill-rule="nonzero"/><path fill="#002d4b" d="M 134.34375 70.347656 C 135.621094 69.976562 134.433594 67.386719 134.433594 67.386719 C 133.089844 65.765625 126.203125 57.1875 118.316406 58.425781 C 110.429688 59.660156 102.75 69.699219 100.40625 74.128906 C 98.289062 78.132812 102.3125 79.328125 103.316406 78.125 C 109.96875 70.15625 114.796875 67.359375 118.5 66.734375 C 125.171875 65.609375 130.519531 71.457031 134.34375 70.347656 Z M 134.34375 70.347656 " fill-opacity="1" fill-rule="nonzero"/><path fill="#9d9d9c" d="M 165.578125 152.796875 C 165.578125 152.796875 161.316406 159.0625 150.03125 152.796875 C 159.058594 160.566406 165.828125 159.0625 165.578125 152.796875 Z M 165.578125 152.796875 " fill-opacity="1" fill-rule="nonzero"/></svg>