<?xml version="1.0" encoding="utf-8"?>
<!-- Generator: Adobe Illustrator 27.2.0, SVG Export Plug-In . SVG Version: 6.00 Build 0)  -->
<svg version="1.1" id="Layer_1" xmlns="http://www.w3.org/2000/svg" xmlns:xlink="http://www.w3.org/1999/xlink" x="0px" y="0px"
	 viewBox="0 0 500 500" style="enable-background:new 0 0 500 500;" xml:space="preserve">
<style type="text/css">
	.st0{clip-path:url(#SVGID_00000029022278840515296410000013779454807573739651_);}
	.st1{fill:#F29222;}
	.st2{clip-path:url(#SVGID_00000142887810439257162710000001457743148745845404_);}
	.st3{fill:#005995;}
	.st4{fill:#C90005;}
	.st5{fill:#FF9C1F;}
	.st6{clip-path:url(#SVGID_00000000938445702031080050000017358396042902968502_);}
	.st7{clip-path:url(#SVGID_00000048464951976479814550000000441939271862326959_);}
	.st8{fill:#D33A22;}
	.st9{fill:#FFFFFF;}
	.st10{fill:#9D9D9C;}
	.st11{fill:#D6D6D6;}
	.st12{fill:#99BDD5;}
	.st13{fill:#002D4B;}
	.st14{fill:#E30613;}
	.st15{fill:#E20613;}
	.st16{fill:#A51515;}
	.st17{fill:#AA0900;}
	.st18{fill:#FFECDF;}
	.st19{fill:#F9FFE9;}
	.st20{fill:#FFEDAA;}
	.st21{opacity:0.25;}
	.st22{opacity:0.43;}
	.st23{opacity:0.31;}
</style>
<g>
	<defs>
		<rect id="SVGID_1_" x="301.3" y="392" width="97.3" height="89.2"/>
	</defs>
	<clipPath id="SVGID_00000040552601774549464970000004549420122881973648_">
		<use xlink:href="#SVGID_1_"  style="overflow:visible;"/>
	</clipPath>
	<g style="clip-path:url(#SVGID_00000040552601774549464970000004549420122881973648_);">
		<path class="st1" d="M324.2,472.7c1-3.9,9.2-7.8,10.5-8.4c-6.4-12.6-33.1-57.7-33.1-57.7s13.1-22.5,23.3-9.9
			c10.2,12.6,18.5,63.7,18.5,63.7c10.2-4.3,26.7-10,32.7-5.3c2.1-0.1,6.3,0.2,7,4.2c-0.8-0.5-2.6-1.7-5.7-0.9
			c-0.8,1.2-3.1,2.2-6.2,2.9c8.9,0.6,16.8,2.8,20.2,8c0.5,0.8,0.8,1.4,1,2.1c2.6,1.6,6.3,4.9,4.5,9.8c-0.7-1.3-2.2-4.5-7.7-5.7
			c-11.6,3.5-49-4.8-49-4.8s-8.9,9.6-14.3,5.8c-3.6,1.1-4.7,3.4-5.2,4.4C319.1,476.7,322.1,474,324.2,472.7z"/>
	</g>
</g>
<g>
	<defs>
		<rect id="SVGID_00000078747543419006728520000009144097119487536523_" x="133.3" y="392" width="97.3" height="89.2"/>
	</defs>
	<clipPath id="SVGID_00000047766197539113103960000002749764093032910486_">
		<use xlink:href="#SVGID_00000078747543419006728520000009144097119487536523_"  style="overflow:visible;"/>
	</clipPath>
	<g style="clip-path:url(#SVGID_00000047766197539113103960000002749764093032910486_);">
		<path class="st1" d="M207.6,472.7c-1-3.9-9.2-7.8-10.5-8.4c6.4-12.6,33.1-57.7,33.1-57.7s-13.1-22.5-23.3-9.9
			c-10.2,12.6-18.5,63.7-18.5,63.7c-10.2-4.3-26.7-10-32.7-5.3c-2.1-0.1-6.3,0.2-7,4.2c0.8-0.5,2.6-1.7,5.7-0.9
			c0.8,1.2,3.1,2.2,6.2,2.9c-8.9,0.6-16.8,2.8-20.2,8c-0.5,0.8-0.8,1.4-1,2.1c-2.6,1.6-6.3,4.9-4.5,9.8c0.7-1.3,2.2-4.5,7.7-5.7
			c11.6,3.5,49-4.8,49-4.8s8.9,9.6,14.3,5.8c3.6,1.1,4.7,3.4,5.2,4.4C212.8,476.7,209.8,474,207.6,472.7z"/>
	</g>
</g>
<path class="st3" d="M454.3,230.9c0.2-1.8,10.1-15.8,0.4-17.9c-2.4-31.7-21.1-54.1-42.8-55c-19.7-0.8-26.1,6-28,9.3
	c0,0-26.1,4.3-28.4,27.7c-2.2,22.3-36.6-8.2-65,0.7c-14.1-4.8-30.3-6.8-48.6-5.2c-14.8,1.3-27.5,5.4-38.3,11.4
	c-1.4-0.6-3-1.1-4.8-1.4c-31.9-4.6-57.9,39.7-67,18c-9-21.7,0-56.6,0-56.6c-15.1-35.8-72.8-5.6-35.3,38.3
	c-2.8-2.6-10.8-7.3-29.5-0.8c-20.5,7.2-31.8,34.1-24.9,65.1c-8.6,4.9,4.9,15.4,5.6,17c-6.6,4.4-7.2,10.3,7.7,12
	c-12.2,15.9,14.9,12.2,14.9,12.2s-11.7,9.2,1.6,11.6c11.6,2,20.6,1.8,20.6,1.8s-13.5,6.5,0.2,9.6c8.6,1.9,34.2-3.7,54-11.6
	c3.2-1.3,7.7-3.8,12.7-7c1.2,7.9,3,15.8,5.5,23.5c-4.6-3-8.9-5-11.8-4.7c-7.6,0.6-7.8,9.6-7.8,9.6s-6.9-5.5-13.5-0.6
	c-5.7,4.2-0.4,12.2-0.4,12.2s-16.2,0.1-14.8,11.5c2.4,19.7,53.9,16.5,53.9,16.5c7.7-0.2,12.9-1.6,16.4-3.6
	c4.2,5.2,8.7,9.9,13.7,14.3c-3.1,2.6-6.4,5.6-8.8,8.5c-4.2,5.2-1,10.5,3.8,11.4c0,10.4,21.2,21.3,31.9,16.7c3.6,3.6,11,1.8,12.2-5.3
	c0.5-3.2,0.5-6.8,0.1-10.3c12,3.3,25.2,4.5,39.5,3.1c4.3-0.4,8.5-1.1,12.5-2.1c-0.1,3.8,0.2,7.6,1,10.9c1.7,7,9.3,8.2,12.6,4.3
	c11,3.6,31.3-8.9,30.5-19.3c4.7-1.2,7.5-6.8,2.8-11.6c-2.2-2.2-4.9-4.5-7.7-6.5c23.1-23.6,33-60.9,29.2-96.7
	c3.7,0.9,6.9,1.5,9.4,1.7c21.2,1.8,47.4-0.3,55-4.7c12.3-7-2.6-9.3-2.6-9.3s8.6-2.4,19.2-7.7c12.1-6.1-1.8-11.5-1.8-11.5
	s27-4.4,10.7-16C464.2,238.7,461.9,233.1,454.3,230.9z"/>
<path class="st4" d="M165.2,211c0,0,4.2,87.1,0,117.1c0,0,61.2,64.8,191,15.9c0,0-15.6-53.6-7.1-139.7h-5.7c0,0,23,48.4-31.1,16.9
	c0,0,4.4,47.9-39.9,35.9l-28.8-29.9c0,0-29.6,28.1-46.1,11.5c0,0-5.7-8.3,0.9-25.5C198.5,213.2,168.4,235.1,165.2,211z"/>
<ellipse class="st5" cx="264" cy="274.5" rx="62" ry="58.7"/>
<g>
	<defs>
		
			<rect id="SVGID_00000003804684588378793450000016306441402058757530_" x="209.5" y="221.8" transform="matrix(0.9993 -3.777950e-02 3.777950e-02 0.9993 -10.181 10.1681)" width="109" height="105.4"/>
	</defs>
	<clipPath id="SVGID_00000119811891879901294570000016175624669411397047_">
		<use xlink:href="#SVGID_00000003804684588378793450000016306441402058757530_"  style="overflow:visible;"/>
	</clipPath>
	<g style="clip-path:url(#SVGID_00000119811891879901294570000016175624669411397047_);">
		<g>
			<defs>
				
					<ellipse id="SVGID_00000049922969554297124830000016337928923833878917_" transform="matrix(0.9993 -3.777878e-02 3.777878e-02 0.9993 -10.1784 10.1677)" cx="264" cy="274.4" rx="54.5" ry="52.8"/>
			</defs>
			<clipPath id="SVGID_00000125594845614056406750000014722252903028062343_">
				<use xlink:href="#SVGID_00000049922969554297124830000016337928923833878917_"  style="overflow:visible;"/>
			</clipPath>
			<g style="clip-path:url(#SVGID_00000125594845614056406750000014722252903028062343_);">
				<g transform="matrix(0.678209, 0, 0, 0.678209, 17.947763, 26.576485)">
					
						<image style="overflow:visible;enable-background:new    ;" width="500" height="500" xlink:href="20763670.jpg"  transform="matrix(0.3213 -1.214704e-02 1.176214e-02 0.3111 279.4638 290.6785)">
					</image>
				</g>
			</g>
		</g>
	</g>
</g>
<path class="st8" d="M289.7,289.8c0,0,0,0,0.4,0.6l-0.3-0.1C289.7,290,289.7,289.8,289.7,289.8z"/>
<path class="st9" d="M201.9,314.4C201.9,314.4,201.9,314.5,201.9,314.4C201.9,314.5,201.9,314.4,201.9,314.4z"/>
<path class="st9" d="M102.6,209.6c0,0,24,16,9.4,46.9s-35,19.4-35,19.4s9.8,9.5,3.9,13.6c7.5,2.9,6.5-4.6,6.5-4.6s25.9,3.1,36-25.7
	C129.3,242.6,133.3,224.7,102.6,209.6z"/>
<path class="st8" d="M251.4,255.6c0,0,0,0,0.4,0.7l-0.3-0.1C251.4,255.9,251.4,255.6,251.4,255.6z"/>
<path class="st9" d="M338.8,188.5c1.7,0,3.1-0.4,3.7-1.5c3.5-6-23.8-23.2-23.8-23.2l-13.3-92c-20.2-15.9-41.6-21.3-61.2-21.3
	c-7.8,0-15.4,0.9-22.5,2.3c-28.5,5.7-52.5,31.8-50.2,32.7c0.6,0.2,1.3,0.3,2,0.3c5,0,13-4.5,13-4.5s-19.6,21.9-20.3,30.3
	c-0.2,2.5,1,3.3,2.8,3.3c4.3,0,12.1-5,12.1-5l0.4,39c0,0-14.6,40.1-14.6,44.8c0,1.2,0.5,1.7,1.4,1.7c4,0,15.2-10.7,15.2-10.7
	s-12.8,20.6-9.3,28.2c0.5,1.1,1.7,1.6,3.3,1.6c9.1,0,32.5-15.5,32.5-15.5s-15.8,36.7-2.7,38.4c0.6,0.1,1.2,0.1,1.8,0.1
	c15.2,0,39.1-23.1,39.1-23.1s19.2,36.9,39.7,37.3c0.1,0,0.2,0,0.3,0c20.2,0,19.5-42.2,19.5-42.2s18.4,14.3,30.1,14.3
	c1.1,0,2.2-0.1,3.2-0.4c11.3-3.3-14.6-38.2-14.6-38.2S334,188.5,338.8,188.5z"/>
<path class="st10" d="M341,197.2c-0.6-1.1-1.2-2.1-1.9-3.1c4.9-0.1,7.2-2.3,8.3-4.2c4.1-7-3.8-14.5-12-21c-4.4-3.5-8.9-6.6-11.5-8.3
	L311,71.1c-0.2-1.4-0.9-2.7-2.1-3.6c-19-14.9-40.8-22.5-64.7-22.5c-7.7,0-15.6,0.8-23.6,2.4c-15.6,3.1-29,11.5-37.5,18.1
	c-4.3,3.3-8.4,7-11.6,10.3c-5,5.2-5.5,7.3-5.7,8.9c-0.2,2.6,1.2,5,3.6,6c0.6,0.2,1.2,0.4,1.8,0.5c-9,11.9-10.3,17.1-10.5,19.9
	c-0.3,3.4,1,5.6,2.1,6.8c1.1,1.2,3.1,2.6,6.3,2.6c2.1,0,4.4-0.6,6.6-1.5l0.3,28.9c-1,2.8-4,11.1-7,19.8c-7.6,22.1-7.6,24.5-7.6,25.9
	c0,4.2,2.9,7.3,7,7.3c0.4,0,0.8,0,1.3-0.1c-2,6.2-2.1,10.9-0.5,14.4c0.7,1.4,2.9,4.8,8.3,4.8c5.6,0,14.4-4.1,22-8.2l0,0.2
	c-3.6,12.2-3.9,20.3-0.9,25.5c1.7,3,4.6,5,8.1,5.4c0.8,0.1,1.6,0.2,2.5,0.2c12.8,0,29.3-12.6,37.7-19.9c2.2,3.6,5.4,8.4,9.2,13.2
	c10.9,13.7,21.6,20.7,31.8,20.9c0.1,0,0.3,0,0.4,0c5.1,0,9.8-2,13.5-5.8c7.6-7.7,10.3-21.8,11.2-31.6c7,4.4,16.9,9.6,25,9.6
	c1.7,0,3.3-0.2,4.8-0.7c3-0.9,5.3-3,6.3-6C350.1,219.3,350.3,213.1,341,197.2z M341.1,223.6c-1,0.3-2.1,0.4-3.2,0.4
	c-11.8,0-30.1-14.3-30.1-14.3s0.7,42.2-19.6,42.2c-0.1,0-0.2,0-0.3,0c-20.5-0.4-39.7-37.3-39.7-37.3s-23.9,23.1-39.1,23.1
	c-0.6,0-1.2,0-1.8-0.1c-13.1-1.7,2.6-38.4,2.6-38.4s-23.3,15.5-32.5,15.5c-1.6,0-2.8-0.5-3.3-1.6c-3.5-7.5,9.3-28.2,9.3-28.2
	s-11.2,10.7-15.2,10.7c-0.9,0-1.4-0.5-1.4-1.7c0-4.6,14.6-44.8,14.6-44.8l-0.4-39c0,0-7.7,5-12.1,5c-1.8,0-3-0.9-2.8-3.3
	c0.7-8.4,20.3-30.3,20.3-30.3s-8,4.5-13,4.5c-0.8,0-1.5-0.1-2-0.3c-2.2-0.9,21.7-27,50.2-32.7c7.1-1.4,14.6-2.3,22.5-2.3
	c19.6,0,41,5.4,61.2,21.3l13.3,92c0,0,27.3,17.2,23.8,23.2c-0.6,1.1-2,1.5-3.7,1.5c-4.9,0-12.3-3.1-12.3-3.1
	S352.3,220.3,341.1,223.6z"/>
<path class="st11" d="M299.9,134.6c5.4-4.1,9.8-15.9,6.3-33.3S290,70.1,276,68.8c-14.9-1.3-12,32.7-20.4,32.7
	c-6.6,0-12-13.5-21.6-20.8c-7.6-5.7-16.1-5.3-26.8,5.3c-16.2,16-18.2,29.2-14.6,39.8c3.5,10.6,19.9,27.8,44.1,22.2
	s20.2-17.5,31.6-20.4C279.5,124.6,289.3,142.8,299.9,134.6z"/>
<path class="st9" d="M262.9,197.1c0.2,0.8,0.4,1.6,0.6,2.3c0.2,0.8,0.3,1.6,0.4,2.4c0.1,0.8,0.2,1.6,0.2,2.4c0,0.8,0.1,1.6,0,2.3
	c0,0.8-0.1,1.5-0.1,2.3c-0.1,0.8-0.2,1.5-0.3,2.2c-0.1,0.7-0.3,1.5-0.5,2.2c-0.2,0.7-0.4,1.4-0.7,2.1c-0.3,0.7-0.5,1.3-0.9,1.9
	c-0.3,0.6-0.6,1.2-1,1.8c-0.4,0.6-0.8,1.1-1.2,1.6c-0.4,0.5-0.8,1-1.3,1.5c-0.5,0.5-0.9,0.9-1.4,1.3c-0.5,0.4-1,0.7-1.5,1.1
	c-0.5,0.3-1.1,0.6-1.6,0.8c-0.6,0.2-1.1,0.5-1.7,0.6c-0.6,0.2-1.2,0.3-1.8,0.4c-0.6,0.1-1.2,0.2-1.8,0.2c-0.6,0-1.2,0-1.9-0.1
	s-1.2-0.2-1.9-0.3c-0.6-0.1-1.2-0.3-1.9-0.5c-0.6-0.2-1.2-0.5-1.9-0.8c-0.6-0.3-1.2-0.6-1.8-1c-0.6-0.4-1.2-0.7-1.8-1.2
	c-0.6-0.4-1.1-0.9-1.7-1.4c-0.5-0.5-1.1-1-1.6-1.6c-0.5-0.5-1-1.1-1.5-1.7c-0.5-0.6-0.9-1.2-1.4-1.9c-0.4-0.6-0.8-1.3-1.2-2
	c-0.4-0.7-0.7-1.4-1.1-2.1c-0.3-0.7-0.6-1.5-0.9-2.2c-0.3-0.8-0.5-1.5-0.8-2.3c-0.2-0.8-0.4-1.5-0.6-2.3c-0.2-0.8-0.3-1.6-0.4-2.4
	c-0.1-0.8-0.2-1.6-0.2-2.4c0-0.8-0.1-1.6,0-2.3c0-0.8,0.1-1.6,0.1-2.3c0.1-0.8,0.2-1.5,0.3-2.2c0.1-0.7,0.3-1.5,0.5-2.2
	c0.2-0.7,0.4-1.4,0.7-2.1c0.3-0.7,0.5-1.3,0.9-1.9c0.3-0.6,0.6-1.2,1-1.8c0.4-0.6,0.8-1.1,1.2-1.6c0.4-0.5,0.8-1,1.3-1.4
	c0.5-0.5,0.9-0.9,1.4-1.3c0.5-0.4,1-0.7,1.5-1.1c0.5-0.3,1.1-0.6,1.6-0.8c0.6-0.2,1.1-0.5,1.7-0.6c0.6-0.2,1.2-0.3,1.8-0.4
	s1.2-0.2,1.8-0.2c0.6,0,1.2,0,1.9,0.1c0.6,0.1,1.2,0.2,1.9,0.3c0.6,0.1,1.2,0.3,1.9,0.5c0.6,0.2,1.2,0.5,1.9,0.8
	c0.6,0.3,1.2,0.6,1.8,1c0.6,0.4,1.2,0.8,1.8,1.2c0.6,0.4,1.1,0.9,1.7,1.4c0.5,0.5,1.1,1,1.6,1.6c0.5,0.5,1,1.1,1.5,1.7
	s0.9,1.2,1.4,1.9c0.4,0.7,0.8,1.3,1.2,2c0.4,0.7,0.7,1.4,1.1,2.1c0.3,0.7,0.6,1.5,0.9,2.2C262.4,195.6,262.7,196.4,262.9,197.1z"/>
<path class="st12" d="M240.4,113.8c0.3,1.1,0.4,2.3,0.5,3.5c0.1,1.2,0.1,2.3,0.1,3.4c-0.1,1.1-0.2,2.2-0.4,3.3
	c-0.2,1.1-0.5,2.1-0.9,3c-0.4,0.9-0.8,1.8-1.4,2.6c-0.5,0.8-1.1,1.5-1.8,2.1c-0.6,0.6-1.3,1.1-2.1,1.5c-0.7,0.4-1.5,0.7-2.3,0.9
	c-0.8,0.2-1.6,0.3-2.5,0.2c-0.8,0-1.7-0.2-2.5-0.5c-0.8-0.3-1.7-0.6-2.5-1.1c-0.8-0.5-1.6-1.1-2.4-1.7c-0.8-0.7-1.5-1.4-2.1-2.3
	c-0.7-0.8-1.3-1.8-1.8-2.8c-0.6-1-1-2-1.5-3.1c-0.4-1.1-0.8-2.2-1-3.3c-0.3-1.1-0.4-2.3-0.5-3.5c-0.1-1.2-0.1-2.3,0-3.4
	c0.1-1.1,0.2-2.2,0.4-3.3c0.2-1.1,0.5-2.1,0.9-3c0.4-0.9,0.8-1.8,1.4-2.6c0.5-0.8,1.1-1.5,1.8-2.1s1.3-1.1,2.1-1.5
	c0.7-0.4,1.5-0.7,2.3-0.9c0.8-0.2,1.6-0.3,2.5-0.2s1.7,0.2,2.5,0.5c0.8,0.3,1.7,0.6,2.5,1.1c0.8,0.5,1.6,1.1,2.4,1.7
	c0.8,0.7,1.5,1.4,2.1,2.3c0.7,0.8,1.3,1.8,1.8,2.8c0.6,1,1,2,1.4,3.1C239.8,111.5,240.2,112.6,240.4,113.8z"/>
<path class="st13" d="M235.8,114.9c0.2,0.7,0.3,1.5,0.3,2.2c0.1,0.7,0.1,1.5,0,2.2s-0.1,1.4-0.3,2.1c-0.2,0.7-0.4,1.3-0.6,1.9
	c-0.2,0.6-0.5,1.2-0.9,1.7c-0.3,0.5-0.7,1-1.1,1.3c-0.4,0.4-0.9,0.7-1.3,1c-0.5,0.3-1,0.5-1.5,0.6c-0.5,0.1-1.1,0.2-1.6,0.1
	c-0.5,0-1.1-0.1-1.6-0.3c-0.5-0.2-1.1-0.4-1.6-0.7c-0.5-0.3-1-0.7-1.5-1.1c-0.5-0.4-0.9-0.9-1.4-1.5c-0.4-0.5-0.8-1.1-1.2-1.8
	c-0.4-0.6-0.7-1.3-0.9-2c-0.3-0.7-0.5-1.4-0.7-2.1c-0.2-0.7-0.3-1.5-0.3-2.2c-0.1-0.7-0.1-1.5,0-2.2c0-0.7,0.1-1.4,0.3-2.1
	s0.3-1.3,0.6-1.9c0.3-0.6,0.5-1.2,0.9-1.7c0.3-0.5,0.7-1,1.1-1.3c0.4-0.4,0.9-0.7,1.3-1c0.5-0.3,1-0.5,1.5-0.6
	c0.5-0.1,1.1-0.2,1.6-0.1c0.5,0,1.1,0.1,1.6,0.3c0.5,0.2,1.1,0.4,1.6,0.7c0.5,0.3,1,0.7,1.5,1.1c0.5,0.4,1,0.9,1.4,1.5
	c0.4,0.5,0.8,1.1,1.2,1.8c0.4,0.6,0.7,1.3,0.9,2C235.5,113.5,235.7,114.2,235.8,114.9z"/>
<path class="st9" d="M233.1,111c-0.1,0-0.1,0-0.2,0c-3.1,0.6-6.1-1.5-6.7-4.6c-0.1-0.4-0.1-0.8-0.1-1.2c0-2.6,1.8-4.8,4.4-5.5
	c0.1,0,0.2-0.1,0.3-0.1c3.1-0.6,6.1,1.5,6.7,4.6c0.2,1.1,0.1,2.1-0.3,3.1C236.6,109.2,235.1,110.6,233.1,111z"/>
<path class="st9" d="M301.8,101.1c0.2,0.8,0.4,1.6,0.6,2.3c0.2,0.8,0.3,1.6,0.4,2.4c0.1,0.8,0.2,1.6,0.2,2.4c0,0.8,0.1,1.6,0,2.3
	c0,0.8-0.1,1.5-0.1,2.3c-0.1,0.8-0.2,1.5-0.3,2.2c-0.1,0.7-0.3,1.5-0.5,2.2s-0.4,1.4-0.7,2.1c-0.3,0.7-0.5,1.3-0.8,1.9
	c-0.3,0.6-0.7,1.2-1,1.8c-0.4,0.6-0.8,1.1-1.2,1.6c-0.4,0.5-0.8,1-1.3,1.5c-0.5,0.5-0.9,0.9-1.4,1.3c-0.5,0.4-1,0.7-1.5,1.1
	c-0.5,0.3-1.1,0.6-1.6,0.8c-0.6,0.2-1.1,0.5-1.7,0.6c-0.6,0.2-1.2,0.3-1.8,0.4c-0.6,0.1-1.2,0.2-1.8,0.2c-0.6,0-1.2,0-1.9-0.1
	c-0.6-0.1-1.2-0.2-1.9-0.3c-0.6-0.1-1.2-0.3-1.9-0.5c-0.6-0.2-1.2-0.5-1.8-0.8c-0.6-0.3-1.2-0.6-1.8-1c-0.6-0.4-1.2-0.8-1.8-1.2
	c-0.6-0.4-1.1-0.9-1.7-1.4c-0.5-0.5-1.1-1-1.6-1.6c-0.5-0.5-1-1.1-1.5-1.7c-0.5-0.6-0.9-1.2-1.4-1.9c-0.4-0.6-0.8-1.3-1.2-2
	c-0.4-0.7-0.7-1.4-1.1-2.1c-0.3-0.7-0.6-1.5-0.9-2.2c-0.3-0.8-0.5-1.5-0.8-2.3c-0.2-0.8-0.4-1.5-0.6-2.3c-0.2-0.8-0.3-1.6-0.4-2.4
	c-0.1-0.8-0.2-1.6-0.2-2.4c0-0.8-0.1-1.6,0-2.3c0-0.8,0.1-1.6,0.1-2.3c0.1-0.8,0.2-1.5,0.3-2.2c0.1-0.7,0.3-1.5,0.5-2.2
	c0.2-0.7,0.4-1.4,0.7-2.1c0.3-0.7,0.5-1.3,0.8-1.9c0.3-0.6,0.6-1.2,1-1.8c0.4-0.6,0.8-1.1,1.2-1.6c0.4-0.5,0.8-1,1.3-1.4
	c0.5-0.5,0.9-0.9,1.4-1.3c0.5-0.4,1-0.7,1.5-1.1c0.5-0.3,1.1-0.6,1.6-0.8c0.6-0.2,1.1-0.5,1.7-0.6c0.6-0.2,1.2-0.3,1.8-0.4
	c0.6-0.1,1.2-0.2,1.8-0.2c0.6,0,1.2,0,1.9,0.1c0.6,0.1,1.3,0.2,1.9,0.3c0.6,0.1,1.3,0.3,1.9,0.5c0.6,0.2,1.2,0.5,1.9,0.8
	c0.6,0.3,1.2,0.6,1.8,1c0.6,0.4,1.2,0.8,1.8,1.2c0.6,0.4,1.1,0.9,1.7,1.4c0.5,0.5,1.1,1,1.6,1.6c0.5,0.5,1,1.1,1.5,1.7
	c0.5,0.6,0.9,1.2,1.4,1.9c0.4,0.7,0.8,1.3,1.2,2c0.4,0.7,0.7,1.4,1.1,2.1c0.3,0.7,0.6,1.5,0.9,2.2
	C301.4,99.6,301.6,100.4,301.8,101.1z"/>
<path class="st12" d="M294.8,104.7c0.3,1.1,0.4,2.3,0.5,3.5c0.1,1.2,0.1,2.3,0.1,3.4c-0.1,1.1-0.2,2.2-0.4,3.3
	c-0.2,1.1-0.5,2.1-0.9,3c-0.4,0.9-0.8,1.8-1.4,2.6c-0.5,0.8-1.1,1.5-1.8,2.1c-0.6,0.6-1.3,1.1-2.1,1.5c-0.7,0.4-1.5,0.7-2.3,0.9
	c-0.8,0.2-1.6,0.3-2.5,0.2s-1.7-0.2-2.5-0.5c-0.8-0.3-1.7-0.6-2.5-1.1c-0.8-0.5-1.6-1.1-2.4-1.7c-0.8-0.7-1.5-1.4-2.1-2.3
	c-0.7-0.8-1.3-1.8-1.8-2.8c-0.6-1-1-2-1.4-3.1c-0.4-1.1-0.8-2.2-1-3.3c-0.3-1.1-0.4-2.3-0.5-3.5c-0.1-1.2-0.1-2.3-0.1-3.4
	c0.1-1.1,0.2-2.2,0.4-3.3c0.2-1.1,0.5-2.1,0.9-3c0.4-0.9,0.8-1.8,1.4-2.6c0.5-0.8,1.1-1.5,1.8-2.1c0.6-0.6,1.3-1.1,2.1-1.5
	c0.7-0.4,1.5-0.7,2.3-0.9c0.8-0.2,1.6-0.3,2.5-0.2c0.8,0,1.7,0.2,2.5,0.5c0.8,0.3,1.7,0.6,2.5,1.1c0.8,0.5,1.6,1.1,2.4,1.7
	c0.8,0.7,1.5,1.4,2.1,2.3c0.7,0.8,1.3,1.8,1.8,2.8c0.6,1,1,2,1.5,3.1C294.2,102.4,294.6,103.5,294.8,104.7z"/>
<path class="st13" d="M289.4,106.5c0.2,0.7,0.3,1.5,0.3,2.2c0.1,0.7,0.1,1.5,0,2.2c0,0.7-0.1,1.4-0.3,2.1c-0.2,0.7-0.3,1.3-0.6,1.9
	c-0.3,0.6-0.5,1.2-0.9,1.7c-0.3,0.5-0.7,1-1.1,1.3c-0.4,0.4-0.9,0.7-1.3,1s-1,0.5-1.5,0.6c-0.5,0.1-1.1,0.2-1.6,0.1
	c-0.5,0-1.1-0.1-1.6-0.3s-1.1-0.4-1.6-0.7c-0.5-0.3-1-0.7-1.5-1.1s-0.9-0.9-1.4-1.5c-0.4-0.5-0.8-1.1-1.2-1.8
	c-0.4-0.6-0.7-1.3-0.9-2c-0.3-0.7-0.5-1.4-0.7-2.1c-0.2-0.7-0.3-1.5-0.3-2.2c-0.1-0.7-0.1-1.5,0-2.2c0-0.7,0.1-1.4,0.3-2.1
	s0.4-1.3,0.6-1.9s0.5-1.2,0.9-1.7c0.3-0.5,0.7-1,1.1-1.3c0.4-0.4,0.9-0.7,1.3-1c0.5-0.3,1-0.5,1.5-0.6c0.5-0.1,1.1-0.2,1.6-0.1
	c0.5,0,1.1,0.1,1.6,0.3c0.5,0.2,1.1,0.4,1.6,0.7c0.5,0.3,1,0.7,1.5,1.1c0.5,0.4,0.9,0.9,1.4,1.5c0.4,0.5,0.8,1.1,1.2,1.8
	c0.4,0.6,0.7,1.3,0.9,2C289.1,105.1,289.3,105.8,289.4,106.5z"/>
<path class="st9" d="M284.9,101.9c-0.1,0-0.1,0-0.2,0c-3.1,0.6-6.1-1.5-6.7-4.6c-0.1-0.4-0.1-0.8-0.1-1.2c0-2.6,1.8-4.8,4.4-5.5
	c0.1,0,0.2-0.1,0.3-0.1c3.1-0.6,6.1,1.5,6.7,4.6c0.2,1.1,0.1,2.1-0.3,3.1C288.4,100.1,286.9,101.5,284.9,101.9z"/>
<path class="st14" d="M307.4,121.8c0,0.2,0,0.4-0.1,0.5c-0.1,0.2-0.2,0.4-0.4,0.6c-0.2,0.2-0.4,0.4-0.7,0.6
	c-0.3,0.2-0.6,0.4-0.9,0.5c-0.3,0.2-0.7,0.3-1.1,0.5c-0.4,0.2-0.9,0.3-1.3,0.4c-0.5,0.1-0.9,0.2-1.4,0.4c-0.5,0.1-1,0.2-1.5,0.3
	s-1,0.1-1.5,0.2c-0.5,0-1,0.1-1.5,0.1c-0.5,0-0.9,0-1.4-0.1c-0.4,0-0.9-0.1-1.2-0.2c-0.4-0.1-0.7-0.2-1-0.3
	c-0.3-0.1-0.6-0.2-0.8-0.4s-0.4-0.3-0.5-0.4c-0.1-0.2-0.2-0.3-0.2-0.5c0-0.2,0-0.4,0.1-0.5s0.2-0.4,0.4-0.6c0.2-0.2,0.4-0.4,0.7-0.6
	s0.6-0.4,0.9-0.5c0.3-0.2,0.7-0.3,1.1-0.5c0.4-0.2,0.9-0.3,1.3-0.4c0.5-0.1,0.9-0.2,1.4-0.4s1-0.2,1.5-0.3c0.5-0.1,1-0.1,1.5-0.2
	c0.5,0,1-0.1,1.5-0.1s0.9,0,1.4,0.1c0.4,0,0.8,0.1,1.2,0.2c0.4,0.1,0.7,0.2,1,0.3c0.3,0.1,0.6,0.2,0.8,0.4s0.4,0.3,0.5,0.4
	C307.3,121.5,307.3,121.6,307.4,121.8z"/>
<path class="st14" d="M223.5,132.9c0,0.2,0,0.4-0.1,0.5s-0.2,0.4-0.4,0.6c-0.2,0.2-0.4,0.4-0.7,0.6s-0.6,0.4-0.9,0.5
	c-0.3,0.2-0.7,0.3-1.1,0.5c-0.4,0.2-0.9,0.3-1.3,0.4c-0.5,0.1-0.9,0.2-1.4,0.4c-0.5,0.1-1,0.2-1.5,0.3c-0.5,0.1-1,0.1-1.5,0.2
	c-0.5,0-1,0.1-1.5,0.1c-0.5,0-0.9,0-1.4-0.1c-0.4,0-0.9-0.1-1.2-0.2c-0.4-0.1-0.7-0.2-1-0.3c-0.3-0.1-0.6-0.2-0.8-0.4
	c-0.2-0.1-0.4-0.3-0.5-0.4c-0.1-0.2-0.2-0.3-0.2-0.5c0-0.2,0-0.4,0.1-0.5c0.1-0.2,0.2-0.4,0.4-0.6c0.2-0.2,0.4-0.4,0.7-0.6
	c0.3-0.2,0.6-0.4,0.9-0.5c0.3-0.2,0.7-0.3,1.1-0.5c0.4-0.2,0.9-0.3,1.3-0.4c0.5-0.1,0.9-0.2,1.4-0.4c0.5-0.1,1-0.2,1.5-0.3
	c0.5-0.1,1-0.1,1.5-0.2c0.5,0,1-0.1,1.5-0.1c0.5,0,0.9,0,1.4,0.1s0.9,0.1,1.2,0.2c0.4,0.1,0.7,0.2,1,0.3c0.3,0.1,0.6,0.2,0.8,0.4
	c0.2,0.1,0.4,0.3,0.5,0.4C223.4,132.5,223.5,132.7,223.5,132.9z"/>
<path class="st1" d="M290,160.1c0,0-7.5-16.6,13.7-18.8c1.9-7.8-6-18.1-15.9-22.4c-24-10.4-32.6,14.8-46.1,20.5
	c-4.8,2-9.7,1.3-9.7,1.3s-9.4-3.9-10.6,0.8c-1.7,6.5,8.9,8.9,8.9,8.9c8.2,32,21.9,38.1,31.8,41.2C278.7,196.8,306.6,180.7,290,160.1
	z"/>
<path class="st13" d="M293.3,135.2c-9.6-5.4-18.4,20.2-55.3,17c5.3,11.2,13.9,18,22.7,20.5c21.5,6,28.6-4.5,29.4-12.1
	c0,0-6.8-3-5-15.2C285.9,140.2,293.3,135.2,293.3,135.2z"/>
<path class="st15" d="M251.4,166c1.9,2,6.2,6.2,19,7.2C270.3,173.2,266.8,159.3,251.4,166z"/>
<path class="st9" d="M282.5,120.5c0.7,0.2,1.4,0.5,2,0.7c0.7,0.3,1.3,0.6,1.9,0.9c0.6,0.3,1.2,0.6,1.7,0.9c0.5,0.3,1,0.6,1.4,1
	c0.4,0.3,0.8,0.6,1.1,1c0.3,0.3,0.6,0.6,0.8,0.9c0.2,0.3,0.3,0.6,0.4,0.8c0.1,0.3,0.1,0.5,0,0.7c-0.1,0.2-0.2,0.4-0.4,0.6
	c-0.2,0.2-0.5,0.3-0.8,0.4c-0.3,0.1-0.7,0.2-1.2,0.3c-0.4,0.1-0.9,0.1-1.5,0.1c-0.5,0-1.1,0-1.7-0.1c-0.6-0.1-1.2-0.2-1.9-0.3
	c-0.7-0.1-1.3-0.3-2-0.5c-0.7-0.2-1.4-0.4-2.1-0.6c-0.7-0.2-1.4-0.5-2-0.7c-0.7-0.3-1.3-0.6-1.9-0.9s-1.2-0.6-1.7-0.9
	c-0.5-0.3-1-0.6-1.4-1c-0.4-0.3-0.8-0.6-1.1-1c-0.3-0.3-0.6-0.6-0.8-0.9c-0.2-0.3-0.3-0.6-0.4-0.8c-0.1-0.3-0.1-0.5,0-0.7
	c0.1-0.2,0.2-0.4,0.4-0.6c0.2-0.2,0.5-0.3,0.8-0.4c0.3-0.1,0.7-0.2,1.2-0.3c0.4-0.1,0.9-0.1,1.5-0.1c0.5,0,1.1,0,1.7,0.1
	c0.6,0.1,1.3,0.2,1.9,0.3c0.7,0.1,1.3,0.3,2,0.5C281.1,120.1,281.8,120.3,282.5,120.5z"/>
<path class="st9" d="M295.2,128.2c0.3,0.1,0.5,0.2,0.7,0.4c0.2,0.2,0.4,0.4,0.5,0.6c0.1,0.2,0.2,0.4,0.2,0.6c0,0.2,0,0.4-0.1,0.6
	c-0.1,0.2-0.2,0.3-0.4,0.5c-0.2,0.1-0.4,0.2-0.6,0.3c-0.2,0.1-0.5,0.1-0.8,0c-0.3,0-0.5-0.1-0.8-0.2c-0.3-0.1-0.5-0.2-0.7-0.4
	c-0.2-0.2-0.4-0.4-0.5-0.6c-0.1-0.2-0.2-0.4-0.2-0.6c0-0.2,0-0.4,0.1-0.6c0.1-0.2,0.2-0.3,0.4-0.5c0.2-0.1,0.4-0.2,0.6-0.3
	c0.2-0.1,0.5-0.1,0.8,0S295,128,295.2,128.2z"/>
<path class="st13" d="M266.9,86.3c-2,2.3-5.2-0.7-4.7-3.1s3.5-13.2,12.2-14.9c13.7-2.6,24.2,10.7,24.2,10.7c4.2,4.1,2.8,7.2,1.2,6.1
	C274.7,68.4,270.7,81.9,266.9,86.3z"/>
<path class="st13" d="M239.5,88.3c1.7-0.5,0.1-3.9,0.1-3.9c-1.8-2.1-10.9-13.5-21.3-11.8c-10.4,1.6-20.6,14.9-23.7,20.7
	c-2.8,5.3,2.5,6.9,3.8,5.3c8.8-10.5,15.2-14.2,20.1-15.1C227.4,82.1,234.4,89.8,239.5,88.3z"/>
<path class="st1" d="M457.1,101.4l-3.4-59.9C453,29,442.3,19.4,429.8,20.1l-75.2,4.2c-12.5,0.7-22.1,11.4-21.4,23.9l3.4,59.9
	c0.7,12.5,11.4,22.1,23.9,21.4l31.2-1.8l0.6,48.1c3.9,0.9,6.2,3.9,6.9,7.2l8.1-5.5l-0.7-50.6l29.1-1.6
	C448.2,124.6,457.8,113.9,457.1,101.4z"/>
<path class="st1" d="M413.4,243c-6.6-0.4-12.3-3.5-16.2-8.2l2.4,32.7c0.3,4.1,3.9,7.2,8,6.9c4.1-0.3,7.2-3.9,6.9-8L413.4,243z"/>
<path class="st9" d="M421.6,76.8c-0.5,2.4-1.3,4.6-2.3,6.7c-1.1,2.1-2.4,3.9-4.1,5.4c-1.7,1.5-3.6,2.3-5.8,2.4
	c-1.8,0.1-3.4-0.4-4.9-1.5c-1.4-1.1-2.6-2.5-3.5-4.1c-1-1.6-1.7-3.4-2.2-5.3c-0.5-1.9-0.8-3.5-0.9-5c-0.1-1.9,0.1-4,0.6-6.4
	c0.5-2.4,1.3-4.6,2.4-6.8s2.5-3.9,4.1-5.4c1.7-1.5,3.6-2.3,5.8-2.4c1.8-0.1,3.4,0.4,4.8,1.5c1.4,1.1,2.5,2.5,3.5,4.2
	c0.9,1.7,1.6,3.5,2.2,5.4c0.5,1.9,0.8,3.6,0.9,5C422.3,72.4,422.1,74.5,421.6,76.8z M432.8,59.1c-1-3.7-2.6-7-4.6-9.9
	c-2-2.9-4.6-5.2-7.7-6.9c-3.1-1.7-6.9-2.4-11.3-2.2c-2.6,0.1-5,0.8-7.3,2c-2.3,1.2-4.4,2.7-6.4,4.5c-1.9,1.9-3.6,4-5.1,6.4
	s-2.8,4.9-3.8,7.5s-1.8,5.2-2.3,7.8s-0.7,5.1-0.5,7.4c0.2,3.3,0.9,6.7,2.3,10.2c1.3,3.5,3.1,6.7,5.4,9.6c2.3,2.9,4.9,5.2,8,7
	c3.1,1.8,6.5,2.6,10.2,2.3c4.4-0.2,8.2-1.5,11.5-3.6c3.3-2.2,5.9-4.9,8-8.2c2.1-3.3,3.6-6.9,4.5-10.9c0.9-4,1.3-7.9,1.1-11.8
	C434.4,66.5,433.8,62.8,432.8,59.1z M376.3,55.4c-0.2-2.3-0.7-4.6-1.4-6.8c-0.7-2.2-1.7-4.1-2.9-5.6c-1.3-1.5-3-2.2-5.1-2.1
	c-2.5,0.1-18.6,15.8-13,20.2c5.6,4.4,8.6-0.8,9.8,0.1c0.2,3.9,0.3,4.1,0.5,8c0.2,3.9,0.4,7.8,0.6,11.7c0,0.8,0.1,1.9,0.1,3.4
	s0.1,3.1,0.2,4.8c0.1,1.7,0.3,3.5,0.6,5.3c0.3,1.8,0.7,3.4,1.3,4.8c0.6,1.4,1.3,2.6,2.2,3.5c0.9,0.9,2.1,1.3,3.4,1.2
	c1.4-0.1,2.5-0.7,3.2-1.9c0.7-1.2,1.2-2.6,1.5-4.2s0.4-3.2,0.4-4.8c0-1.6-0.1-2.9-0.1-3.9c0-2.9-0.1-5.8-0.2-8.7
	c-0.2-2.9-0.3-5.8-0.3-8.7c0-1.8-0.1-3.6-0.1-5.3c0-1.8-0.1-3.6-0.2-5.3C376.7,59.6,376.5,57.7,376.3,55.4z"/>
<path class="st9" d="M434.5,242.2c0,0-21.8,8.6-31.9-24.1c-2.6-8.4-2.8-15.4-1.7-21.2c4-2.6,6.7-6.4,6.1-11.8
	c-0.1-0.6-0.2-1.2-0.3-1.8c5.3-7.2,11.8-10.4,11.8-10.4c-5.4,1.8-9.9,3.8-13.6,6c-6.7-10.7-28.6-3.3-22.9-2.2
	c5.7,1.1,14.8,2.2,14,11.3c-1.1,11.3-21.6,14.8-21.6,14.8s7.3,0.1,15-1.6c-0.6,5.9,0.3,11.9,1.5,17.9c6,30,32.1,30.5,32.1,30.5
	s-2,7.3,5.8,5.5C423.4,250.2,434.5,242.2,434.5,242.2z"/>
<path class="st16" d="M166.2,209.9l-24.4,13.6c0,0,19.1,53.8,18.8,69.7v17.3l4.5,16.5L166.2,209.9z"/>
<path class="st17" d="M349.5,203.2c0,0-3.3,133.6,7.1,139.7c0,0,7.4-45.7,3.9-50.8C357,287,349.5,203.2,349.5,203.2z"/>
<path class="st18" d="M449,328"/>
<line class="st19" x1="-114" y1="129.5" x2="-273" y2="45.1"/>
<line class="st20" x1="-91" y1="243" x2="-138" y2="209.6"/>
<path class="st21" d="M198.5,237.6c0,0-0.1,18.9,46-11.5l5.6,0.2c0,0,11.7,34.8,44.6,31.3c0,0,13.7-5.6,17.8-31.1l4-6.8
	c1.1,0.9,18.4,16.6,13.1,13.9l-15.7-5.4c0,0,2.5,40.7-35.9,35.2c0,0-19.1-9.8-33-28.5c0,0-27.9,22.7-51.1,8.2c0,0-10.4-3.6-2.9-16.7
	C191,226.3,187.9,237.6,198.5,237.6z"/>
<path class="st22" d="M165.2,333.8c0,0,89.4,60.3,191.5,9.1c0,0-2.6,13.3-7.1,20.6c-4.5,7.2-99.9,29.2-178.8-14.9L165.2,333.8z"/>
<path class="st23" d="M352.6,234.8V273l2.7,36.2l3.7,17.8l1.6-34.9l34.6,2.1l29.8-5.1l-2.6-9.3c0,0-11.9,4-27.2,3.4
	c-15.3-0.6-33.7-8.8-33.7-8.8L352.6,234.8z"/>
<path class="st22" d="M55.6,293.7c0,0-9.4,5.7-2.6,9s17.5,3.2,17.5,3.2l-4.4,8.5l22.1,4.8l-3.7,8.8c0,0,58.8-0.7,76.2-17.5l4.5,23.3
	v-52.8l-4.5-30.9c0,0,9,75.1-58.3,64.4C102.3,314.4,58.8,299.4,55.6,293.7z"/>
</svg>
