<svg xmlns="http://www.w3.org/2000/svg" xmlns:xlink="http://www.w3.org/1999/xlink" width="500" zoomAndPan="magnify" viewBox="0 0 375 374.999991" height="500" preserveAspectRatio="xMidYMid meet" version="1.0"><defs><g/><clipPath id="42965e6731"><path d="M 0 115 L 375 115 L 375 375 L 0 375 Z M 0 115 " clip-rule="nonzero"/></clipPath><clipPath id="82f1980ab4"><path d="M -76.066406 299.050781 L 383.953125 115.742188 L 495.347656 395.289062 L 35.328125 578.597656 Z M -76.066406 299.050781 " clip-rule="nonzero"/></clipPath><clipPath id="c2d7512f16"><path d="M -76.066406 299.050781 L 383.953125 115.742188 L 495.347656 395.289062 L 35.328125 578.597656 Z M -76.066406 299.050781 " clip-rule="nonzero"/></clipPath><clipPath id="183d99a9f5"><path d="M 83.910156 0 L 114.558594 0 L 114.558594 7.78125 L 83.910156 7.78125 Z M 83.910156 0 " clip-rule="nonzero"/></clipPath><clipPath id="cd21329d71"><path d="M 99.234375 -21.429688 L 102.851562 -10.269531 L 114.558594 -10.269531 L 105.089844 -3.375 L 108.707031 7.78125 L 99.234375 0.886719 L 89.765625 7.78125 L 93.382812 -3.375 L 83.910156 -10.269531 L 95.617188 -10.269531 Z M 99.234375 -21.429688 " clip-rule="nonzero"/></clipPath><clipPath id="0c2fad7225"><path d="M 0 136.84375 L 15.363281 136.84375 L 15.363281 165.132812 L 0 165.132812 Z M 0 136.84375 " clip-rule="nonzero"/></clipPath><clipPath id="4ad647f730"><path d="M 0.519531 136.84375 L 4.023438 147.648438 L 15.363281 147.648438 L 6.1875 154.328125 L 9.691406 165.132812 L 0.519531 158.457031 L -8.652344 165.132812 L -5.148438 154.328125 L -14.320312 147.648438 L -2.984375 147.648438 Z M 0.519531 136.84375 " clip-rule="nonzero"/></clipPath><clipPath id="5eca962435"><path d="M 344.351562 0 L 375 0 L 375 7.78125 L 344.351562 7.78125 Z M 344.351562 0 " clip-rule="nonzero"/></clipPath><clipPath id="5fe950e302"><path d="M 359.675781 -21.429688 L 363.292969 -10.269531 L 375 -10.269531 L 365.527344 -3.375 L 369.148438 7.78125 L 359.675781 0.886719 L 350.203125 7.78125 L 353.820312 -3.375 L 344.351562 -10.269531 L 356.058594 -10.269531 Z M 359.675781 -21.429688 " clip-rule="nonzero"/></clipPath><clipPath id="83708a99d5"><path d="M 177.773438 74.257812 L 209.636719 74.257812 L 209.636719 104.628906 L 177.773438 104.628906 Z M 177.773438 74.257812 " clip-rule="nonzero"/></clipPath><clipPath id="133b982e50"><path d="M 193.707031 74.257812 L 197.46875 85.859375 L 209.636719 85.859375 L 199.792969 93.027344 L 203.550781 104.628906 L 193.707031 97.457031 L 183.859375 104.628906 L 187.621094 93.027344 L 177.773438 85.859375 L 189.945312 85.859375 Z M 193.707031 74.257812 " clip-rule="nonzero"/></clipPath><clipPath id="e3000f95a5"><path d="M 262.617188 41.949219 L 284.757812 41.949219 L 284.757812 63.050781 L 262.617188 63.050781 Z M 262.617188 41.949219 " clip-rule="nonzero"/></clipPath><clipPath id="666555a85c"><path d="M 273.6875 41.949219 L 276.300781 50.007812 L 284.757812 50.007812 L 277.917969 54.988281 L 280.527344 63.050781 L 273.6875 58.066406 L 266.847656 63.050781 L 269.460938 54.988281 L 262.617188 50.007812 L 271.074219 50.007812 Z M 273.6875 41.949219 " clip-rule="nonzero"/></clipPath><clipPath id="09ae41da54"><path d="M 309.683594 115.742188 L 331.820312 115.742188 L 331.820312 136.84375 L 309.683594 136.84375 Z M 309.683594 115.742188 " clip-rule="nonzero"/></clipPath><clipPath id="806d2eb799"><path d="M 320.753906 115.742188 L 323.363281 123.804688 L 331.820312 123.804688 L 324.980469 128.785156 L 327.59375 136.84375 L 320.753906 131.863281 L 313.910156 136.84375 L 316.523438 128.785156 L 309.683594 123.804688 L 318.140625 123.804688 Z M 320.753906 115.742188 " clip-rule="nonzero"/></clipPath><clipPath id="cae759aa46"><path d="M 43.179688 53.15625 L 65.316406 53.15625 L 65.316406 74.257812 L 43.179688 74.257812 Z M 43.179688 53.15625 " clip-rule="nonzero"/></clipPath><clipPath id="9cbe0125fe"><path d="M 54.246094 53.15625 L 56.859375 61.214844 L 65.316406 61.214844 L 58.476562 66.195312 L 61.089844 74.257812 L 54.246094 69.273438 L 47.40625 74.257812 L 50.019531 66.195312 L 43.179688 61.214844 L 51.636719 61.214844 Z M 54.246094 53.15625 " clip-rule="nonzero"/></clipPath><clipPath id="a92846e168"><path d="M 140.09375 42.605469 L 162.234375 42.605469 L 162.234375 63.707031 L 140.09375 63.707031 Z M 140.09375 42.605469 " clip-rule="nonzero"/></clipPath><clipPath id="c823b47724"><path d="M 151.164062 42.605469 L 153.777344 50.664062 L 162.234375 50.664062 L 155.390625 55.644531 L 158.003906 63.707031 L 151.164062 58.726562 L 144.320312 63.707031 L 146.933594 55.644531 L 140.09375 50.664062 L 148.550781 50.664062 Z M 151.164062 42.605469 " clip-rule="nonzero"/></clipPath><clipPath id="c532795398"><path d="M 28.632812 172.335938 L 65.316406 172.335938 L 65.316406 207.300781 L 28.632812 207.300781 Z M 28.632812 172.335938 " clip-rule="nonzero"/></clipPath><clipPath id="4acd85e620"><path d="M 46.976562 172.335938 L 51.304688 185.691406 L 65.316406 185.691406 L 53.980469 193.945312 L 58.3125 207.300781 L 46.976562 199.046875 L 35.640625 207.300781 L 39.96875 193.945312 L 28.632812 185.691406 L 42.644531 185.691406 Z M 46.976562 172.335938 " clip-rule="nonzero"/></clipPath><clipPath id="b992e210bb"><path d="M 129.023438 126.292969 L 151.164062 126.292969 L 151.164062 147.394531 L 129.023438 147.394531 Z M 129.023438 126.292969 " clip-rule="nonzero"/></clipPath><clipPath id="d71886dc58"><path d="M 140.09375 126.292969 L 142.707031 134.355469 L 151.164062 134.355469 L 144.320312 139.335938 L 146.933594 147.394531 L 140.09375 142.414062 L 133.253906 147.394531 L 135.867188 139.335938 L 129.023438 134.355469 L 137.480469 134.355469 Z M 140.09375 126.292969 " clip-rule="nonzero"/></clipPath><clipPath id="b620303d94"><path d="M 331.820312 63.050781 L 359.636719 63.050781 L 359.636719 89.5625 L 331.820312 89.5625 Z M 331.820312 63.050781 " clip-rule="nonzero"/></clipPath><clipPath id="87325c0e24"><path d="M 345.730469 63.050781 L 349.011719 73.175781 L 359.636719 73.175781 L 351.042969 79.433594 L 354.324219 89.5625 L 345.730469 83.304688 L 337.132812 89.5625 L 340.417969 79.433594 L 331.820312 73.175781 L 342.445312 73.175781 Z M 345.730469 63.050781 " clip-rule="nonzero"/></clipPath><clipPath id="740396a711"><path d="M 209.636719 20.847656 L 231.777344 20.847656 L 231.777344 41.949219 L 209.636719 41.949219 Z M 209.636719 20.847656 " clip-rule="nonzero"/></clipPath><clipPath id="36e28626c7"><path d="M 220.707031 20.847656 L 223.320312 28.90625 L 231.777344 28.90625 L 224.9375 33.886719 L 227.550781 41.949219 L 220.707031 36.96875 L 213.867188 41.949219 L 216.480469 33.886719 L 209.636719 28.90625 L 218.09375 28.90625 Z M 220.707031 20.847656 " clip-rule="nonzero"/></clipPath></defs><rect x="-37.5" width="450" fill="#ffffff" y="-37.499999" height="449.999989" fill-opacity="1"/><rect x="-37.5" width="450" fill="#ff3131" y="-37.499999" height="449.999989" fill-opacity="1"/><g clip-path="url(#42965e6731)"><g clip-path="url(#82f1980ab4)"><g clip-path="url(#c2d7512f16)"><path fill="#004aad" d="M -76.066406 299.050781 L 383.953125 115.742188 L 495.347656 395.289062 L 35.328125 578.597656 Z M -76.066406 299.050781 " fill-opacity="1" fill-rule="nonzero"/></g></g></g><g fill="#000000" fill-opacity="0.4"><g transform="translate(89.509024, 294.323536)"><g><path d="M 97.351562 -33.578125 L 0 -33.578125 L 0 -2.027344 C 0 -1.125 1.125 0 2.480469 0 L 97.351562 0 C 98.929688 0 99.832031 -1.125 99.832031 -2.027344 L 99.832031 -31.324219 C 99.832031 -32.449219 98.929688 -33.578125 97.351562 -33.578125 Z M 34.480469 -68.054688 L 34.480469 -178.253906 C 34.480469 -179.152344 33.578125 -180.28125 32.226562 -180.28125 L 2.480469 -180.28125 C 1.125 -180.28125 0 -179.152344 0 -178.253906 L 0 -68.054688 Z M 34.480469 -68.054688 "/></g></g></g><g fill="#000000" fill-opacity="0.4"><g transform="translate(160.944459, 294.323536)"><g><path d="M 102.984375 -33.125 C 81.125 -32.226562 34.703125 -34.480469 34.703125 -90.140625 C 34.703125 -132.957031 63.773438 -149.40625 102.984375 -147.378906 L 102.984375 -107.492188 L 137.464844 -107.492188 L 137.464844 -178.253906 C 137.464844 -179.152344 136.5625 -180.28125 134.984375 -180.28125 L 105.691406 -180.28125 C 61.519531 -180.28125 0 -170.140625 0 -90.140625 C 0 -13.070312 60.84375 0 105.691406 0 L 134.984375 0 C 136.5625 0 137.464844 -1.125 137.464844 -2.027344 L 137.464844 -33.125 Z M 102.984375 -33.125 "/></g></g></g><g fill="#ffffff" fill-opacity="1"><g transform="translate(79.549688, 284.364198)"><g><path d="M 97.351562 -33.578125 L 0 -33.578125 L 0 -2.027344 C 0 -1.125 1.125 0 2.480469 0 L 97.351562 0 C 98.929688 0 99.832031 -1.125 99.832031 -2.027344 L 99.832031 -31.324219 C 99.832031 -32.449219 98.929688 -33.578125 97.351562 -33.578125 Z M 34.480469 -68.054688 L 34.480469 -178.253906 C 34.480469 -179.152344 33.578125 -180.28125 32.226562 -180.28125 L 2.480469 -180.28125 C 1.125 -180.28125 0 -179.152344 0 -178.253906 L 0 -68.054688 Z M 34.480469 -68.054688 "/></g></g></g><g fill="#ffffff" fill-opacity="1"><g transform="translate(150.985123, 284.364198)"><g><path d="M 102.984375 -33.125 C 81.125 -32.226562 34.703125 -34.480469 34.703125 -90.140625 C 34.703125 -132.957031 63.773438 -149.40625 102.984375 -147.378906 L 102.984375 -107.492188 L 137.464844 -107.492188 L 137.464844 -178.253906 C 137.464844 -179.152344 136.5625 -180.28125 134.984375 -180.28125 L 105.691406 -180.28125 C 61.519531 -180.28125 0 -170.140625 0 -90.140625 C 0 -13.070312 60.84375 0 105.691406 0 L 134.984375 0 C 136.5625 0 137.464844 -1.125 137.464844 -2.027344 L 137.464844 -33.125 Z M 102.984375 -33.125 "/></g></g></g><g clip-path="url(#183d99a9f5)"><g clip-path="url(#cd21329d71)"><path fill="#ffffff" d="M 83.910156 -21.429688 L 114.558594 -21.429688 L 114.558594 7.78125 L 83.910156 7.78125 Z M 83.910156 -21.429688 " fill-opacity="1" fill-rule="nonzero"/></g></g><g clip-path="url(#0c2fad7225)"><g clip-path="url(#4ad647f730)"><path fill="#ffffff" d="M -14.320312 136.84375 L 15.363281 136.84375 L 15.363281 165.132812 L -14.320312 165.132812 Z M -14.320312 136.84375 " fill-opacity="1" fill-rule="nonzero"/></g></g><g clip-path="url(#5eca962435)"><g clip-path="url(#5fe950e302)"><path fill="#ffffff" d="M 344.351562 -21.429688 L 375 -21.429688 L 375 7.78125 L 344.351562 7.78125 Z M 344.351562 -21.429688 " fill-opacity="1" fill-rule="nonzero"/></g></g><g clip-path="url(#83708a99d5)"><g clip-path="url(#133b982e50)"><path fill="#ffffff" d="M 177.773438 74.257812 L 209.636719 74.257812 L 209.636719 104.628906 L 177.773438 104.628906 Z M 177.773438 74.257812 " fill-opacity="1" fill-rule="nonzero"/></g></g><g clip-path="url(#e3000f95a5)"><g clip-path="url(#666555a85c)"><path fill="#ffffff" d="M 262.617188 41.949219 L 284.757812 41.949219 L 284.757812 63.050781 L 262.617188 63.050781 Z M 262.617188 41.949219 " fill-opacity="1" fill-rule="nonzero"/></g></g><g clip-path="url(#09ae41da54)"><g clip-path="url(#806d2eb799)"><path fill="#ffffff" d="M 309.683594 115.742188 L 331.820312 115.742188 L 331.820312 136.84375 L 309.683594 136.84375 Z M 309.683594 115.742188 " fill-opacity="1" fill-rule="nonzero"/></g></g><g clip-path="url(#cae759aa46)"><g clip-path="url(#9cbe0125fe)"><path fill="#ffffff" d="M 43.179688 53.15625 L 65.316406 53.15625 L 65.316406 74.257812 L 43.179688 74.257812 Z M 43.179688 53.15625 " fill-opacity="1" fill-rule="nonzero"/></g></g><g clip-path="url(#a92846e168)"><g clip-path="url(#c823b47724)"><path fill="#ffffff" d="M 140.09375 42.605469 L 162.234375 42.605469 L 162.234375 63.707031 L 140.09375 63.707031 Z M 140.09375 42.605469 " fill-opacity="1" fill-rule="nonzero"/></g></g><g clip-path="url(#c532795398)"><g clip-path="url(#4acd85e620)"><path fill="#ffffff" d="M 28.632812 172.335938 L 65.316406 172.335938 L 65.316406 207.300781 L 28.632812 207.300781 Z M 28.632812 172.335938 " fill-opacity="1" fill-rule="nonzero"/></g></g><g clip-path="url(#b992e210bb)"><g clip-path="url(#d71886dc58)"><path fill="#ffffff" d="M 129.023438 126.292969 L 151.164062 126.292969 L 151.164062 147.394531 L 129.023438 147.394531 Z M 129.023438 126.292969 " fill-opacity="1" fill-rule="nonzero"/></g></g><g clip-path="url(#b620303d94)"><g clip-path="url(#87325c0e24)"><path fill="#ffffff" d="M 331.820312 63.050781 L 359.636719 63.050781 L 359.636719 89.5625 L 331.820312 89.5625 Z M 331.820312 63.050781 " fill-opacity="1" fill-rule="nonzero"/></g></g><g clip-path="url(#740396a711)"><g clip-path="url(#36e28626c7)"><path fill="#ffffff" d="M 209.636719 20.847656 L 231.777344 20.847656 L 231.777344 41.949219 L 209.636719 41.949219 Z M 209.636719 20.847656 " fill-opacity="1" fill-rule="nonzero"/></g></g></svg>